<?xml version="1.0" standalone="no"?>
<!DOCTYPE svg PUBLIC "-//W3C//DTD SVG 1.1//EN" "http://www.w3.org/Graphics/SVG/1.1/DTD/svg11.dtd" >
<svg>
<metadata>
Created by FontForge 20090622 at Thu Aug 25 01:37:36 2016
 By deploy user
Copyright (c) 2006 Alejandro Paul (sudtipos@sudtipos.com),with Reserved Font Name "Mr De Haviland"
</metadata>
<defs>
<font id="MrDeHaviland-Regular" horiz-adv-x="500" >
  <font-face 
    font-family="Mr De Haviland"
    font-weight="400"
    font-stretch="normal"
    units-per-em="1000"
    panose-1="2 0 0 0 0 0 0 0 0 0"
    ascent="800"
    descent="-200"
    x-height="200"
    cap-height="759"
    bbox="-306 -442 1174 891"
    underline-thickness="50"
    underline-position="-50"
    unicode-range="U+0020-U+FB02"
  />
<missing-glyph horiz-adv-x="175" 
 />
    <glyph glyph-name=".notdef" horiz-adv-x="175" 
 />
    <glyph glyph-name=".null" horiz-adv-x="0" 
 />
    <glyph glyph-name="nonmarkingreturn" horiz-adv-x="333" 
 />
    <glyph glyph-name="space" unicode=" " horiz-adv-x="175" 
 />
    <glyph glyph-name="exclam" unicode="!" horiz-adv-x="327" 
d="M434 639q0 -3 -58 -107q-179 -321 -226 -412q-26 -33 -36 -33q-6 0 -6 6.5t68 136l135.5 258t65.5 129.5q6 10 20 15l32 11zM105.5 5q-9.5 -10 -21 -10t-17 5t-6 17t10.5 20t21 8q22 0 22 -19q0 -11 -9.5 -21z" />
    <glyph glyph-name="quotedbl" unicode="&#x22;" horiz-adv-x="273" 
d="M207 505l-61 -79q-7 -10 -14 -10q-5 0 -5 5.5t3 11.5l53 88q6 10 15 10q12 0 12 -16q0 -4 -3 -10zM287 505l-61 -79q-7 -10 -14 -10q-5 0 -5 5.5t3 11.5l53 88q6 10 15 10q12 0 12 -16q0 -4 -3 -10z" />
    <glyph glyph-name="numbersign" unicode="#" horiz-adv-x="444" 
d="M254 288l-44 -125q-2 -7 -8 -7t-11.5 5.5t-5.5 12.5l37 114q-28 -1 -82 -1l-44 -124q-2 -7 -8 -7t-11.5 5.5t-5.5 12.5q27 87 36 113h-95q-23 0 -29 2t-6 8q0 20 15 21h126l24 71h-89q-23 0 -29 2t-6 8q0 20 15 21h120l39 108q11 31 18.5 31t13 -6t5.5 -13l-42 -120h81
q6 18 38 108q11 31 18.5 31t13 -6t5.5 -13l-42 -119h139q6 0 6 -4q0 -21 -15 -22q-81 -4 -141 -5l-25 -71h134q6 0 6 -4q0 -21 -15 -22q-78 -4 -136 -5zM232 319l25 71q-28 -1 -81 -1l-25 -70h81z" />
    <glyph glyph-name="dollar" unicode="$" horiz-adv-x="530" 
d="M357 678l62 115q11 20 21.5 20t10.5 -5q0 -8 -62 -129q63 -2 95 -27q84 35 136 35q8 0 9.5 -1.5t1.5 -11.5t-9 -13q-60 -2 -123 -24q13 -18 13 -43q0 -72 -41 -111.5t-90 -39.5q-26 0 -43.5 12.5t-17.5 35.5q0 41 36 78t93 66q-25 22 -71 23l-137 -259q83 -83 104 -113
q29 -35 29 -96t-51 -116.5t-125 -84.5t-148 -29q-20 0 -50 4l-38 -68q-4 -8 -12.5 -16.5t-13.5 -8.5q-9 0 -9 10q0 6 4 14l42 75q-54 16 -78.5 52t-24.5 71t19 35q10 0 19 -11t9 -25q0 -74 67 -101l214 394l-18 16q-72 64 -72 110q0 59 71.5 110.5t177.5 56.5zM11 -17
q25 -5 45.5 -5t41.5 3t61.5 13.5t80 39.5t64.5 70.5t25 76.5t-11.5 61.5t-23.5 38.5l-12 12q-32 41 -61 69zM153 525q0 -44 52 -91l13 -13q125 232 127 235q-72 -7 -132 -41.5t-60 -89.5zM382.5 565.5q-30.5 -32.5 -30.5 -64t25 -31.5q40 0 69 34t29 67t-13 50
q-49 -23 -79.5 -55.5z" />
    <glyph glyph-name="percent" unicode="%" horiz-adv-x="712" 
d="M342.5 312.5l211.5 372.5t19.5 16t10.5 -4.5t-422 -754.5q-4 -8 -12.5 -16.5t-13.5 -8.5q-9 0 -9 10q0 6 6.5 17.5zM124 272q-40 0 -58 22.5t-18 63t28 103.5t86.5 115.5t127.5 52.5q74 0 74 -88t-80 -178.5t-160 -90.5zM286 617q-46 0 -95.5 -48.5t-80 -112.5
t-30.5 -112q0 -59 50 -59q66 0 135.5 99.5t69.5 175.5q0 57 -49 57zM434 -18q-40 0 -58 22.5t-18 63t28 103.5t86.5 115.5t127.5 52.5q74 0 74 -88t-80 -178.5t-160 -90.5zM596 327q-46 0 -95.5 -48.5t-80 -112.5t-30.5 -112q0 -59 50 -59q66 0 135.5 99.5t69.5 175.5
q0 57 -49 57z" />
    <glyph glyph-name="ampersand" unicode="&#x26;" horiz-adv-x="552" 
d="M519 -12q18 -10 18 -18q0 -14 -13 -16h-5q-56 9 -120 86q-127 -92 -256 -92q-78 0 -125 39t-47 110q0 90 71 168q58 64 155 129l58 38q4 76 23 124l7 16q17 36 40.5 60.5t46.5 33.5q38 16 62 16q27 0 38 -25q5 -10 5 -31t-14.5 -49t-46 -58t-58.5 -50.5l-75 -55.5
q2 -64 25 -130q1 -6 4 -15q81 47 145 47q16 0 37 -7q41 -14 41 -61q0 -96 -108 -185q44 -51 92 -74zM322 159q-22 42 -31 67q-54 -46 -65 -99q-3 -14 -14 -14q-14 0 -14 23q0 54 85 113q-25 74 -28 145q-55 -39 -89 -67t-72 -68q-77 -79 -77 -171q0 -118 139 -118
q41 0 108.5 23t123.5 61q-34 44 -58 90zM499 227q0 9 -2 19.5t-18.5 25.5t-46.5 15q-47 0 -112 -40q36 -94 97 -172q82 70 82 152zM451 628q0 12 -6.5 20t-20.5 12q-61 0 -103 -70q-32 -54 -37 -140q83 55 125 95t42 83z" />
    <glyph glyph-name="quotesingle" unicode="'" horiz-adv-x="190" 
d="M207 505l-61 -79q-7 -10 -14 -10q-5 0 -5 5.5t3 11.5l53 88q6 10 15 10q12 0 12 -16q0 -4 -3 -10z" />
    <glyph glyph-name="parenleft" unicode="(" horiz-adv-x="317" 
d="M103 47q0 106 29 203t75.5 167.5t102.5 131t112 99.5q114 80 177 108l29 12q2 0 2 -2l-6 -9q-212 -98 -350.5 -295.5t-138.5 -443.5q0 -97 40 -174q0 -8 -2.5 -8t-5.5 4q-25 40 -44.5 99t-19.5 108z" />
    <glyph glyph-name="parenright" unicode=")" horiz-adv-x="415" 
d="M414.5 665q19.5 -59 19.5 -125t-18 -144t-48.5 -139.5t-69.5 -117t-83 -97t-87.5 -76.5t-82.5 -58q-80 -49 -118 -64l-18 -8q-2 0 -2 2l6 9q212 98 350.5 295.5t138.5 443.5q0 97 -40 174q0 8 2.5 8t5.5 -4q25 -40 44.5 -99z" />
    <glyph glyph-name="asterisk" unicode="*" horiz-adv-x="295" 
d="M230 435l-43 -54l69 -5q16 -3 16 -13q0 -16 -18 -16q-3 0 -66 16l31 -56q3 -5 3 -11q0 -13 -16 -13q-10 0 -14 13l-21 59l-31 -57q-6 -10 -15 -10q-12 0 -12 16q0 4 3 10l43 54l-70 6q-9 0 -12.5 5.5t-3.5 8.5q0 14 17 14l66 -16l-32 59q-2 4 -2 9q0 11 12.5 12t16.5 -10
l23 -64l32 59q6 10 15 10q12 0 12 -16q0 -4 -3 -10z" />
    <glyph glyph-name="plus" unicode="+" horiz-adv-x="356" 
d="M140 288l-44 -125q-2 -7 -8 -7t-11.5 5.5t-5.5 12.5q25 81 36 113h-95q-23 0 -29 2t-6 8q0 20 15 21h126l36 103q11 31 18.5 31t13 -6t5.5 -13l-40 -114h126q6 0 6 -4q0 -21 -15 -22q-51 -3 -128 -5z" />
    <glyph glyph-name="comma" unicode="," horiz-adv-x="191" 
d="M63 -14l-7 31q0 9 6 15.5t15 6.5t16 -6.5t8 -20.5q-3 -27 -16 -48t-29 -32q-35 -21 -62 -26l-11 -2q-5 0 -5 6q0 2 21.5 9.5t42.5 24.5t21 42z" />
    <glyph glyph-name="hyphen" unicode="-" horiz-adv-x="435" 
d="M357 103q0 -15 -23 -26t-49.5 -11t-72.5 18.5t-64.5 18.5t-38.5 -9.5t-25 -9.5l-2 1q0 4 10.5 13.5t31 18.5t43.5 9t72 -20.5t64.5 -20.5t26.5 5.5t17 10.5t8 5t2 -3z" />
    <glyph glyph-name="period" unicode="." horiz-adv-x="217" 
d="M85.5 -6q-9.5 -10 -21 -10t-17 5t-6 17t10.5 20t21 8q22 0 22 -19q0 -11 -9.5 -21z" />
    <glyph glyph-name="slash" unicode="/" horiz-adv-x="312" 
d="M234.5 281.5l211.5 372.5t19.5 16t10.5 -4.5t-422 -754.5q-4 -8 -12.5 -16.5t-13.5 -8.5q-9 0 -9 10q0 6 6.5 17.5z" />
    <glyph glyph-name="zero" unicode="0" horiz-adv-x="561" 
d="M242.5 27q-84.5 -50 -162 -50t-112 43.5t-34.5 103.5t20.5 129t61.5 143t96 136.5t132.5 103t161.5 40.5q144 0 144 -164q0 -88 -44 -185t-111.5 -173.5t-152 -126.5zM514 537q0 39 -15 66t-37 37q-37 16 -61 16q-57 0 -113 -28t-101.5 -74t-85 -104t-66.5 -118
q-57 -128 -57 -216q0 -89 50 -110q24 -9 60 -9q87 0 189 91.5t169.5 219.5t67.5 229z" />
    <glyph glyph-name="one" unicode="1" horiz-adv-x="327" 
d="M434 663q-96 -118 -201.5 -282.5t-162.5 -269.5l-58 -105q-11 -19 -31 -19t-20 11l3 10q42 88 135.5 236l166.5 254l73 107q0 3 -5 3l-6 -1q-48 -37 -118 -77.5t-116 -63.5l-46 -22q-11 -4 -18 -4t-7 6q3 13 12 22.5t26.5 16t52.5 21.5t126 65t160 104q7 9 23.5 9
t16.5 -7t-6 -14z" />
    <glyph glyph-name="two" unicode="2" horiz-adv-x="524" 
d="M372 524q0 -30 -74.5 -66t-142.5 -36t-68 47q0 41 51 87.5t132.5 78.5t160.5 32q46 0 75.5 -19t29.5 -55t-17 -68.5t-40 -58t-66 -59.5t-73.5 -54.5l-86.5 -57l-74 -49l-32 -23l-52.5 -40t-68.5 -55.5q-81 -68 -98 -107q-2 -5 -2 -9q0 -7 7 -7q1 0 21.5 4.5t53 10.5
t70.5 12q93 15 148 15t89.5 -11.5t34.5 -29.5t-11 -18l-18 5q-54 18 -137 18q-148 0 -252 -25l-36 -8q-9 -3 -15 -3q-16 0 -16 16q0 29 79 99q61 55 115 94l100 71l10 7q88 57 152.5 108.5t84.5 73.5l20 23q62 66 62 115q0 64 -86.5 64t-178 -58.5t-91.5 -109.5
q0 -33 44.5 -33t93.5 21t85 60q7 6 12 6t5 -8z" />
    <glyph glyph-name="three" unicode="3" 
d="M168 358l-18 -1q-7 0 -7 5q0 8 11 21l10 5q151 33 240 104q21 17 28 27l8 10q24 32 24 56q0 63 -117 63q-83 0 -156.5 -42t-73.5 -85q0 -28 45 -28q72 0 124 40q3 3 7.5 3t4.5 -5q0 -24 -55 -45t-90.5 -21t-52 9.5t-19 17.5t-2.5 15q0 55 91.5 108t200.5 53q44 0 76 -10
q62 -21 62 -67q0 -22 -9.5 -37.5t-27.5 -36t-43 -39.5t-73.5 -43.5t-108.5 -43.5q-11 -4 -11 -7t8.5 -3.5t19.5 -2t39 -9.5t50 -21t39.5 -39.5t17.5 -60.5q0 -82 -62 -150.5t-146 -103t-147.5 -34.5t-96.5 13t-46 33q-21 32 -21 59q3 37 22 66t42 44t49 25q39 15 57.5 15
t18.5 -8q0 -4 -12 -8q-39 -8 -68 -24t-42 -34q-27 -38 -28 -63l-1 -11q0 -29 14 -48.5t37 -27.5q36 -13 82 -13t96.5 19.5t86.5 50.5t63 68q54 72 54 133q0 34 -19 58t-50 34q-53 17 -110 17h-15z" />
    <glyph glyph-name="four" unicode="4" horiz-adv-x="563" 
d="M159 -48q-9 -17 -32 -17t-23 14l6 19q21 43 119 190h-13l-286 -10q-29 0 -29 18l6 20q147 158 368 308q260 174 319 174q16 0 20 -13v-1q0 -19 -37 -66q-151 -199 -282 -403q101 5 190 15h5q16 0 16 -7q0 -4 -5 -7q-31 -23 -223 -28q-74 -115 -119 -206zM20 179
q130 0 227 4l251 366l46 65q5 8 5 10t-5 2l-13 -3q-32 -15 -113.5 -64t-145 -94t-144.5 -116t-144 -145q-7 -10 -7 -17.5t12 -7.5h31z" />
    <glyph glyph-name="five" unicode="5" horiz-adv-x="472" 
d="M-135 5.5q-5 14.5 -5 29.5t8 27q14 21 26.5 21t12.5 -10q0 -4 -6 -13t-6 -21q0 -89 112 -89q76 0 141 46q56 40 78 70l10 14q74 97 74 184q0 28 -8 53t-16 35l-8 11q-32 33 -80 33q-41 0 -76 -16l-11 -6q-24 -16 -45 -18q-11 3 -11 10l4 11q48 56 140 209l30 50q7 8 21 8
q89 -4 162.5 -4t110.5 4q19 0 19 -5q0 -11 -12 -17q-33 -15 -262 -21q-25 0 -33 -7q-70 -110 -117 -175q-2 -5 -2 -9q0 -7 6 -7q2 0 21.5 6.5t60.5 6.5q110 0 138 -97q9 -24 9 -63q0 -126 -117 -235q-7 -7 -31.5 -25t-50 -31.5t-64.5 -24.5t-81.5 -11t-75.5 12t-47 31
t-19 33.5z" />
    <glyph glyph-name="six" unicode="6" horiz-adv-x="539" 
d="M339 375q93 0 93 -85q0 -66 -49 -142t-132 -131t-169 -55q-52 0 -72 32q-14 24 -14 49t10 49t24 41q26 33 51 49l10 7q10 6 19 6t9 -6q0 -5 -7 -10q-89 -57 -89 -135q0 -33 20 -48t45 -15q51 0 108.5 37t100 88t71 104.5t28.5 85.5q0 59 -66 59q-51 0 -110.5 -29
t-105 -68t-76.5 -71t-38 -44q-13 -23 -18.5 -25.5t-9.5 -2.5q-17 0 -22 30q0 24 24 74t48 89l24 38q68 111 205 222q65 52 139.5 86.5t137.5 34.5l13 -1q24 -2 24 -11.5t-17 -9.5l-24 1q-98 -1 -235 -111t-220 -247q-32 -52 -51 -95q0 -10 2 -10t7.5 5.5t17.5 16.5
t48.5 39.5t72 50.5t84 40t89.5 18z" />
    <glyph glyph-name="seven" unicode="7" horiz-adv-x="433" 
d="M-100 -29q-10 0 -10 12q12 82 184 261q69 73 116 116l46 43q208 192 208 203.5t-71 11.5q-215 0 -251 -31l-24 -14q-10 0 -10 7l4 12q13 23 35 42.5t35 19.5q114 8 200 8t124.5 -1.5t38.5 -10.5q0 -14 -36 -47l-268 -241q-99 -94 -178 -196t-100 -175q-5 -12 -12 -16
t-31 -4z" />
    <glyph glyph-name="eight" unicode="8" horiz-adv-x="530" 
d="M378 286q29 -35 29 -96t-51 -116.5t-125 -84.5t-158.5 -29t-127 42.5t-42.5 88t24 85t47.5 63.5t80.5 57t75 42q68 34 89 41l12 5l-18 17q-72 58 -72 110q0 63 78.5 115.5t192.5 52.5q42 0 73 -11q60 -21 60 -74q0 -23 -17 -47t-37 -41t-58 -40q-52 -31 -117 -62l-32 -15
q81 -84 94 -103zM272.5 34q39.5 29 64.5 70.5t25 75t-12 62t-29 50.5q-34 44 -64 69l-12 10q-295 -140 -295 -279q0 -35 22 -70q30 -44 124 -44q33 0 85 13.5t91.5 42.5zM238 434l32 -32q134 63 182.5 106.5t48.5 89.5q0 60 -96 60q-43 0 -91.5 -13.5t-88 -45.5t-39.5 -75
t52 -90z" />
    <glyph glyph-name="nine" unicode="9" 
d="M444 413q-31 -81 -88 -168.5t-99 -134.5l-42 -47q-117 -122 -223 -145q-21 -5 -38 -5l-12 1q-34 4 -34 22l3 12q2 2 5 2l14 -5q17 -7 45 -7t69.5 20.5t65.5 41.5l23 20q61 58 126 153t99 161l34 67q3 6 3 9t-3 3l-10 -5q-104 -96 -179 -132t-108 -36t-49.5 10t-23.5 26
q-13 30 -13 54q0 69 58.5 151.5t150 141t174.5 58.5t83 -62q0 -57 -63.5 -121t-127.5 -87q-9 -4 -15.5 -4t-6.5 6q0 7 13 14q69 26 116 87.5t47 101.5q0 47 -51 47q-64 0 -145.5 -62t-138 -145.5t-56.5 -142.5q0 -49 48 -49q42 0 122.5 43.5t177.5 137.5q17 22 32 22
q3 0 5 -1q17 -5 17 -22.5t-5 -30.5z" />
    <glyph glyph-name="colon" unicode=":" horiz-adv-x="217" 
d="M154.5 182q-9.5 -10 -21 -10t-17 5t-6 17t10.5 20t21 8q22 0 22 -19q0 -11 -9.5 -21zM84.5 -6q-9.5 -10 -21 -10t-17 5t-6 17t10.5 20t21 8q22 0 22 -19q0 -11 -9.5 -21z" />
    <glyph glyph-name="semicolon" unicode=";" horiz-adv-x="191" 
d="M63 -14l-7 31q0 9 6 15.5t15 6.5t16 -6.5t8 -20.5q-3 -27 -16 -48t-29 -32q-35 -21 -62 -26l-11 -2q-5 0 -5 6q0 2 21.5 9.5t42.5 24.5t21 42zM134.5 172q-9.5 -10 -21 -10t-17 5t-6 17t10.5 20t21 8q22 0 22 -19q0 -11 -9.5 -21z" />
    <glyph glyph-name="less" unicode="&#x3c;" horiz-adv-x="376" 
d="M26 306l287 138v-14q0 -16 -17 -24l-245 -119l145 -131q15 -15 15 -20q0 -12 -13 -16l-179 156q-6 6 -6 13t13 17z" />
    <glyph glyph-name="equal" unicode="=" horiz-adv-x="402" 
d="M-8 266l282 2q9 0 9 -5q0 -21 -15 -22q-120 -6 -199.5 -6t-85.5 2t-6 8q0 20 15 21zM38 342l282 2q9 0 9 -5q0 -21 -15 -22q-120 -6 -199.5 -6t-85.5 2t-6 8q0 20 15 21z" />
    <glyph glyph-name="greater" unicode="&#x3e;" horiz-adv-x="376" 
d="M302 258l-287 -138v14q0 16 17 24l245 119l-145 131q-15 15 -15 20q0 12 13 16l179 -156q6 -6 6 -13t-13 -17z" />
    <glyph glyph-name="question" unicode="?" horiz-adv-x="327" 
d="M150 174q-4 -11 -14 -13q-10 7 -10 25q0 60 126 156l106 78.5t90 83t37 80.5q0 23 -16 38t-41 20q-41 8 -65 8q-99 0 -175 -52t-76 -97q0 -41 63.5 -41t129.5 40q7 5 12 5t5 -5q0 -19 -65.5 -43t-117.5 -24q-72 0 -72 49q0 68 100.5 129t214.5 61q32 0 72 -11
q79 -21 79 -80t-115 -144l-102 -76t-99.5 -88.5t-66.5 -98.5zM105.5 5q-9.5 -10 -21 -10t-17 5t-6 17t10.5 20t21 8q22 0 22 -19q0 -11 -9.5 -21z" />
    <glyph glyph-name="at" unicode="@" horiz-adv-x="521" 
d="M428.5 16q-57.5 -78 -130.5 -78q-45 0 -45 50q0 28 12 58l-6 -2q-60 -50 -99 -50q-32 0 -32 36q0 55 71.5 115.5t127.5 60.5q15 0 23 -6q11 -9 11 -20q0 -22 -19 -38q-24 -20 -35 -20t-11 4l2 4q28 26 28 44q0 13 -18 13q-43 0 -91.5 -58.5t-48.5 -86.5q0 -17 18.5 -17
t44 18t41.5 36l17 18q4 5 10.5 5t10.5 -6.5t4 -11.5l-1 -6q-26 -47 -26 -82.5t31 -35.5q46 0 93 63t47 132q0 33 -13 57.5t-32 35.5q-40 23 -69 24l-13 1q-125 0 -213.5 -88.5t-88.5 -188.5q0 -32 18 -63.5t60 -31.5q16 0 30 5q31 7 56 42q5 5 9 5l3 -4q0 -19 -34.5 -45.5
t-77.5 -26.5q-34 0 -61 23q-35 29 -35 92.5t44 133t123.5 118.5t168.5 49q71 0 115 -37q38 -33 38 -97.5t-57.5 -142.5z" />
    <glyph glyph-name="A" unicode="A" horiz-adv-x="515" 
d="M-41 -68q-23 0 -31 15q-3 5 -3 8t2 5q91 67 216 210q-62 34 -96 81.5t-34 88t25 63.5t73 23q91 0 155 -105l89.5 114l89.5 113.5l69 81.5q76 84 115 84q30 -1 30 -32q0 -33 -22.5 -90.5l-36 -91t-40 -89l-41.5 -88l-46 -96l-43 -88.5q77 5 122 27q8 4 10 9t5.5 5t7 -4
t3.5 -8q0 -34 -156 -47q-39 -81 -54 -117q-4 -8 -12 -8q-21 0 -21 40q-4 31 -14 85q-79 6 -148 35v-1q-43 -53 -96.5 -108.5t-85.5 -84.5zM393 138q229 476 229 531q0 17 -12 17q-18 0 -50.5 -36l-52.5 -60l-53 -66.5l-54.5 -70.5l-60.5 -80.5l-58 -77.5q31 -58 56 -153
q24 -4 56 -4zM255 306q-59 102 -140 102q-36 0 -54 -15t-18 -44.5t33.5 -73t90.5 -76.5zM269 279l-74 -96q59 -28 120 -38q-21 84 -46 134zM384 119h-42l12 -63z" />
    <glyph glyph-name="B" unicode="B" horiz-adv-x="731" 
d="M711 84q0 -39 -53 -52q-3 0 -3 4t7 9q20 15 20 33q0 35 -56 51q-74 -91 -205.5 -151t-233.5 -60t-102 42q0 35 69.5 83.5t179 85t206.5 36.5q48 0 82 -7q31 55 31 115q0 35 -31 58.5t-83 23.5t-99 -21q-10 -7 -16 -7q-11 0 -11 5.5t15 13.5q22 7 84.5 54t122 114.5
t59.5 113.5q0 75 -162 75q-114 0 -242.5 -46.5t-216.5 -121t-88 -145.5q0 -38 47 -38q67 0 132 33.5t170 121.5q13 15 18 15q11 0 11 -7q0 -2 -7 -14q-26 -26 -73 -63t-87 -62t-90.5 -45t-91.5 -20q-71 0 -71 63q0 82 107 168.5t251.5 140t258.5 53.5q181 0 181 -89
q0 -65 -86.5 -153.5t-155.5 -121.5q31 6 58 6q63 0 97 -24t34 -65q0 -70 -45 -137q68 -20 68 -68zM529 141q-76 0 -172 -32t-160.5 -73t-64.5 -66.5t61.5 -25.5t135 19.5t154 65t123.5 105.5q-38 7 -77 7zM540 639q0 -3 -116.5 -204l-171.5 -293q-6 -13 -22 -20t-24.5 -7
t-8.5 4.5t74 129l147.5 247.5t71.5 124q6 10 20 15l25 8z" />
    <glyph glyph-name="C" unicode="C" horiz-adv-x="459" 
d="M449 108q8 0 8 -12q0 -15 -46.5 -46t-120 -57.5t-134.5 -26.5q-156 0 -156 173q0 88 39.5 177t102 158.5t136 124.5t146 84.5t127.5 29.5q114 0 114 -88q0 -66 -61 -157t-149 -158t-158 -67q-54 0 -54 51q0 65 84.5 160.5t144.5 95.5q8 0 8 -6l-5 -13q-36 0 -85 -41
t-83 -95t-34 -90q0 -40 41 -40q51 0 125.5 62t129 146.5t54.5 142.5q0 73 -92 73q-48 0 -113 -27.5t-131 -79.5t-122.5 -117t-92 -148.5t-35.5 -166.5q0 -158 140 -158q73 0 158 39.5t114 76.5z" />
    <glyph glyph-name="D" unicode="D" horiz-adv-x="584" 
d="M558 84q0 -39 -53 -52q-3 0 -3 4t7 9q20 15 20 33q0 35 -58 52q-97 -88 -203 -140.5t-199 -52.5q-71 0 -71 49.5t64 92t153 64.5t154 22t97 -7q98 95 160 198.5t62 182t-58.5 121.5t-176.5 43t-244.5 -42.5t-214.5 -111.5t-88 -136q0 -38 47 -38q67 0 132 33.5t170 121.5
q13 15 19 15q10 0 10 -7q0 -2 -7 -14q-26 -26 -73 -63t-87 -62t-90.5 -45t-91.5 -20q-71 0 -71 63q0 71 101.5 152t247.5 134.5t271 53.5t185 -47t60 -131t-65.5 -196t-169.5 -212q64 -20 64 -67zM442 136q-33 5 -86.5 5t-127.5 -17t-127.5 -53t-53.5 -81q0 -33 43 -33
q76 0 169.5 49t182.5 130zM442 646q0 -5 -118 -213l-153 -267q-6 -13 -22 -20t-24.5 -7t-8.5 4.5t70 124.5q209 358 206 359q6 10 20 15l25 8z" />
    <glyph glyph-name="E" unicode="E" horiz-adv-x="400" 
d="M378 495q-27 0 -27 16q0 25 58.5 72.5t129.5 75.5q1 2 1 7q0 45 -62 45t-152.5 -53.5t-158.5 -126t-68 -122.5q0 -63 116 -63q68 0 117 32q3 4 7 4q7 0 7 -10.5t-7 -13.5q-125 -57 -207 -130q-35 -31 -63.5 -77.5t-28.5 -86t20.5 -65t76.5 -25.5q19 1 43 6t81 34t109 77
q8 10 13 10q6 -1 6 -8q0 -17 -47 -52t-117.5 -65t-123.5 -30q-76 0 -104 52q-11 21 -11 48q0 66 76.5 148.5t198.5 138.5q-47 -10 -87 -10q-126 0 -126 70q0 43 47 103.5t113.5 112.5t144 89.5t132.5 37.5q85 0 85 -58q0 -6 -1 -9q44 14 66 14t28 -1.5t6 -12.5t-8 -13
q-46 0 -100 -17q-22 -53 -77.5 -98.5t-105.5 -45.5zM384 523q0 -9 16 -9q30 0 71 36.5t59 77.5q-58 -24 -102 -56.5t-44 -48.5z" />
    <glyph glyph-name="F" unicode="F" horiz-adv-x="410" 
d="M527 662l-89 1h-10q-106 0 -208.5 -30t-172 -73.5t-112 -89.5t-42.5 -79q0 -45 68.5 -45t166 46.5t163.5 117.5q11 11 15 11q2 0 2 -3t-1 -5q-28 -66 -135.5 -135.5t-210.5 -69.5q-44 0 -66.5 18t-22.5 55.5t41.5 92t113.5 105.5t187.5 86t244.5 35q424 0 438 2t23.5 2
t9.5 -4t-10.5 -12.5t-36 -17t-57.5 -8.5h-299zM491 618q0 -2 -2 -6l-199 -386q82 2 118 2h38q65 -1 65 -7.5t-14.5 -17t-27.5 -10.5q-28 2 -133 2h-62l-98 -191q-6 -13 -22 -20t-24.5 -7t-8.5 5t109 212q-124 -4 -190 -12q-8 0 -8 4q0 5 19 22q16 10 195 16q197 373 195 375
q6 10 20 15l25 8z" />
    <glyph glyph-name="G" unicode="G" horiz-adv-x="495" 
d="M471 273q-87 -97 -174 -163q-43 -32 -99 -59t-101 -27q-103 0 -103 97q0 91 44 185.5t112.5 168.5t147.5 133.5t152.5 91.5t123.5 32q65 0 68 -57q35 15 53 15q12 -3 12 -11t-5 -15t-17 -7t-46 -12q-14 -80 -94 -151t-131 -71q-26 0 -26 24q0 46 73 110.5t155 105.5v1
q0 45 -53 45q-43 0 -109 -29.5t-137.5 -85t-134 -125t-103 -160t-40.5 -179.5q0 -77 73 -77q159 0 436 331q17 20 30 20t13 -2.5t-6 -14t-68.5 -111.5l-134.5 -215q-186 -300 -202 -324q-3 -6 -3 -10t9 -4l25 2q8 0 8 -3q0 -5 -29 -22t-41 -17t-12 15t10.5 44.5t93 159
l158 245t75.5 121t-3 5.5zM440 450q37 0 98 57t75 127q-69 -32 -128.5 -83t-59.5 -87q0 -14 15 -14z" />
    <glyph glyph-name="H" unicode="H" horiz-adv-x="468" 
d="M558 176q7 0 7 -7t-11 -12q-68 -34 -160 -37q-48 -92 -49 -94.5t-4.5 -10t-6.5 -11.5q-6 -10 -13 -10q-18 0 -18 25q0 53 -13 108q-55 8 -101 25l-135 -241l-21 -15q-12 -6 -19 -6q-9 0 -9 10q0 6 4 14l144 253q-73 33 -117 84.5t-44 114.5q0 83 60 83q39 0 89.5 -38
t93.5 -101l195 344q11 16 39 16q7 0 7 -4.5t-219 -393.5q35 -63 51 -131q29 -4 68 -4q113 220 307 567q11 20 41 22q8 0 8 -5.5t-7 -17.5l-61 -107l-260 -459q84 5 154 39zM163 184l57 100q-38 57 -83 92t-76 35q-34 0 -34 -41q0 -59 36.5 -107t99.5 -79zM199 169
q40 -16 86 -24q-17 55 -42 102q-43 -76 -44 -78zM311 124q9 -44 9 -88l1 -11q7 16 46 95q-18 0 -56 4z" />
    <glyph glyph-name="I" unicode="I" horiz-adv-x="574" 
d="M-119 1q0 52 79.5 105t196 85.5t224.5 32.5q27 0 59 -3q220 206 220 425q0 59 -39 59q-24 0 -55 -24.5t-59.5 -64.5t-48 -99t-19.5 -124.5t18 -76.5q5 -3 5 -7q-8 -17 -22.5 -17t-23 8.5t-8.5 24.5q0 88 25.5 171.5t62.5 139t78 89.5t73 34q54 0 54 -85q0 -245 -230 -457
q107 -19 107 -75q0 -20 -25.5 -41.5t-41 -22.5t-16.5 3q0 3 11 10q42 26 42 44q0 41 -113 50q-125 -106 -270 -173t-209 -67q-32 0 -50.5 14t-21.5 28zM374 188q-99 0 -203.5 -24t-177 -65t-73.5 -84q3 -37 56 -37q71 0 193 58t233 151q-10 1 -28 1z" />
    <glyph glyph-name="J" unicode="J" horiz-adv-x="525" 
d="M439 76q-53 0 -109 -16q-130 -203 -245.5 -342.5t-167.5 -139.5q-35 0 -35 38.5t34 102.5t89.5 131.5t136 130t163.5 93.5q103 176 177 332t74 201q0 59 -45.5 59t-123.5 -55t-151 -131t-126.5 -163t-53.5 -140t51 -53q54 0 121.5 64t78.5 109q2 7 9.5 7t7.5 -7
q0 -53 -93 -128.5t-158 -75.5q-52 0 -52 63.5t59.5 159.5t141 179t171 142t145.5 59q67 0 67 -87q0 -52 -74 -200t-183 -321q57 15 89.5 15t50 -9.5t17.5 -24.5q0 -32 -20.5 -59t-47.5 -27q-4 0 -4 3q0 10 14 17q19 17 19 45t-27 28zM-77 -354q0 -23 18 -23q48 0 141.5 119
t204.5 302q-97 -39 -185 -122.5t-133.5 -159.5t-45.5 -116z" />
    <glyph glyph-name="K" unicode="K" horiz-adv-x="527" 
d="M469 694q-5 -14 -184 -343q38 -4 73 -18q130 81 241.5 184.5t161.5 203.5q1 10 9.5 10t19 -5t10.5 -12q-39 -96 -156 -201.5t-262 -191.5q108 -58 108 -205q0 -43 -11 -79t-21 -50l-11 -14q-8 0 -8 10l6 19q14 43 14 82q0 152 -114 216q-55 -30 -120 -60l-125 -222
q-7 -17 -18.5 -22t-23.5 -5t-12 4l121 222q-66 -24 -110 -24q-57 0 -57 44t75.5 80.5t166.5 36.5l177 325q3 8 18.5 13.5t23.5 5.5t8 -4zM212 332q-70 0 -123 -26t-53 -62q0 -31 39.5 -31t103.5 26l50 92q-6 1 -17 1zM272 326l-33 -61q31 15 83 46q-24 10 -50 15z" />
    <glyph glyph-name="L" unicode="L" 
d="M880 628l-36 2h-12q-17 -52 -74.5 -96.5t-117.5 -44.5q-33 0 -33 26q0 37 61 84.5t146 55.5v4q0 51 -87 51q-134 0 -239 -158q-49 -75 -92 -154q-134 -251 -208 -347q33 0 51 -1l164 -5q61 0 71.5 -1.5t10.5 -5.5q0 -29 -48 -32q-132 4 -281 6q-165 -189 -387 -189
q-34 0 -54.5 16.5t-20.5 42.5t24.5 53t74 53t140.5 43.5t210 19.5q79 107 175 291q35 69 83 143t93.5 124.5t109 83t135.5 32.5q99 0 99 -65v-3q26 0 45 -4q6 -2 6 -13.5t-9 -11.5zM-264 -74q-23 -21 -23 -40.5t19 -31.5t53 -12q184 0 327 170q-287 -3 -376 -86zM637 521
q0 -16 20 -16q36 0 84 40t66 83q-73 -9 -121.5 -44.5t-48.5 -62.5z" />
    <glyph glyph-name="M" unicode="M" horiz-adv-x="617" 
d="M464 25q0 -10 16.5 -10t58.5 19.5t74 39.5l32 20q1 -2 1 -8t-9 -10q-135 -92 -188 -92q-26 0 -26 26t43 99l176 306q0 3 -3.5 3t-13.5 -9.5t-182.5 -185.5l-202.5 -207q-17 -20 -30 -20q-11 0 -11 13q0 30 131.5 229.5t136.5 223.5q0 3 -2.5 3t-17 -14.5l-207.5 -215.5
t-224 -236q-8 -6 -17.5 -6t-9.5 9q0 7 9 22l25.5 43t59 106t75 147t59 148t26.5 129q0 83 -72 83q-83 0 -175.5 -47.5t-150.5 -109.5t-58 -107q0 -52 84.5 -52t161 52.5t108.5 112.5q5 6 8 6t3 -13.5t-22 -46.5t-57.5 -66.5t-90 -57.5t-111.5 -24q-114 0 -114 75
q0 41 36 91.5t94 95.5t140.5 75.5t164.5 30.5q93 0 93 -97q0 -50 -24.5 -124t-58.5 -144q-69 -137 -130 -232l-24 -39q4 2 98 100l338 349q19 0 23 -5t4 -7v-1q0 -27 -181 -311q-70 -109 -76 -119l-9 -20q8 0 103 100.5l192.5 201t111.5 100.5q6 0 13 -5.5t7 -11.5t-3 -12
l-179 -324q-26 -48 -26 -69z" />
    <glyph glyph-name="N" unicode="N" horiz-adv-x="521" 
d="M368 25q0 -10 16.5 -10t58.5 19.5t74 39.5l32 20q1 -2 1 -8t-9 -10q-135 -92 -188 -92q-26 0 -26 25t61.5 150t123.5 239l61 113l-13 -14q-14 -14 -422 -473q-14 -6 -23.5 -6t-9.5 9t9 23t25.5 42t59 106t75 147t59 148t26.5 129q0 83 -72 83q-84 0 -177.5 -47
t-152.5 -108.5t-59 -106.5q0 -54 87 -54t163.5 52.5t108.5 112.5q5 6 8 6t3 -12.5t-24 -45t-61 -66.5t-91 -59t-105 -25q-127 0 -127 74q0 40 39.5 91t101 96t145 76t162.5 31q93 0 93 -97q0 -79 -59.5 -214t-118.5 -230l-59 -95q4 2 94 104q285 323 322 360q7 0 18.5 -5.5
t11.5 -11.5t-3 -12q-239 -465 -239 -494z" />
    <glyph glyph-name="O" unicode="O" horiz-adv-x="434" 
d="M418 704q5 0 7 -6q0 -8 -12 -10q-56 -19 -119.5 -69t-120 -120.5t-94 -166.5t-37.5 -194q0 -133 94 -133q55 0 128.5 48.5t138 122t109.5 172.5t45 190.5t-63 91.5q-51 0 -120 -54.5t-120.5 -138t-51.5 -157t51 -73.5q32 0 72.5 30.5t72.5 81.5q4 8 9.5 8t5.5 -6
q0 -28 -69.5 -88t-119.5 -60q-59 0 -59 95q0 74 62 168.5t146 159.5t145 65q80 0 80 -119q0 -90 -52 -193.5t-126.5 -184t-159.5 -134.5t-149 -54q-111 0 -111 158q0 96 38 189.5t92.5 159.5t115 118t107 77.5t65.5 25.5z" />
    <glyph glyph-name="P" unicode="P" horiz-adv-x="263" 
d="M436 615q0 -2 -7 -17.5t-186 -334.5q148 61 264 167.5t116 185.5q0 95 -178 95q-104 0 -235 -48t-225 -122t-94 -140q0 -56 70 -56q59 0 139.5 41.5t144.5 110.5q8 13 14.5 13t6.5 -7q0 -23 -59 -70.5t-142 -87t-139 -39.5q-77 0 -77 79q0 69 108.5 155t259.5 145.5
t265 59.5q190 0 190 -105q0 -91 -134.5 -214t-309.5 -190l-133 -235q-6 -13 -22 -20t-24.5 -7t-8.5 5l133 238q-63 -19 -117 -25q-6 0 -6 12.5t11 13.5q59 3 127 25l200 357q3 8 18 13.5t25 5.5z" />
    <glyph glyph-name="Q" unicode="Q" horiz-adv-x="470" 
d="M402 681q16 -1 16 -4.5t-10 -7.5q-150 -68 -258.5 -219t-108.5 -271q0 -61 34 -96.5t98 -35.5t139 44q-4 35 -4 88v18q-38 -19 -70 -19q-88 0 -88 75q0 52 43.5 127.5t107.5 143.5t145 116t149 48q82 0 82 -87q0 -99 -97.5 -253.5t-224.5 -248.5q15 -118 15 -162.5
t-20.5 -99t-39.5 -55.5q-5 0 -5 7t6 14q27 19 27 94q0 39 -10.5 94.5t-13.5 80.5q-90 -56 -166 -56t-112 38t-36 103q0 132 120.5 296.5t281.5 227.5zM646 579q0 81 -77 81t-168.5 -71.5t-152.5 -164.5t-61 -156t72 -63q22 0 51 12q9 86 49 149t94 63q30 0 30 -30.5t-43 -87
t-99 -95.5q3 -41 11 -98q114 85 204 227t90 234zM416 312.5q32 47.5 32 68.5t-13 21q-29 -1 -61.5 -57.5t-32.5 -101.5v-8q43 30 75 77.5z" />
    <glyph glyph-name="R" unicode="R" horiz-adv-x="564" 
d="M435 623q0 -2 -1.5 -4.5t-29.5 -56.5l-163 -303q148 55 265 164.5t117 192.5q0 45 -44 74t-133 29t-191.5 -37.5t-180.5 -89.5t-130.5 -107t-52.5 -90q0 -39 62.5 -39t143 41.5t144.5 110.5q11 13 14 13q7 0 7 -7q0 -2 -7 -14q-33 -50 -146.5 -117.5t-188 -67.5t-74.5 47
q0 42 59.5 108.5t148.5 129.5t207 108t217.5 45t146.5 -31.5t47 -81.5q0 -87 -110.5 -198t-266.5 -178q101 -1 168 -87.5t68 -200.5q0 -14 -5 -14q-8 0 -11 17.5t-7 34.5t-24.5 60t-48 76t-79.5 60t-117 27h-11l-121 -217q-6 -13 -22 -20t-24.5 -7t-8.5 5l123 224
q-40 -10 -82 -15q-18 0 -18 6q0 11 11 12q46 3 100 17l201 366q3 8 18 13.5t25 5.5z" />
    <glyph glyph-name="S" unicode="S" horiz-adv-x="455" 
d="M466 470q-39 0 -39 34q0 52 58 98t138 75q-7 29 -36 44.5t-71.5 15.5t-88 -16t-86 -45.5t-66 -78t-25.5 -106.5q0 -20 30 -117t30 -161q0 -16 -4 -46q38 4 55 4q97 0 97 -51q0 -18 -11 -30t-37 -28q-8 5 -8 9t4 7q30 17 30 34q0 34 -79 34q-29 0 -56 -4
q-17 -64 -63.5 -119.5t-103.5 -90t-114.5 -53.5t-101.5 -19q-68 0 -68 40q0 56 70 113t166.5 95.5t189.5 54.5q4 28 4 45q0 43 -31.5 134.5t-31.5 157.5t52 131.5t123.5 100.5t135.5 35q101 0 111 -85q56 18 76 18t21.5 -1.5t1.5 -11.5t-9 -13q-45 -2 -89 -13
q-2 -81 -61 -136t-113 -55zM-111 -75q0 -29 58 -29q81 0 181 58q49 28 88.5 76.5t54.5 107.5q-85 -14 -170.5 -45t-148.5 -76.5t-63 -91.5zM459 510q0 -19 20 -19q38 0 91.5 51.5t54.5 113.5q-70 -22 -118 -61t-48 -85z" />
    <glyph glyph-name="T" unicode="T" horiz-adv-x="265" 
d="M470 688q320 0 334 2t23.5 2t9.5 -4t-10.5 -12.5t-36 -17t-57.5 -8.5l-295 1q-129 -2 -246.5 -35t-192.5 -79t-119 -94t-44 -82q0 -41 61 -41t158.5 52.5t165.5 125.5q11 11 15 11q2 0 2 -3t-1 -5q-29 -68 -137 -143.5t-207 -75.5t-99 57q0 43 56 102t145 114.5t217.5 94
t257.5 38.5zM425 615q0 -3 -70 -133l-262 -490q-6 -13 -22 -20t-24.5 -7t-8.5 4.5t85 160.5l169.5 310.5t82.5 155.5q6 10 20 15l25 8z" />
    <glyph glyph-name="U" unicode="U" 
d="M362 15q20 0 62 19.5t74 39.5l32 20q1 -2 1 -8t-9 -10q-135 -92 -188 -92q-35 0 -35 44q0 79 101 226q-38 -46 -107 -113q-138 -134 -200 -134q-24 0 -37 16.5t-13 36.5q0 43 41.5 121.5t92 151t92 148.5t41.5 116t-32 62t-87 22t-129 -29.5t-129.5 -72t-92.5 -88.5
t-37 -79q0 -47 76 -47t157 57t142 141q5 8 10 8h1q5 -3 5 -8q0 -24 -52 -81t-132 -108t-142 -51q-95 0 -95 65q0 40 37.5 93t96.5 100.5t141 80.5t151.5 33t111.5 -25.5t42 -86.5q0 -62 -132 -255q-49 -71 -90 -147t-41 -111.5t26 -35.5q23 0 64 29.5t84 70.5q86 85 144 156
l25 29l89 122q7 11 20 11l17 -1q6 0 6 -4t-109.5 -174.5t-109.5 -233.5q0 -11 4 -17t12 -7z" />
    <glyph glyph-name="V" unicode="V" horiz-adv-x="467" 
d="M309.5 477q42.5 79 42.5 119.5t-32 62.5t-87 22t-129 -29.5t-129.5 -72t-92.5 -88.5t-37 -79q0 -47 76 -47t157 57t142 141q5 8 10.5 8t5.5 -8q0 -24 -52 -81t-132 -108t-142 -51q-95 0 -95 65q0 40 37.5 93t96.5 100.5t141 80.5t151.5 33t111.5 -25.5t42 -86.5
q0 -44 -66 -152.5l-131.5 -215.5t-65.5 -150.5t37 -43.5q51 0 134 69t155 156t125.5 164t53.5 94q0 2 -4 2.5t-13 -7t-19.5 -18t-14.5 -14t-11 -3.5q-18 0 -18 13q0 8 19 24t49.5 51l48.5 56t23.5 21t9 -3t3.5 -10.5t-19 -50.5q-63 -143 -181 -293q-88 -111 -192.5 -194
t-181.5 -83q-33 0 -44.5 15t-11.5 50.5t42.5 112t93.5 151t93.5 153.5z" />
    <glyph glyph-name="W" unicode="W" horiz-adv-x="621" 
d="M204 678q-66 0 -138 -29t-125.5 -69.5t-88.5 -86t-35 -78.5q0 -60 55 -60q67 0 169 70t132 118q5 8 10.5 8t5.5 -8q-9 -38 -66.5 -91.5t-134 -94t-131.5 -40.5q-71 0 -71 74q0 40 36 92t93 98.5t136.5 78.5t157.5 32q151 0 151 -93q0 -48 -40.5 -127t-89 -149t-89 -143
t-40.5 -109t31 -36q68 0 155 56q10 64 66 153.5t116.5 152t89.5 63t29 -28.5q0 -52 -83.5 -157.5t-187.5 -180.5v-7q0 -68 75 -68q62 0 178 110q56 53 122.5 144.5t125.5 203.5q-54 -36 -60 -36q-11 0 -11 11.5t4 14.5t19 13q44 29 58 46l32 39q3 8 9 8q13 -2 13 -10
q0 -4 -1 -6l-49 -95q-32 -66 -101 -162t-123 -156.5t-118.5 -104t-117.5 -43.5q-87 0 -87 73v3q-97 -60 -165 -60t-68 54q0 43 42.5 120t93.5 147.5t93.5 148.5t42.5 122q0 75 -120 75zM559 414q0 18 -20.5 18t-69 -53t-94 -130t-55.5 -135q92 69 165.5 163.5t73.5 136.5z
" />
    <glyph glyph-name="X" unicode="X" horiz-adv-x="473" 
d="M334 15q20 0 62 19.5t74 39.5l32 20q1 -2 1 -8t-9 -10q-135 -92 -188 -92q-100 0 -100 132q0 71 30 165q-358 -278 -410 -309q-10 -10 -17 -10t-7 7.5t12 14.5q87 54 232 172l101 83l101 82q6 21 19.5 64l21 67.5l16.5 55.5q17 59 17 86q0 57 -27.5 83t-91.5 26
t-134.5 -29.5t-121 -72t-82.5 -88t-32 -78.5q0 -46 60 -46q147 0 284 184q5 10 9.5 10t4.5 -12t-29.5 -49t-72.5 -77t-101 -70t-107 -30q-86 0 -86 65q0 41 36 94t94 101t141.5 81.5t168.5 33.5q36 0 62.5 -10.5t38.5 -25.5q25 -27 27 -54l1 -10q0 -68 -56 -250
q173 141 229 183t74.5 57t44.5 33l48 33q54 34 77 34q6 0 11.5 -6t5.5 -12t-5 -9q-22 -6 -92.5 -50t-122.5 -84l-284 -223q-41 -123 -41 -202q0 -109 81 -109z" />
    <glyph glyph-name="Y" unicode="Y" horiz-adv-x="465" 
d="M359 620q0 -53 -26.5 -115t-64.5 -116.5l-76 -106.5q-91 -123 -91 -182q0 -18 10.5 -29.5t29.5 -11.5q95 0 332 259q35 37 53 66l6 8q7 11 14 11q24 -3 24 -15q0 -4 -3 -9l-46 -74l-84 -137l-122 -197q54 13 109 13t57 -31q0 -17 -14 -28q-23 -18 -36 -18t-13 3t8 7
t11.5 6.5l7.5 5.5q9 7 9 13q0 14 -50 14t-109 -16q-244 -382 -334 -382q-26 0 -26 32q0 71 97.5 191.5t233.5 173.5l100.5 173.5l79.5 137.5q-72 -81 -158 -150q-37 -31 -83.5 -56t-80.5 -25q-13 0 -24.5 3t-24 17.5t-12.5 49t26 89t63.5 106l75.5 102.5q89 120 89 192
q0 57 -27.5 83t-91.5 26t-134.5 -29.5t-121 -72t-82.5 -88t-32 -78.5q0 -46 60 -46q147 0 284 184q5 10 9.5 10t4.5 -12t-29.5 -49t-72.5 -77t-101 -70t-107 -30q-86 0 -86 65q0 41 36 94.5t94 102.5t141.5 82.5t168.5 33.5q36 0 62.5 -10.5t39.5 -25.5q23 -29 26 -57z
M-30 -376q0 -21 15 -21q69 0 262 320q-119 -48 -198 -146t-79 -153z" />
    <glyph glyph-name="Z" unicode="Z" horiz-adv-x="633" 
d="M631 -10q0 18 -58.5 18t-125.5 -25q-35 -95 -117.5 -196.5t-165.5 -164t-129 -62.5q-35 0 -35 42q0 66 132.5 194.5t282.5 196.5q12 48 12 86q0 71 -64 91q-156 -134 -255 -134q-55 0 -55 24t42.5 57.5t111 59t131.5 25.5q13 0 31 -2q101 94 172.5 208t71.5 194
q0 111 -147 111q-87 0 -183.5 -50.5t-157.5 -115t-61 -108.5q0 -58 53 -58q45 0 115 38t124 85.5t61 74.5q2 11 6.5 11t4.5 -8q0 -36 -58.5 -94.5t-138.5 -103.5t-134 -45q-67 0 -67 75q0 42 41 98t105 106.5t152.5 85.5t173.5 35q159 0 159 -116q0 -84 -78.5 -204.5
t-190.5 -223.5q76 -22 76 -106q0 -39 -12 -79q79 29 139 29t60 -34q0 -24 -19.5 -40.5t-32.5 -16.5t-13 5.5t7 7.5t20.5 11.5t13.5 17.5zM38 -384q0 -20 20 -20q35 0 103.5 50t141.5 140t104 181q-136 -60 -252.5 -176.5t-116.5 -174.5zM342 175q-16 3 -47 3t-82 -18.5
t-84.5 -42t-33.5 -39.5t39 -16q80 0 208 113z" />
    <glyph glyph-name="bracketleft" unicode="[" horiz-adv-x="408" 
d="M89 -118h222q15 0 15 -9t-30 -23h-239q-14 0 -14 12l329 866q9 20 17 20h241q16 0 16 -9t-31 -24h-217z" />
    <glyph glyph-name="backslash" unicode="\" horiz-adv-x="247" 
d="M32 695q2 -16 71.5 -422.5t71.5 -416.5q0 -22 -9 -22q-12 0 -21 33q-138 840 -138 848.5t5 8.5q12 0 20 -29z" />
    <glyph glyph-name="bracketright" unicode="]" horiz-adv-x="364" 
d="M483 716h-222q-15 0 -15 9t30 23h239q14 0 14 -12l-329 -866q-9 -20 -17 -20h-241q-16 0 -16 9t31 24h217z" />
    <glyph glyph-name="asciicircum" unicode="^" horiz-adv-x="340" 
d="M199 116q-112 -55 -121 -55t-9 4.5t67 44.5t75 40t24.5 -42t20.5 -51q-3 -6 -8 -6q-8 0 -39 49z" />
    <glyph glyph-name="underscore" unicode="_" horiz-adv-x="356" 
d="M37 -12l235 1q8 0 8 -4q0 -17 -13 -18q-100 -5 -213 -5q-29 0 -29 8q0 17 12 18z" />
    <glyph glyph-name="grave" unicode="`" horiz-adv-x="380" 
d="M267 236q-4 0 -16 6l-85 54q-6 6 -6 13q0 14 14 14q6 0 10 -4l79 -65q14 -14 4 -18z" />
    <glyph glyph-name="a" unicode="a" horiz-adv-x="303" 
d="M189 119q-6 0 -6 7l3 7q18 17 18 29q0 15 -16 15q-35 0 -94.5 -48.5t-59.5 -86.5q0 -16 21 -16t48.5 17.5t47 35t21.5 17.5q10 -1 10 -10q0 -4 -15.5 -26t-15.5 -35q0 -10 16.5 -10t58.5 19.5t74 39.5l32 20q1 -2 1 -8t-9 -10q-135 -92 -188 -92q-26 0 -26 26q0 11 4 23
q-7 -8 -41.5 -24.5t-61.5 -16.5t-27 25q0 59 82 120.5t138 61.5q33 0 33 -28q0 -16 -20 -34t-28 -18z" />
    <glyph glyph-name="b" unicode="b" horiz-adv-x="233" 
d="M266 156q3 3 8 3t5 -3.5t-7 -9.5q-45 -30 -115 -41q-6 -49 -40.5 -88t-75.5 -39q-34 0 -34 48q0 24 29 84q-55 18 -55 67q0 19 18 31.5t45.5 12.5t49.5 -8q81 131 175 236.5t145 105.5q19 0 19 -27q0 -48 -89.5 -154.5t-196.5 -205.5q11 -20 11 -45v-3q70 10 108 36z
M138 182q96 90 175 182.5t84 139.5q-1 22 -13 22q-27 0 -113.5 -105.5t-153.5 -219.5q10 -6 21 -19zM103 101q-22 0 -33 2q-4 -4 -6 -5q-19 -46 -19 -62q0 -25 18 -25q27 0 49 27.5t24 63.5q-11 -1 -33 -1zM81 191q-23 12 -43 12q-32 0 -32 -21q0 -40 39 -56q16 33 36 65z
M87 117q7 -1 23 -1t25 1q-2 18 -10 32q-20 -19 -38 -32zM116 162l-13 14q-1 -3 -11 -20.5t-14 -26.5q13 10 38 33z" />
    <glyph glyph-name="c" unicode="c" horiz-adv-x="226" 
d="M133 28q48 20 103 54l19 12q1 -2 1 -8t-9 -10q-53 -36 -106 -63t-98 -27q-57 0 -57 41q0 49 68.5 110.5t135.5 61.5q28 0 28 -24q0 -14 -25 -35q-35 -29 -44 -29t-9 8q0 3 4 6q10 6 22.5 18.5t12.5 21.5q0 14 -13 14q-28 0 -82 -50.5t-54 -81.5q0 -35 38 -35q25 0 55 12z
" />
    <glyph glyph-name="d" unicode="d" horiz-adv-x="275" 
d="M174 94q-7 -27 -7 -58t26 -31q7 0 23.5 7.5t19 7.5t2.5 -2q0 -12 -21 -25t-42 -13q-42 0 -42 56q0 13 1 20q-80 -70 -122.5 -70t-42.5 29q0 43 73.5 107.5t139.5 73.5q57 117 140.5 219t128.5 102q8 0 13 -8.5t5 -16.5q0 -33 -97.5 -166t-197.5 -232zM432 477q0 8 -6 8
q-17 0 -64.5 -56t-99.5 -142.5t-77 -158.5q93 98 170 203t77 146zM17 23q0 -15 17 -15q27 0 105 75q13 46 31 85q-49 -12 -101 -64t-52 -81z" />
    <glyph glyph-name="e" unicode="e" horiz-adv-x="228" 
d="M56 97q-60 0 -60 26q0 31 71 73.5t128 42.5q29 0 29 -18q0 -10 -15 -22t-29 -19t-16 -7q-6 0 -8 5q-2 7 10.5 14.5t12.5 16.5t-22.5 9t-70.5 -31.5t-48 -51.5q0 -15 35 -15q6 0 22 1t16 -4t-49.5 -36t-49.5 -53q0 -25 32.5 -25t73.5 17q66 29 120 62l19 12q1 -2 1 -8
t-9 -10q-53 -36 -116 -68.5t-113.5 -32.5t-50.5 33.5t87 88.5z" />
    <glyph glyph-name="f" unicode="f" horiz-adv-x="196" 
d="M-2 26q45 -1 63 -27q94 49 167 96q1 -3 1 -9t-9 -10q-35 -24 -72 -46l-80 -46q3 -10 3 -24q0 -53 -46.5 -131.5t-109 -136t-104.5 -57.5q-19 0 -19 30t105 233q-22 -8 -35 -8q-36 0 -36 21q0 25 43.5 61t92.5 49q112 203 217 348.5t160 145.5q22 0 22 -22
q0 -33 -24.5 -79t-60.5 -90.5t-80.5 -91.5t-80.5 -80.5l-64 -59t-29 -26.5l-13.5 -22.5t-10.5 -17.5zM-166 -317q0 -11 7 -11q28 0 76.5 51.5t87 120.5t38.5 114q0 8 -1 12q-56 -32 -107 -56q-101 -185 -101 -231zM325 468q0 12 -11 12q-19 -1 -97 -111.5t-171 -262.5
q62 55 135 135q144 156 144 227zM-133 -60q0 -14 26 -14q4 0 20 4l39 72q-33 -9 -59 -28.5t-26 -33.5zM-48 -54q25 10 85 41q-13 21 -47 21h-2l-19 -33t-17 -29z" />
    <glyph glyph-name="g" unicode="g" horiz-adv-x="254" 
d="M254 200q0 -20 -26 -43t-37.5 -23t-11.5 6l7 9q25 23 25 34q0 14 -15 14q-36 -1 -100 -64t-64 -93q0 -13 14.5 -13t40.5 13.5t45 27.5l20 14q3 2 11 12q22 27 29 27q16 -2 16 -14q-26 -38 -97 -157q21 3 41 3q48 0 48 -25q0 -14 -18.5 -35.5t-28.5 -21.5t-10 7
q0 4 11 12.5t11 20.5q0 16 -21 16t-49 -5l-69.5 -118.5t-63.5 -95.5q-72 -101 -127 -101q-34 0 -34 35q0 62 84.5 162t187.5 135l56 106q-12 -8 -41 -22q-56 -27 -78 -27q-27 0 -27 28t43 76t102 85.5t98 37.5q12 0 19 -5.5t9 -17.5zM-165 -343q0 -21 16 -21q51 0 206 275
q-91 -34 -156.5 -119t-65.5 -135z" />
    <glyph glyph-name="h" unicode="h" horiz-adv-x="314" 
d="M16 13q9 0 100.5 79.5t107.5 79.5t16 -14q0 -11 -20 -34t-39.5 -50t-19.5 -48q0 -11 16.5 -11t58.5 19.5t74 39.5l32 20q1 -2 1 -8t-9 -10q-135 -92 -188 -92q-26 0 -26 28q0 19 14 46t28 45l13 18q-45 -34 -93 -76.5l-73 -64t-35 -21.5t-10 14.5t47 100.5t108.5 185.5
t129 180.5t102.5 81q15 0 21 -14q3 -5 3 -12q0 -69 -207 -265q-39 -38 -76 -70q-76 -128 -76 -147zM342 484q0 10 -5 10q-20 0 -84 -88t-136 -205q225 205 225 283z" />
    <glyph glyph-name="i" unicode="i" horiz-adv-x="183" 
d="M179 305q15 0 15 -15t-14 -30.5t-31 -15.5q-14 0 -14 19.5t16 30.5t28 11zM85 173q5 8 14 8t18 -9q0 -4 -13 -18t-44 -62.5t-31 -64.5q0 -10 15 -12q20 0 62 19.5t74 39.5l32 20q1 -2 1 -8t-9 -10q-135 -92 -188 -92q-26 0 -26 26t28.5 72.5t66.5 90.5z" />
    <glyph glyph-name="j" unicode="j" horiz-adv-x="168" 
d="M3 64q-6 -2 -11 -2t-6 5q71 44 95 66t33 31l16 16q12 13 18 13q14 -2 14 -11q0 -4 -11 -22.5t-59.5 -108.5l-73.5 -134q20 3 38 3q48 0 48 -25q0 -14 -18.5 -35.5t-28.5 -21.5t-10 7q0 4 11 12.5t11 20.5q0 16 -20.5 16t-45.5 -5q-182 -327 -265 -327q-34 0 -34 35
q0 63 86 168.5t189 141.5q62 114 116 224q-9 -11 -92 -67zM-246 -409q51 0 209 286q-92 -35 -158.5 -124.5t-66.5 -140.5q0 -21 16 -21zM201 303q15 0 15 -15t-14 -30.5t-31 -15.5q-14 0 -14 19.5t16 30.5t28 11z" />
    <glyph glyph-name="k" unicode="k" horiz-adv-x="291" 
d="M238 46l82 48q1 -2 1 -8t-9 -10q-136 -91 -194 -91q-50 0 -50 66q0 27 9 49.5t29 22.5q69 0 107.5 21t38.5 43.5t-32 22.5q-72 0 -183 -130l-51 -98q-5 -9 -14 -9q-20 0 -20 14q0 6 4 14l89 156q85 150 174 270t134 120q15 0 21 -14q3 -5 3 -12q0 -36 -62 -113t-116 -130
l-110 -103l-28 -50q108 110 188 110q46 0 46 -30q0 -33 -51.5 -66t-128.5 -33q-11 -16 -11 -36q0 -56 44 -56q32 0 87 30q2 2 3 2zM344 510q0 10 -5 10q-55 0 -229 -306q88 81 161 165.5t73 130.5z" />
    <glyph glyph-name="l" unicode="l" horiz-adv-x="193" 
d="M27 -16q-45 0 -45 49q0 65 70.5 186.5t161 218t142.5 96.5q19 0 19 -27q0 -42 -70.5 -137t-151.5 -178t-125 -114q-2 -16 -2 -21.5t1 -12.5t8 -18t23.5 -11t58.5 19.5t74 39.5l32 20q1 -2 1 -8t-9 -10q-135 -92 -188 -92zM339 483q-1 22 -13 22q-31 0 -94 -70
t-122 -167.5t-77 -167.5q42 34 108 100t130 151t68 132z" />
    <glyph glyph-name="m" unicode="m" horiz-adv-x="488" 
d="M32 83l-25 -16q-4 -2 -7.5 -2t-3.5 4t3 7q8 4 50.5 36.5t55 32.5t12.5 -14.5t-30.5 -59.5t-30.5 -48.5t2 -3.5q9 0 104 79t103 79q15 0 15 -14q0 -9 -34.5 -61.5t-45.5 -71.5q1 -1 4.5 -1t40.5 26.5l77 56.5t47 34.5t13 4.5q12 -1 12 -14q0 -5 -34.5 -52.5t-34.5 -60.5
q0 -9 21.5 -9t63.5 19.5t74 39.5l32 20q1 -2 1 -8t-9 -10q-135 -92 -188 -92q-31 0 -31 24q0 23 13.5 44l23.5 35.5t10 15.5q-134 -98 -154.5 -107.5t-29.5 -9.5t-9 20l72 112q-12 -5 -78 -55t-103 -83q-14 -17 -27 -17q-13 3 -13 17q0 4 36.5 59t36.5 59.5t-2.5 4.5
t-8.5 -3.5t-14 -9.5t-10 -7z" />
    <glyph glyph-name="n" unicode="n" horiz-adv-x="357" 
d="M0 76q19 11 50 35q76 60 81 60q15 0 15 -13t-15.5 -40t-35 -56t-22.5 -35q1 -1 4.5 -1t39.5 26.5l75 56t46 34t13 4.5q12 -1 12 -14q0 -5 -34 -50.5t-34 -58.5q0 -9 21.5 -9t63.5 19.5t74 39.5l32 20q1 -2 1 -8t-9 -10q-135 -92 -188 -92q-31 0 -31 24q0 23 13.5 44
l23.5 35.5t10 15.5l-109 -79t-71 -46q-6 0 -6 14t39.5 73t39.5 63t-2 4l-10 -5l-50 -40q-5 -4 -19 -13t-17.5 -9t-3.5 4.5t3 6.5z" />
    <glyph glyph-name="o" unicode="o" horiz-adv-x="207" 
d="M220 70q-31 -19 -72 -19h-12q-27 -31 -57.5 -50.5t-52.5 -19.5q-31 0 -31 40t43 93q-4 11 -4 27q0 35 30.5 60.5t59.5 25.5q61 0 61 -66q0 -44 -38 -96h12q32 0 55 15q3 3 8 3t5 -3.5t-7 -9.5zM124 185q5 2 8 2t3 -4.5t-11 -12.5q-40 -31 -60 -56q22 -35 67 -46
q39 46 39 86q0 23 -15 35t-38.5 12t-43.5 -13.5t-20 -29t3 -24.5q31 32 68 51zM50 92q-16 -27 -16 -60q0 -18 16 -18q27 0 67 40q-45 8 -67 38z" />
    <glyph glyph-name="p" unicode="p" horiz-adv-x="281" 
d="M119 160q66 37 112.5 37t46.5 -39q0 -53 -66.5 -110.5t-132.5 -57.5q-6 0 -15 6t-9 20t22.5 33t27 19t9 -1.5t9 -5.5t4.5 -7t-5 -8q-10 -7 -21.5 -18.5t-11.5 -16t10 -4.5t42 14.5t64 48t32 73.5q0 25 -29 25q-44 0 -104 -34q-86 -144 -108 -184q-87 -160 -155 -249.5
t-122 -89.5q-18 0 -18 22q0 88 116.5 242.5t247.5 249.5q101 167 122 209q-11 -13 -37 -31l-57 -39q-6 -2 -11 -2t-6 5q94 59 139 108q11 12 12 15q3 3 14 2t11 -10q0 -4 -14.5 -27.5zM-33 -42l81 138q-115 -87 -217 -232.5t-102 -214.5q0 -9 6 -9q63 0 232 318z" />
    <glyph glyph-name="q" unicode="q" horiz-adv-x="274" 
d="M266 12q2 2 3.5 2t1.5 -3q0 -16 -16 -30q-52 -43 -118 -84q5 -13 5 -27q0 -47 -37.5 -114.5t-85 -115.5t-74.5 -48q-22 0 -22 27q0 77 82 211q-47 -19 -78.5 -19t-31.5 22q0 32 49.5 68t117.5 36q10 0 15 -1q8 13 23 34q27 38 50 74q-66 -52 -129 -52q-42 0 -42 30
q0 32 43.5 81.5t111 88t126.5 38.5q27 0 27 -23q0 -17 -31.5 -43t-43.5 -26t-12 6q0 4 24 21t24 29.5t-20 12.5q-42 0 -120.5 -64t-78.5 -100q0 -20 28.5 -20t62.5 18.5t56 37.5l22 19q6 5 12 5q12 0 12 -11q0 -6 -8 -17l-107 -146q14 -6 23 -18q73 44 136 101zM54 -150
q-96 -149 -96 -206q0 -16 12 -16q18 0 54.5 40.5t67 98t30.5 97.5q0 12 -3 22q-29 -17 -65 -36zM66 -79h-10q-31 0 -64.5 -14t-53.5 -46q0 -19 24 -19t60 14q4 7 44 65zM96 -87l-23 -34l39 21q-7 8 -16 13z" />
    <glyph glyph-name="r" unicode="r" horiz-adv-x="245" 
d="M7 67q-4 -2 -7.5 -2t-3.5 4t3 7q41 23 90 75q-45 14 -45 39.5t34 57t64 31.5q20 0 20 -24q0 -37 -37 -79q48 -8 48 -23q0 -20 -17.5 -30.5t-40.5 -37.5t-23 -54q0 -6 4 -11t17 -5t55 19.5t74 39.5l32 20q1 -2 1 -8t-9 -10q-135 -92 -188 -92q-26 0 -26 26q0 21 14.5 44
t32 38l32 28.5t14.5 17.5t-12.5 5t-32.5 5q-55 -59 -93 -81zM69 206q0 -20 44 -28q26 32 26 55.5t-15 23.5t-35 -17.5t-20 -33.5z" />
    <glyph glyph-name="s" unicode="s" horiz-adv-x="197" 
d="M61 109q-48 -44 -61 -44q-4 0 -4 4t3 7q24 13 56 42q-5 12 -5 26q0 34 35 65t59 31q13 0 13 -12.5t-40 -60.5q-4 -5 -9 -10t-10.5 -11.5t-8.5 -9.5l18 -17.5l21 -20.5q22 -22 22 -55t-41 -57.5t-85.5 -24.5t-44.5 26.5t41 48.5t86 30q-6 8 -22.5 21t-22.5 22zM49 35.5
q-30 -14.5 -30 -34t27.5 -19.5t49 13t21.5 29t-4 30q-34 -4 -64 -18.5zM82 144l26 28q26 31 26 37.5t-6 6.5q-17 0 -35 -16.5t-18 -32t7 -23.5z" />
    <glyph glyph-name="t" unicode="t" horiz-adv-x="199" 
d="M22 330q68 0 134 1q107 137 146 137q14 0 14 -15q0 -48 -70 -120l76 1q76 3 93 3t17 -4q0 -19 -26 -20l-188 -8q-49 -46 -121 -97q-76 -125 -76 -170q0 -23 29.5 -23t93.5 32l81 47q1 -2 1 -8t-9 -10q-32 -22 -70 -44q-81 -41 -124 -41q-20 0 -31 8t-12 16l-2 8
q0 34 46 114.5t109 164.5q-48 -2 -91 -2t-43 10q0 19 23 20zM285 432q0 5 -4 5q-23 0 -102 -105h50q56 61 56 100zM201 304q-32 0 -43 -1l-25 -38l-22 -34q52 38 90 73z" />
    <glyph glyph-name="u" unicode="u" horiz-adv-x="318" 
d="M125 10q0 11 16.5 37t22 33l16.5 22q-119 -108 -164 -108q-25 0 -25 21q0 30 101 169q5 8 13 8q23 -7 23 -10t-6 -12q-86 -116 -86 -130.5t10 -14.5q28 0 99.5 64.5t103.5 106.5q4 7 13 7q20 -4 20 -8l-30 -42l-31 -42.5l-25 -35.5q-25 -34 -30 -50q0 -10 16.5 -10
t58.5 19.5t74 39.5l32 20q1 -2 1 -8t-9 -10q-135 -92 -188 -92q-26 0 -26 26z" />
    <glyph glyph-name="v" unicode="v" horiz-adv-x="213" 
d="M16 162l-25 -7q-2 0 -2 3q0 9 22.5 22t36.5 13t14 -60l-6 -97q1 1 67 73.5t114.5 111.5t82.5 39q15 -1 15 -10.5t-18 -24.5t-27.5 -15t-11.5 4t-9.5 4t-24 -10.5t-41 -34.5l-46.5 -47.5l-60.5 -65l-67.5 -71.5q-8 -7 -13.5 -7t-5.5 4q15 77 15 152v19q-3 5 -9 5z" />
    <glyph glyph-name="w" unicode="w" horiz-adv-x="337" 
d="M26 172l-31 -13q-2 0 -2 3q0 9 22.5 22t37 13t14.5 -20q0 -34 -22 -118q1 -1 2 -1q87 71 116 100t39.5 29t10.5 -11t-23 -77.5t-23 -75.5l15 13q45 41 87 85q-22 3 -22 25q0 36 40.5 73.5t66.5 37.5q13 0 13 -13q0 -32 -65 -106h7q21 0 76 38l18 13q2 0 2 -5t-5 -9
q-62 -50 -114 -55q-47 -51 -99 -94.5t-63.5 -43.5t-11.5 10q0 4 4 12.5t21 62.5t16.5 56.5t-1.5 2.5q-3 0 -8 -5l-129 -107q-21 -20 -30 -20q-9 3 -9 6.5t8 19t26.5 70t18.5 68.5t-3 14zM333 221q0 6 -10 6t-30 -21.5t-20 -47.5q0 -13 15 -17q45 54 45 80z" />
    <glyph glyph-name="x" unicode="x" horiz-adv-x="250" 
d="M238 219q5 0 11 -4.5t6 -10t-9 -10.5q-76 -50 -157 -111v-15q0 -53 23 -53q20 0 62 19.5t74 39.5l32 20q1 -2 1 -8t-9 -10q-135 -92 -188 -92q-31 0 -31 52q0 13 1 20q-70 -54 -107.5 -85.5t-43 -31.5t-5.5 4.5t7 12.5l151 125q10 72 10 81.5t-7.5 9.5t-18.5 -8
q-5 0 -5 3q0 7 24 25q17 16 29 16q2 0 8 -3.5t6 -12t-2 -20.5q-2 -13 -9 -63q137 110 147 110z" />
    <glyph glyph-name="y" unicode="y" horiz-adv-x="249" 
d="M232.5 151.5l-35 -52.5t-104.5 -168q8 1 26 1q48 0 48 -25q0 -14 -18 -33t-28 -19t-10 7q0 4 11 12.5t11 20t-19.5 11.5t-37.5 -3q-91 -149 -157 -233t-113 -84q-34 0 -34 35q0 60 90.5 166.5t196.5 136.5l96 166q-42 -38 -86.5 -67t-67.5 -29t-23 21q0 32 105 177
q5 8 13 8q23 -7 23 -10t-6 -12q-90 -122 -90 -141q0 -12 13.5 -12t56 32t72.5 65l56 68q6 7 15 7q19 -3 19 -10q0 -1 -22.5 -35.5zM-177 -308.5q-17 -35.5 -17 -56t16 -20.5q50 0 219 280q-50 -16 -96.5 -52.5t-75.5 -76t-46 -75z" />
    <glyph glyph-name="z" unicode="z" horiz-adv-x="242" 
d="M197 163q0 -21 -47 -63.5t-64 -52.5q9 3 33.5 3t48 -16.5t23.5 -38t-4 -36.5q19 4 43 4q48 0 48 -25q0 -14 -18.5 -35.5t-28.5 -21.5t-10 7q0 4 11 12.5t11 20.5q0 16 -19 16t-44 -5q-35 -104 -138.5 -226.5t-158.5 -122.5q-34 0 -34 35q0 62 95.5 175t202.5 154
q9 25 9 43.5t-16.5 29.5t-35.5 11q-46 0 -74 -23q-10 -8 -16.5 -8t-6.5 4.5t7 10t27.5 20t39 29t39.5 33.5q48 42 48 67q-7 -7 -38.5 -15t-59.5 -8q-57 0 -57 27q0 10 15 22t29 19t16 7q6 0 7 -5q2 -6 -10 -14t-12 -17t23 -9t49.5 6.5t37.5 6.5q29 0 29 -21zM-84.5 -281
q-32.5 -56 -32.5 -81.5t16 -25.5q40 0 121 106.5t118 201.5q-67 -25 -128.5 -85t-94 -116z" />
    <glyph glyph-name="braceleft" unicode="{" horiz-adv-x="312" 
d="M161 332l-3 7q0 3 9 6q19 5 44.5 39t39 101l27 133t40.5 98t72 32t108 -26q7 -14 7 -18.5t-5 -4.5q-48 21 -90.5 21t-67.5 -30.5t-37 -97.5l-23.5 -133t-31.5 -89.5t-60 -40.5q19 -38 19 -68.5t-32.5 -88.5l-65 -117.5t-32.5 -98.5q0 -76 111 -109q2 0 2 -2.5t-7 -8
t-12 -5.5q-134 40 -134 121q0 50 64 161t67 158q0 45 -9 61z" />
    <glyph glyph-name="bar" unicode="|" horiz-adv-x="312" 
d="M99 -142q1 8 76.5 418.5t77 417t3 10.5t3.5 8q5 10 12 10t7 -4q0 -8 -153 -850q-2 -9 -9 -21t-11 -12q-6 0 -6 23z" />
    <glyph glyph-name="braceright" unicode="}" horiz-adv-x="273" 
d="M252 248l3 -7q0 -3 -9 -6q-19 -5 -44.5 -39t-39 -101l-27 -133t-40.5 -98t-72 -32t-108 26q-7 14 -7 18.5t5 4.5q48 -21 90.5 -21t67.5 30.5t37 97.5l23.5 133t31.5 89.5t60 40.5q-19 38 -19 68.5t32.5 88.5l65 117.5t32.5 98.5q0 76 -111 109q-2 0 -2 2.5t7 8t12 5.5
q134 -40 134 -121q0 -50 -64 -161t-67 -158q0 -45 9 -61z" />
    <glyph glyph-name="asciitilde" unicode="~" horiz-adv-x="435" 
d="M357 103q0 -15 -23 -26t-49.5 -11t-72.5 18.5t-64.5 18.5t-38.5 -9.5t-25 -9.5l-2 1q0 4 10.5 13.5t31 18.5t43.5 9t72 -20.5t64.5 -20.5t26.5 5.5t17 10.5t8 5t2 -3z" />
    <glyph glyph-name="exclamdown" unicode="&#xa1;" horiz-adv-x="339" 
d="M-98 -349q-2 -4 -2 -7t5 -3q37 12 42.5 16.5t9.5 9.5q-2 1 65 129q204 388 204 394.5t-8 6.5t-34 -33q-47 -91 -163.5 -300t-118.5 -213zM264.5 249q-9.5 -10 -21 -10t-17 5t-6 17t10.5 20t21 8q22 0 22 -19q0 -11 -9.5 -21z" />
    <glyph glyph-name="cent" unicode="&#xa2;" horiz-adv-x="286" 
d="M235 505l-63 -112q22 -3 22 -24q0 -14 -25 -35q-35 -29 -44 -29t-9 8q0 3 4 6q10 6 22.5 18.5t12.5 21.5q0 14 -13 14q-28 0 -82 -50.5t-54 -81.5q0 -35 38 -35q25 0 55 12l10 4q48 20 103 54l19 12q1 -2 1 -8t-9 -10q-53 -36 -101 -61t-90 -29q-53 -91 -63 -110
q-19 -35 -32 -35q-9 0 -9 10q0 6 4 14q11 14 72 122q-42 4 -42 40q0 45 59.5 102.5t123.5 67.5l44.5 76.5t13.5 22.5q11 20 21.5 20t10.5 -5z" />
    <glyph glyph-name="sterling" unicode="&#xa3;" horiz-adv-x="749" 
d="M813 597l-36 2h-12q-18 -52 -75 -96.5t-117 -44.5q-33 0 -33 26q0 38 60.5 85.5t146.5 55.5v2q0 52 -87 52q-107 0 -181 -88q-38 -45 -64.5 -89t-61.5 -113h63q48 0 48 -5t-10.5 -13t-24.5 -7t-88 1l-18 -35h64q48 0 48 -5t-10.5 -13t-24.5 -7t-89 1q-63 -126 -114 -198
q36 0 74.5 -1.5t117 -3.5t94 -3t15.5 -5q0 -29 -48 -32q-131 4 -282 6q-153 -189 -386 -189q-56 0 -56 40q0 25 26 54.5t75.5 58.5t134.5 49.5t189 24.5q45 67 112 199q-51 -1 -112 -9q-5 0 -5 3l14 17q19 8 114 11q4 7 10 19.5t9 17.5q-52 -1 -113 -9q-5 0 -5 3l14 17
q19 8 115 11q37 71 69 119t77 94q89 94 222 94q98 0 98 -64v-4h6q21 0 40 -4q6 -6 5 -15.5t-8 -9.5zM-202 -101q192 0 325 169q-77 -1 -149 -18t-119 -40t-75.5 -47t-28.5 -41q0 -23 47 -23zM590 474q35 0 83.5 40t66.5 83q-73 -9 -121.5 -44.5t-48.5 -62.5q0 -16 20 -16z
" />
    <glyph glyph-name="currency" unicode="&#xa4;" horiz-adv-x="468" 
d="M262 177q-32 -16 -67.5 -16t-66.5 20q-63 -59 -85 -59q-8 0 -8 8t9.5 15t63.5 52q-26 28 -26 65t18.5 68t49.5 51l-38 68q0 5 6 5q14 0 24 -18l26 -45q32 16 66 16q55 0 87 -30l41 34q13 12 24.5 12t11.5 -6q0 -2 -4 -6l-60 -50q16 -23 16 -53t-18 -63t-49 -55
q14 -24 37 -59q4 -8 4 -14q0 -10 -9 -10q-16 0 -53 70zM152 345.5q-31 -38.5 -31 -78t21 -62t55 -22.5q48 0 80 39.5t32 79t-20 61t-63 21.5t-74 -38.5z" />
    <glyph glyph-name="yen" unicode="&#xa5;" horiz-adv-x="514" 
d="M161 246q19 8 114 11l49 87q59 104 81 138q-72 -81 -157 -150q-38 -31 -84.5 -56t-80.5 -25q-13 0 -24.5 3t-24 17.5t-12.5 49t19 79t46.5 81l54.5 72.5q66 86 66 150.5t-27.5 90.5t-87.5 26q-9 6 -9 11q0 9 36.5 9t63 -10.5t38.5 -25.5q25 -30 27 -56l1 -11
q0 -53 -19.5 -105t-47.5 -92t-56 -76q-67 -88 -67 -148q0 -18 10.5 -29.5t29.5 -11.5q95 0 332 259q35 37 54 66l5 8q7 11 14 11q24 -3 24 -15q0 -5 -37 -63.5l-91.5 -149l-81.5 -133.5q13 1 65 0.5t52 -5t-10.5 -12.5t-24.5 -7t-93 1h-3q-16 -24 -23 -36q16 1 70.5 0.5
t54.5 -5t-10.5 -12.5t-24.5 -7t-105 1l-42 -66q46 8 100 8t56 -31q0 -17 -14 -28q-23 -18 -36 -18t-13 3t8 7t11.5 6.5l7.5 5.5q9 7 9 13q0 14 -47 14t-102 -10q-205 -306 -285 -306q-26 0 -26 32.5t17.5 74t50.5 85t91 81t130 55.5q30 46 45 73q-44 -1 -105 -8q-5 0 -5 3
l14 17q18 7 109 11q14 21 22 37q-51 -1 -111 -9q-5 0 -5 3zM-56 -181q60 0 219 251q-112 -33 -173 -103.5t-61 -126.5q0 -21 15 -21z" />
    <glyph glyph-name="brokenbar" unicode="&#xa6;" horiz-adv-x="312" 
d="M105 -165q-6 0 -6 18.5t71 401.5q0 8 6 8l18 -8q-10 -53 -32 -179l-37 -208q-2 -9 -9 -21t-11 -12zM185 330q68 366 70 372t4 10q5 10 12 10t7 -4q0 -7 -69 -388q0 -8 -6 -8z" />
    <glyph glyph-name="section" unicode="&#xa7;" horiz-adv-x="246" 
d="M59.5 111q-9.5 13 -9.5 37t24 50t51 37q1 34 35.5 64.5t58.5 30.5q13 0 13 -12.5t-40 -60.5q-4 -5 -9 -10t-10.5 -11.5t-8.5 -9.5l18 -17.5l21 -20.5q22 -22 22 -49.5t-22 -48t-54 -31.5q1 -3 1 -11q0 -38 -41 -62.5t-85.5 -24.5t-44.5 26.5t41 48.5t86 30
q-6 9 -21.5 20.5t-25 24.5zM92.5 199q-17.5 -16 -17.5 -33.5t30.5 -45.5t38.5 -46q20 4 34 16t14 30t-8.5 32t-19.5 21q-30 19 -37 43q-17 -1 -34.5 -17zM95.5 -5q21.5 13 21.5 29t-4 30q-34 -4 -64 -18.5t-30 -34t27.5 -19.5t49 13zM157 234q52 52 52 68q0 4 -11.5 4
t-29.5 -16.5t-18 -31t7 -24.5z" />
    <glyph glyph-name="dieresis" unicode="&#xa8;" horiz-adv-x="394" 
d="M184 305q15 0 15 -15t-14 -30.5t-31 -15.5q-14 0 -14 19.5t16 30.5t28 11zM289 295q15 0 15 -15t-14 -30.5t-31 -15.5q-14 0 -14 19.5t16 30.5t28 11z" />
    <glyph glyph-name="copyright" unicode="&#xa9;" horiz-adv-x="612" 
d="M361 358q85 0 152.5 -47.5t67.5 -135t-92.5 -163t-211 -75.5t-173.5 45t-55 116q0 96 89 178t223 82zM357 338q-121 0 -201 -74t-80 -162q0 -63 49.5 -103.5t156 -40.5t189.5 67.5t83 146.5t-58.5 121t-138.5 45zM444 145q-68 -44 -113 -63t-74 -19q-38 0 -38 35
q0 31 54 81.5t82 50.5q13 0 13 -14q0 -9 -12.5 -21.5t-22.5 -18.5q-4 -3 -4 -6q0 -8 9 -8t39 25t30 39q0 24 -28 24q-67 0 -135.5 -61.5t-68.5 -110.5q0 -41 57 -41q45 0 99 27q43 23 91 54l14 9q9 5 9 13z" />
    <glyph glyph-name="ordfeminine" unicode="&#xaa;" horiz-adv-x="346" 
d="M213 467q-6 0 -6 7l3 7q18 16 18 30t-16 14q-35 0 -94.5 -48.5t-59.5 -86.5q0 -16 21 -16t48.5 17.5t47 35t21.5 17.5q10 -1 10 -10q0 -4 -15.5 -26t-15.5 -35q0 -10 16.5 -10t58.5 19.5t74 39.5l32 20q1 -2 1 -8t-9 -10q-135 -92 -188 -92q-26 0 -26 26q0 11 4 23
q-7 -8 -41.5 -24.5t-61.5 -16.5t-27 25q0 59 82 120.5t138 61.5q33 0 33 -28q0 -16 -20 -34t-28 -18zM0 279l235 1q8 0 8 -4q0 -17 -13 -18q-100 -5 -213 -5q-29 0 -29 8q0 17 12 18z" />
    <glyph glyph-name="guillemotleft" unicode="&#xab;" horiz-adv-x="397" 
d="M71 120l166 80q2 -8 2 -14t-10 -11l-118 -69l66 -70q8 -8 8 -12q0 -7 -15 -11l-103 90q-3 3 -3 8t7 9zM183 110l166 70q2 -8 2 -14t-10 -11l-118 -59l66 -70q8 -8 8 -12q0 -7 -15 -11l-103 90q-3 3 -3 8t7 9z" />
    <glyph glyph-name="logicalnot" unicode="&#xac;" horiz-adv-x="356" 
d="M283 315l-44 -125q-2 -7 -8 -7t-11.5 5.5t-5.5 12.5q17 59 28 90q-102 -4 -177.5 -4t-81.5 2t-6 8q0 20 15 21h282q2 1 5.5 1t3.5 -4z" />
    <glyph glyph-name="registered" unicode="&#xae;" horiz-adv-x="612" 
d="M236.5 223.5q63.5 39.5 119 39.5t55.5 -29q0 -25 -34 -58t-80 -54l61 114q0 6 -11.5 6t-15.5 -10h1l-67 -121q-15 -5 -27 -5.5t-12 -8t12 -7.5q4 0 9.5 1.5t7.5 1.5l-37 -68q0 -7 8 -7q5 0 12 4t7 7l39 71l3 1q33 0 54.5 -20.5t26.5 -40.5l6 -20q3 -13 9.5 -13t6.5 10
q-1 35 -19.5 63.5t-47.5 35.5q49 26 82 62t33 60q0 47 -69.5 47t-145 -52.5t-75.5 -85.5q0 -21 28.5 -21t67 22.5t47 34.5t8.5 15q0 8 -7 8l-9 -5q-22 -23 -48.5 -37t-44 -14t-17.5 10q0 24 63.5 63.5zM361 358q85 0 152.5 -47.5t67.5 -135t-92.5 -163t-211 -75.5t-173.5 45
t-55 116q0 96 89 178t223 82zM357 338q-121 0 -201 -74t-80 -162q0 -63 49.5 -103.5t156 -40.5t189.5 67.5t83 146t-59.5 122.5t-137.5 44z" />
    <glyph glyph-name="macron" unicode="&#xaf;" horiz-adv-x="376" 
d="M107 271l186 -2q7 0 7 -4q0 -15 -11 -16q-62 -3 -167 -3q-26 0 -26 9q0 15 11 16z" />
    <glyph glyph-name="degree" unicode="&#xb0;" horiz-adv-x="262" 
d="M82.5 513.5q-14.5 15.5 -14.5 40.5t27 62t69 37q25 0 40.5 -17.5t15.5 -46.5t-32.5 -60t-61.5 -31t-43.5 15.5zM195 588q0 40 -42 40q-23 0 -41.5 -24t-18.5 -42.5t10 -29.5t31 -11t41 21.5t20 45.5z" />
    <glyph glyph-name="plusminus" unicode="&#xb1;" horiz-adv-x="356" 
d="M-47 187l282 2q9 0 9 -5q0 -21 -15 -22q-120 -6 -199.5 -6t-85.5 2t-6 8q0 20 15 21zM149 317l-35 -101q-2 -7 -8 -7t-11.5 5.5t-5.5 12.5l10 35q8 29 17 54h-95q-23 0 -29 2t-6 8q0 20 15 21h126q6 18 13.5 37t16 43.5t16 24.5t13 -6t5.5 -13l-31 -85h126q6 0 6 -4
q0 -21 -15 -22q-51 -3 -128 -5z" />
    <glyph glyph-name="twosuperior" unicode="&#xb2;" horiz-adv-x="371" 
d="M263 566q0 -18 -44.5 -39.5t-84.5 -21.5t-40 24q0 35 65.5 79t139.5 44q28 0 48 -12t20 -34.5t-13 -46t-28 -41t-45 -41t-45.5 -34.5t-48.5 -32q-179 -114 -179 -143q0 -5 2.5 -5t14.5 2.5t31.5 6t41.5 6.5q55 9 89 9t54.5 -7.5t20.5 -18.5q0 -5 -7 -11t-11 -6l-11 3
q-33 11 -83 11q-86 0 -150 -15l-22 -5q-8 -2 -9 -2q-10 0 -10 10q0 18 46 58.5t91 72.5l46 32q191 122 191 192q0 38 -47 38t-102 -36.5t-55 -60.5q0 -14 25 -14q59 0 97 43q3 3 7.5 3t4.5 -8z" />
    <glyph glyph-name="threesuperior" unicode="&#xb3;" horiz-adv-x="354" 
d="M349 605q0 -65 -157 -120q-6 -2 -6 -4t5 -2t11.5 -1t23.5 -6t30 -12.5t23.5 -23.5t10.5 -37q0 -73 -73.5 -122.5t-148.5 -49.5q-60 0 -76 27q-13 21 -13 36q3 35 29 58q39 32 74 32q9 0 9 -4t-5 -9q-37 -8 -59 -31t-22 -46.5t18 -38t53 -14.5q66 0 120.5 53t54.5 106
q0 31 -24 50t-73 19h-20q-4 0 -4 3l6 14l6 3q28 7 59 17.5t70 46.5t39 61q0 29 -53.5 29t-93.5 -24t-40 -50q0 -17 20 -17q34 0 76 26h1q3 0 3 -5q0 -14 -33 -26.5t-58 -12.5q-41 0 -41 25q0 33 55.5 64.5t120.5 31.5q41 0 61.5 -14t20.5 -32z" />
    <glyph glyph-name="acute" unicode="&#xb4;" horiz-adv-x="380" 
d="M165 236q-5 2 -5 6q1 4 9 12l79 65q4 4 10 4q14 0 14 -14q0 -7 -6 -13l-85 -54q-12 -6 -16 -6z" />
    <glyph glyph-name="mu" unicode="&#xb5;" horiz-adv-x="318" 
d="M125 10q0 11 16.5 37t22 33l16.5 22q-119 -108 -164 -108q-7 0 -10 1q-55 -84 -60 -94t-17.5 -18.5t-22.5 -8.5t-10 3t13 23q53 79 89 139q17 37 94 145q5 8 13 8q23 -7 23 -10t-6 -12q-86 -116 -86 -130.5t10 -14.5q28 0 99.5 64.5t103.5 106.5q4 7 13 7q20 -4 20 -8
l-30 -42l-31 -42.5l-25 -35.5q-25 -34 -30 -50q0 -10 16.5 -10t58.5 19.5t74 39.5l32 20q1 -2 1 -8t-9 -10q-135 -92 -188 -92q-26 0 -26 26z" />
    <glyph glyph-name="paragraph" unicode="&#xb6;" horiz-adv-x="515" 
d="M382 472h42q2 0 2 -2q0 -21 -371 -680q-4 -8 -12.5 -16.5t-13.5 -8.5q-9 0 -9 10q0 6 4 14l283 510q-114 -65 -160 -65t-46 30q0 32 43.5 81.5t111 88t126.5 38.5zM293.5 118l186.5 335.5t20.5 16.5t11.5 -4v-1q9 0 -371 -675q-4 -8 -12.5 -16.5t-13.5 -8.5q-9 0 -9 10
q0 6 5 15z" />
    <glyph glyph-name="periodcentered" unicode="&#xb7;" horiz-adv-x="228" 
d="M137.5 114q-9.5 -10 -21 -10t-17 5t-6 17t10.5 20t21 8q22 0 22 -19q0 -11 -9.5 -21z" />
    <glyph glyph-name="cedilla" unicode="&#xb8;" horiz-adv-x="243" 
d="M159 3l-18 -26q20 -5 20 -23q-2 -28 -31 -42t-59 -14q-7 0 -7 4.5t4 4.5q24 0 46.5 11.5t23.5 30.5q0 19 -22 19l24 32q3 5 8 5t11 -2z" />
    <glyph glyph-name="onesuperior" unicode="&#xb9;" horiz-adv-x="264" 
d="M313 626q-58 -71 -121.5 -169.5t-97.5 -161.5l-35 -63q-7 -12 -21.5 -12t-14.5 7q20 60 164 271l45 67l18 26q0 2 -3 2l-4 -1q-54 -41 -141 -84l-27 -13q-7 -3 -11 -3t-3 6q2 13 17 24q112 43 205 115q8 4 20.5 4t12.5 -7q0 -4 -3 -8z" />
    <glyph glyph-name="ordmasculine" unicode="&#xba;" horiz-adv-x="247" 
d="M244 422q-31 -19 -72 -19h-12q-27 -31 -57.5 -50.5t-52.5 -19.5q-31 0 -31 40t43 93q-4 11 -4 27q0 35 30.5 60.5t59.5 25.5q61 0 61 -66q0 -44 -38 -96q44 0 67 15q3 3 8 3t5 -3.5t-7 -9.5zM148 537q5 2 8 2t3 -4.5t-11 -12.5q-40 -31 -60 -56q22 -35 67 -46
q39 46 39 86q0 23 -15 35t-38.5 12t-43.5 -13.5t-20 -29t3 -24.5q31 32 68 51zM-40 289l235 1q8 0 8 -4q0 -17 -13 -18q-100 -5 -213 -5q-29 0 -29 8q0 17 12 18zM74 444q-16 -27 -16 -60q0 -18 16 -18q27 0 67 40q-45 8 -67 38z" />
    <glyph glyph-name="guillemotright" unicode="&#xbb;" horiz-adv-x="424" 
d="M345 84l-166 -80q-2 8 -2 14t10 11l118 69l-66 70q-8 8 -8 12q0 7 15 11l103 -90q3 -3 3 -8t-7 -9zM233 94l-166 -70q-2 8 -2 14t10 11l118 59l-66 70q-8 8 -8 12q0 7 15 11l103 -90q3 -3 3 -8t-7 -9z" />
    <glyph glyph-name="onequarter" unicode="&#xbc;" horiz-adv-x="670" 
d="M313 626q-58 -71 -121.5 -169.5t-97.5 -161.5l-35 -63q-7 -12 -21.5 -12t-14.5 7q20 60 164 271l45 67l18 26q0 2 -3 2l-4 -1q-54 -41 -141 -84l-27 -13q-7 -3 -11 -3t-3 6q2 13 17 24q112 43 205 115q8 4 20.5 4t12.5 -7q0 -4 -3 -8zM184.5 295.5l211.5 372.5t19.5 16
t10.5 -4.5t-422 -754.5q-4 -8 -12.5 -16.5t-13.5 -8.5q-9 0 -9 10q0 6 6.5 17.5zM344 16q-4 -10 -23 -10t-19 8l4 11q15 30 71 114h-7l-172 -6q-17 0 -17 11l3 12q87 94 231.5 191.5t180.5 97.5q20 0 21 -7v-1q0 -12 -22 -40q-88 -116 -167 -238q48 1 105 9h3q8 0 8 -8
q0 -15 -128 -21q-42 -64 -72 -123zM263 155q69 0 127 2l176 256l3 5q0 2 -3 2l-7 -2q-22 -12 -57 -33.5t-120 -86.5t-141 -128q-4 -6 -4 -10.5t7 -4.5h19z" />
    <glyph glyph-name="onehalf" unicode="&#xbd;" horiz-adv-x="616" 
d="M313 626q-58 -71 -121.5 -169.5t-97.5 -161.5l-35 -63q-7 -12 -21.5 -12t-14.5 7q20 60 164 271l45 67l18 26q0 2 -3 2l-4 -1q-54 -41 -141 -84l-27 -13q-7 -3 -11 -3t-3 6q2 13 17 24q112 43 205 115q8 4 20.5 4t12.5 -7q0 -4 -3 -8zM452 338q0 -18 -44.5 -39.5
t-84.5 -21.5t-40 24q0 35 65.5 79t139.5 44q28 0 48 -12t20 -34.5t-13 -46t-28 -41t-45 -41t-45.5 -34.5t-48.5 -32q-179 -114 -179 -143q0 -5 2.5 -5t14.5 2.5t31.5 6t42.5 6.5q54 9 88 9t54.5 -7.5t20.5 -18.5q0 -5 -7 -11t-11 -6l-11 3q-33 11 -82 11q-87 0 -152 -15
l-21 -5q-8 -2 -9 -2q-10 0 -10 10q0 18 46 58.5t92 72.5l45 32q191 122 191 192q0 38 -47 38t-102 -36.5t-55 -60.5q0 -14 25 -14q59 0 97 43q3 3 7.5 3t4.5 -8zM184.5 295.5l211.5 372.5t19.5 16t10.5 -4.5t-422 -754.5q-4 -8 -12.5 -16.5t-13.5 -8.5q-9 0 -9 10
q0 6 6.5 17.5z" />
    <glyph glyph-name="threequarters" unicode="&#xbe;" horiz-adv-x="772" 
d="M446 16q-4 -10 -23 -10t-19 8l4 11q15 30 71 114h-7l-172 -6q-17 0 -17 11l3 12q87 94 231.5 191.5t180.5 97.5q20 0 21 -7v-1q0 -12 -22 -40q-88 -116 -167 -238q48 1 105 9h3q8 0 8 -8q0 -15 -128 -21q-42 -64 -72 -123zM349 605q0 -65 -157 -120q-6 -2 -6 -4t5 -2
t11.5 -1t23.5 -6t30 -12.5t23.5 -23.5t10.5 -37q0 -73 -73.5 -122.5t-148.5 -49.5q-60 0 -76 27q-13 21 -13 36q3 35 29 58q39 32 74 32q9 0 9 -4t-5 -9q-37 -8 -59 -31t-22 -46.5t18 -38t53 -14.5q66 0 120.5 53t54.5 106q0 31 -24 50t-73 19h-20q-4 0 -4 3l6 14l6 3
q28 7 59 17.5t70 46.5t39 61q0 29 -53.5 29t-93.5 -24t-40 -50q0 -17 20 -17q34 0 76 26h1q3 0 3 -5q0 -14 -33 -26.5t-58 -12.5q-41 0 -41 25q0 33 55.5 64.5t120.5 31.5q41 0 61.5 -14t20.5 -32zM365 155q69 0 127 2l176 256l3 5q0 2 -3 2l-7 -2q-22 -12 -57 -33.5
t-120 -86.5t-141 -128q-4 -6 -4 -10.5t7 -4.5h19zM286.5 295.5l211.5 372.5t19.5 16t10.5 -4.5t-422 -754.5q-4 -8 -12.5 -16.5t-13.5 -8.5q-9 0 -9 10q0 6 6.5 17.5z" />
    <glyph glyph-name="questiondown" unicode="&#xbf;" horiz-adv-x="327" 
d="M148 121q-19 -49 -66.5 -98.5t-99.5 -88.5l-102 -76q-115 -85 -115 -144q0 -29 19 -49t48 -28q52 -14 84 -14q114 0 214.5 61t100.5 129q0 49 -72 49q-52 0 -117.5 -24t-65.5 -43q0 -5 5 -5l12 5q66 40 129.5 40t63.5 -41q0 -45 -76 -97t-175 -52q-24 0 -57 7
q-65 12 -65 59q0 37 37 80.5t89.5 83l105.5 79.5q127 94 127 155q0 17 -10 25q-9 -1 -14 -13zM228.5 260q-9.5 -10 -21 -10t-17 5t-6 17t10.5 20t21 8q22 0 22 -19q0 -11 -9.5 -21z" />
    <glyph glyph-name="Agrave" unicode="&#xc0;" horiz-adv-x="515" 
d="M-41 -68q-23 0 -31 15q-3 5 -3 8t2 5q91 67 216 210q-62 34 -96 81.5t-34 88t25 63.5t73 23q91 0 155 -105l89.5 114l89.5 113.5l69 81.5q76 84 115 84q30 -1 30 -32q0 -33 -22.5 -90.5l-36 -91t-40 -89l-41.5 -88l-46 -96l-43 -88.5q77 5 122 27q8 4 10 9t5.5 5t7 -4
t3.5 -8q0 -34 -156 -47q-39 -81 -54 -117q-4 -8 -12 -8q-21 0 -21 40q-4 31 -14 85q-79 6 -148 35v-1q-43 -53 -96.5 -108.5t-85.5 -84.5zM393 138q229 476 229 531q0 17 -12 17q-18 0 -50.5 -36l-52.5 -60l-53 -66.5l-54.5 -70.5l-60.5 -80.5l-58 -77.5q31 -58 56 -153
q24 -4 56 -4zM255 306q-59 102 -140 102q-36 0 -54 -15t-18 -44.5t33.5 -73t90.5 -76.5zM269 279l-74 -96q59 -28 120 -38q-21 84 -46 134zM694 737q-4 0 -16 6l-85 54q-6 6 -6 13q0 14 14 14q6 0 10 -4l79 -65q14 -14 4 -18zM384 119h-42l12 -63z" />
    <glyph glyph-name="Aacute" unicode="&#xc1;" horiz-adv-x="515" 
d="M-41 -68q117 104 214 223v1q69 -29 148 -35q10 -54 14 -85q0 -40 21 -40q8 0 12 8q15 36 54 117q156 13 156 47q0 4 -3.5 8t-7 4t-4.5 -2q-3 -8 -11 -12q-45 -22 -122 -27l43 88.5l46 96l41.5 88t40 89l29.5 73.5q29 75 29 107t-30 33q-39 0 -115 -84
q-59 -67 -139.5 -170.5l-108.5 -138.5q-64 105 -155 105q-48 0 -73 -23t-25 -63.5t34 -88t96 -81.5q-125 -143 -216 -210q-2 -2 -2 -5t3 -8q8 -15 31 -15zM393 138q-32 0 -56 4q-25 95 -56 153l58 77.5l60.5 80.5l54.5 70.5l53 66.5t43 49q42 47 60 47q12 0 12 -17
q0 -55 -229 -531zM255 306l-88 -107q-57 33 -90.5 76.5t-33.5 72.5q0 60 76.5 60t135.5 -102zM269 279q25 -50 46 -134q-61 10 -120 38zM657 740q-5 2 -5 6q1 4 9 12l79 65q4 4 10 4q14 0 14 -14q0 -7 -6 -13l-85 -54q-12 -6 -16 -6zM384 119l-30 -63q-3 26 -12 63h42z" />
    <glyph glyph-name="Acircumflex" unicode="&#xc2;" horiz-adv-x="515" 
d="M-41 -68q-23 0 -31 15q-3 5 -3 8t2 5q91 67 216 210q-62 34 -96 81.5t-34 88t25 63.5t73 23q91 0 155 -105l89.5 114l89.5 113.5l69 81.5q76 84 115 84q30 -1 30 -32q0 -33 -22.5 -90.5l-36 -91t-40 -89l-41.5 -88l-46 -96l-43 -88.5q77 5 122 27q8 4 10 9t5.5 5t7 -4
t3.5 -8q0 -34 -156 -47q-39 -81 -54 -117q-4 -8 -12 -8q-21 0 -21 40q-4 31 -14 85q-79 6 -148 35v-1q-43 -53 -96.5 -108.5t-85.5 -84.5zM393 138q229 476 229 531q0 17 -12 17q-18 0 -50.5 -36l-52.5 -60l-53 -66.5l-54.5 -70.5l-60.5 -80.5l-58 -77.5q31 -58 56 -153
q24 -4 56 -4zM255 306q-59 102 -140 102q-36 0 -54 -15t-18 -44.5t33.5 -73t90.5 -76.5zM269 279l-74 -96q59 -28 120 -38q-21 84 -46 134zM668 790q-112 -55 -121 -55t-9 4.5t67 44.5t75 40t24.5 -42t20.5 -51q-3 -6 -8 -6q-8 0 -39 49zM384 119h-42l12 -63z" />
    <glyph glyph-name="Atilde" unicode="&#xc3;" horiz-adv-x="515" 
d="M-41 -68q117 104 214 223v1q69 -29 148 -35q10 -54 14 -85q0 -40 21 -40q8 0 12 8q15 36 54 117q156 13 156 47q0 4 -3.5 8t-7 4t-4.5 -2q-3 -8 -11 -12q-45 -22 -122 -27l43 88.5l46 96l41.5 88t40 89l29.5 73.5q29 75 29 107t-30 33q-39 0 -115 -84
q-59 -67 -139.5 -170.5l-108.5 -138.5q-64 105 -155 105q-48 0 -73 -23t-25 -63.5t34 -88t96 -81.5q-125 -143 -216 -210q-2 -2 -2 -5t3 -8q8 -15 31 -15zM393 138q-32 0 -56 4q-25 95 -56 153l58 77.5l60.5 80.5l54.5 70.5l53 66.5t43 49q42 47 60 47q12 0 12 -17
q0 -55 -229 -531zM255 306l-88 -107q-57 33 -90.5 76.5t-33.5 72.5q0 60 76.5 60t135.5 -102zM269 279q25 -50 46 -134q-61 10 -120 38zM762 796q0 -15 -15.5 -26t-34.5 -11t-51 18.5t-44.5 18.5t-25.5 -9.5t-18 -9.5l-2 1q0 7 18.5 24t37.5 17t53 -20.5t46.5 -20.5
t22.5 10.5t11.5 10.5t1.5 -3zM384 119l-30 -63q-3 26 -12 63h42z" />
    <glyph glyph-name="Adieresis" unicode="&#xc4;" horiz-adv-x="515" 
d="M-41 -68q-23 0 -31 15q-3 5 -3 8t2 5q91 67 216 210q-62 34 -96 81.5t-34 88t25 63.5t73 23q91 0 155 -105l89.5 114l89.5 113.5l69 81.5q76 84 115 84q30 -1 30 -32q0 -33 -22.5 -90.5l-36 -91t-40 -89l-41.5 -88l-46 -96l-43 -88.5q77 5 122 27q8 4 10 9t5.5 5t7 -4
t3.5 -8q0 -34 -156 -47q-39 -81 -54 -117q-4 -8 -12 -8q-21 0 -21 40q-4 31 -14 85q-79 6 -148 35v-1q-43 -53 -96.5 -108.5t-85.5 -84.5zM393 138q229 476 229 531q0 17 -12 17q-18 0 -50.5 -36l-52.5 -60l-53 -66.5l-54.5 -70.5l-60.5 -80.5l-58 -77.5q31 -58 56 -153
q24 -4 56 -4zM255 306q-59 102 -140 102q-36 0 -54 -15t-18 -44.5t33.5 -73t90.5 -76.5zM269 279l-74 -96q59 -28 120 -38q-21 84 -46 134zM716 811q15 0 15 -15t-14 -30.5t-31 -15.5q-14 0 -14 19.5t16 30.5t28 11zM611 821q15 0 15 -15t-14 -30.5t-31 -15.5
q-14 0 -14 19.5t16 30.5t28 11zM384 119h-42l12 -63z" />
    <glyph glyph-name="Aring" unicode="&#xc5;" horiz-adv-x="515" 
d="M-41 -68q117 104 214 223v1q69 -29 148 -35q10 -54 14 -85q0 -40 21 -40q8 0 12 8q15 36 54 117q156 13 156 47q0 4 -3.5 8t-7 4t-4.5 -2q-3 -8 -11 -12q-45 -22 -122 -27l43 88.5l46 96l41.5 88t40 89l29.5 73.5q29 75 29 107t-30 33q-39 0 -115 -84
q-59 -67 -139.5 -170.5l-108.5 -138.5q-64 105 -155 105q-48 0 -73 -23t-25 -63.5t34 -88t96 -81.5q-125 -143 -216 -210q-2 -2 -2 -5t3 -8q8 -15 31 -15zM393 138q-32 0 -56 4q-25 95 -56 153l58 77.5l60.5 80.5l54.5 70.5l53 66.5t43 49q42 47 60 47q12 0 12 -17
q0 -55 -229 -531zM255 306l-88 -107q-57 33 -90.5 76.5t-33.5 72.5q0 60 76.5 60t135.5 -102zM269 279q25 -50 46 -134q-61 10 -120 38zM640.5 742q-8.5 9 -8.5 23.5t15 35.5t35 21q37 0 37 -34q0 -19 -18.5 -37t-35 -18t-25 9zM683 803q-14 0 -23 -11.5t-9 -20.5t5 -14.5
t15 -5.5t19.5 10.5t9.5 22.5q0 19 -17 19zM384 119l-30 -63q-3 26 -12 63h42z" />
    <glyph glyph-name="AE" unicode="&#xc6;" horiz-adv-x="905" 
d="M883 495q-27 0 -27 16q0 26 58 72.5t130 74.5v7q0 46 -61.5 46t-152 -53.5t-158.5 -126t-68 -122.5q0 -63 116 -63q68 0 117 32q3 4 7 4q7 0 7 -10.5t-7 -13.5q-125 -57 -206 -130q-36 -31 -64.5 -77.5t-28.5 -86t20.5 -65t76.5 -25.5q19 1 43 6t81 34t109 77q8 10 13 10
q6 -1 6 -8q0 -17 -47 -52t-117.5 -65t-123.5 -30q-76 0 -104 52q-11 21 -11 54.5t31 83.5q-41 -10 -100 -15q-39 -81 -54 -117q-4 -8 -12 -8q-21 0 -21 40q-4 33 -14 84q-81 7 -147 36l-1 -1q-43 -53 -96.5 -108.5t-85.5 -84.5l-32 -30q-23 0 -31 15q-3 5 -3 8t2 5
q96 72 216 211q-62 34 -96 81.5t-34 87.5t25 63t73 23q91 0 155 -105l89.5 114l89.5 113.5l69 81.5q76 84 115 84q30 -1 30 -32q0 -45 -63 -190q66 89 187.5 166.5t206 77.5t84.5 -59v-8q47 14 67.5 14t26.5 -1.5t6 -12.5t-8 -13q-46 0 -100 -17q-22 -53 -77.5 -98.5
t-105.5 -45.5zM393 138q229 476 229 531q0 17 -12 17q-18 0 -50.5 -36l-52.5 -60l-53 -66.5l-54.5 -70.5l-60.5 -80.5l-58 -77.5q31 -58 56 -153q24 -4 56 -4zM430 139q64 3 108 21q78 103 228 173q-47 -10 -87 -10q-126 0 -126 74zM255 306q-59 102 -135.5 102t-76.5 -54
q0 -35 33.5 -78.5t90.5 -76.5zM269 279l-73 -96q58 -28 119 -38q-21 84 -46 134zM905 514q31 0 71.5 36.5t58.5 77.5q-58 -23 -102 -55.5t-44 -49.5q0 -9 16 -9zM384 119h-42l12 -63z" />
    <glyph glyph-name="Ccedilla" unicode="&#xc7;" horiz-adv-x="459" 
d="M449 108q8 0 8 -12q0 -15 -46.5 -46t-120 -57.5t-134.5 -26.5q-24 0 -41 4l-10 -15q20 -5 20 -23q-2 -28 -31 -42t-59 -14q-7 0 -7 4.5t4 4.5q24 0 46.5 11.5t23.5 30.5q0 19 -22 19q1 4 20 28q-100 29 -100 165q0 88 39.5 177t102 158.5t136 124.5t146 84.5t127.5 29.5
q114 0 114 -88q0 -66 -61 -157t-149 -158t-158 -67q-54 0 -54 51q0 65 84.5 160.5t144.5 95.5q8 0 8 -6l-5 -13q-36 0 -85 -41t-83 -95t-34 -90q0 -40 41 -40q51 0 125.5 62t129 146.5t54.5 142.5q0 73 -92 73q-48 0 -113 -27.5t-131 -79.5t-122.5 -117t-92 -148.5
t-35.5 -166.5q0 -158 140 -158q73 0 158 39.5t114 76.5z" />
    <glyph glyph-name="Egrave" unicode="&#xc8;" horiz-adv-x="400" 
d="M378 495q-27 0 -27 16q0 25 58.5 72.5t129.5 75.5q1 2 1 7q0 45 -62 45t-152.5 -53.5t-158.5 -126t-68 -122.5q0 -63 116 -63q68 0 117 32q3 4 7 4q7 0 7 -10.5t-7 -13.5q-125 -57 -207 -130q-35 -31 -63.5 -77.5t-28.5 -86t20.5 -65t76.5 -25.5q19 1 43 6t81 34t109 77
q8 10 13 10q6 -1 6 -8q0 -17 -47 -52t-117.5 -65t-123.5 -30q-76 0 -104 52q-11 21 -11 48q0 66 76.5 148.5t198.5 138.5q-47 -10 -87 -10q-126 0 -126 70q0 43 47 103.5t113.5 112.5t144 89.5t132.5 37.5q85 0 85 -58q0 -6 -1 -9q44 14 66 14t28 -1.5t6 -12.5t-8 -13
q-46 0 -100 -17q-22 -53 -77.5 -98.5t-105.5 -45.5zM384 523q0 -9 16 -9q30 0 71 36.5t59 77.5q-58 -24 -102 -56.5t-44 -48.5zM589 770q-4 0 -16 6l-85 54q-6 6 -6 13q0 14 14 14q6 0 10 -4l79 -65q14 -14 4 -18z" />
    <glyph glyph-name="Eacute" unicode="&#xc9;" horiz-adv-x="400" 
d="M378 495q50 0 105.5 45.5t77.5 98.5q54 17 100 17q8 2 8 13t-6 12.5t-28 1.5t-66 -14q1 3 1 9q0 58 -85 58q-55 0 -132.5 -37.5t-144 -89.5t-113.5 -112.5t-47 -103.5q0 -70 126 -70q35 0 74 7l13 3q-122 -56 -198.5 -138.5t-76.5 -148.5q0 -27 11 -47.5t24.5 -30
t32.5 -14.5q26 -8 47 -8q53 0 123.5 30t117.5 65t47 52q0 7 -4 7q-7 1 -15 -9q-52 -48 -109 -77t-81 -34t-43 -6q-56 0 -76.5 25.5t-20.5 65t28.5 86t64 78t85.5 63.5q62 39 121 66q7 3 7 13.5t-7 10.5l-7 -4q-49 -32 -117 -32q-116 0 -116 63q0 50 68 122.5t158.5 126
t152.5 53.5t62 -45q0 -5 -1 -7q-71 -28 -129.5 -75.5t-58.5 -72.5q0 -16 27 -16zM384 523q0 16 44 48.5t102 56.5q-18 -41 -59 -77.5t-71 -36.5q-16 0 -16 9zM508 779q-5 2 -5 6q1 4 9 12l79 65q4 4 10 4q14 0 14 -14q0 -7 -6 -13l-85 -54q-12 -6 -16 -6z" />
    <glyph glyph-name="Ecircumflex" unicode="&#xca;" horiz-adv-x="400" 
d="M378 495q-27 0 -27 16q0 25 58.5 72.5t129.5 75.5q1 2 1 7q0 45 -62 45t-152.5 -53.5t-158.5 -126t-68 -122.5q0 -63 116 -63q68 0 117 32q3 4 7 4q7 0 7 -10.5t-7 -13.5q-125 -57 -207 -130q-35 -31 -63.5 -77.5t-28.5 -86t20.5 -65t76.5 -25.5q19 1 43 6t81 34t109 77
q8 10 13 10q6 -1 6 -8q0 -17 -47 -52t-117.5 -65t-123.5 -30q-76 0 -104 52q-11 21 -11 48q0 66 76.5 148.5t198.5 138.5q-47 -10 -87 -10q-126 0 -126 70q0 43 47 103.5t113.5 112.5t144 89.5t132.5 37.5q85 0 85 -58q0 -6 -1 -9q44 14 66 14t28 -1.5t6 -12.5t-8 -13
q-46 0 -100 -17q-22 -53 -77.5 -98.5t-105.5 -45.5zM384 523q0 -9 16 -9q30 0 71 36.5t59 77.5q-58 -24 -102 -56.5t-44 -48.5zM500 820q-112 -55 -121 -55t-9 4.5t67 44.5t75 40t24.5 -42t20.5 -51q-3 -6 -8 -6q-8 0 -39 49z" />
    <glyph glyph-name="Edieresis" unicode="&#xcb;" horiz-adv-x="400" 
d="M378 495q-27 0 -27 16q0 25 58.5 72.5t129.5 75.5q1 2 1 7q0 45 -62 45t-152.5 -53.5t-158.5 -126t-68 -122.5q0 -63 116 -63q68 0 117 32q3 4 7 4q7 0 7 -10.5t-7 -13.5q-125 -57 -207 -130q-35 -31 -63.5 -77.5t-28.5 -86t20.5 -65t76.5 -25.5q19 1 43 6t81 34t109 77
q8 10 13 10q6 -1 6 -8q0 -17 -47 -52t-117.5 -65t-123.5 -30q-76 0 -104 52q-11 21 -11 48q0 66 76.5 148.5t198.5 138.5q-47 -10 -87 -10q-126 0 -126 70q0 43 47 103.5t113.5 112.5t144 89.5t132.5 37.5q85 0 85 -58q0 -6 -1 -9q44 14 66 14t28 -1.5t6 -12.5t-8 -13
q-46 0 -100 -17q-22 -53 -77.5 -98.5t-105.5 -45.5zM384 523q0 -9 16 -9q30 0 71 36.5t59 77.5q-58 -24 -102 -56.5t-44 -48.5zM468 851q15 0 15 -15t-14 -30.5t-31 -15.5q-14 0 -14 19.5t16 30.5t28 11zM573 841q15 0 15 -15t-14 -30.5t-31 -15.5q-14 0 -14 19.5t16 30.5
t28 11z" />
    <glyph glyph-name="Igrave" unicode="&#xcc;" horiz-adv-x="574" 
d="M-119 1q0 52 79.5 105t196 85.5t224.5 32.5q27 0 59 -3q220 206 220 425q0 59 -39 59q-24 0 -55 -24.5t-59.5 -64.5t-48 -99t-19.5 -124.5t18 -76.5q5 -3 5 -7q-8 -17 -22.5 -17t-23 8.5t-8.5 24.5q0 88 25.5 171.5t62.5 139t78 89.5t73 34q54 0 54 -85q0 -245 -230 -457
q107 -19 107 -75q0 -20 -25.5 -41.5t-41 -22.5t-16.5 3q0 3 11 10q42 26 42 44q0 41 -113 50q-125 -106 -270 -173t-209 -67q-32 0 -50.5 14t-21.5 28zM374 188q-99 0 -203.5 -24t-177 -65t-73.5 -84q3 -37 56 -37q71 0 193 58t233 151q-10 1 -28 1zM724 787q-4 0 -16 6
l-85 54q-6 6 -6 13q0 14 14 14q6 0 10 -4l79 -65q14 -14 4 -18z" />
    <glyph glyph-name="Iacute" unicode="&#xcd;" horiz-adv-x="574" 
d="M-119 1q0 -6 5.5 -17.5t12.5 -19.5q18 -19 57 -19q64 0 209 67t270 173q113 -9 113 -50q0 -18 -42 -44q-11 -7 -11 -10q1 -4 16.5 -3t41 22.5t25.5 41.5q0 56 -107 75q230 212 230 457q0 85 -54 85q-32 0 -73 -34t-78 -89.5t-62.5 -139t-25.5 -171.5q0 -16 8.5 -24.5
t23 -8.5t22.5 17q0 4 -5 7q-18 11 -18 76.5t19.5 124.5t48 99t59.5 64.5t55 24.5q39 0 39 -59q0 -219 -220 -425q-31 3 -59 3q-108 0 -224.5 -32.5t-196 -85.5t-79.5 -105zM374 188q18 0 28 -1q-111 -93 -233 -151t-193 -58q-53 0 -56 37q1 43 73.5 84t177 65t203.5 24z
M675 788q-5 2 -5 6q1 4 9 12l79 65q4 4 10 4q14 0 14 -14q0 -7 -6 -13l-85 -54q-12 -6 -16 -6z" />
    <glyph glyph-name="Icircumflex" unicode="&#xce;" horiz-adv-x="574" 
d="M-119 1q0 52 79.5 105t196 85.5t224.5 32.5q27 0 59 -3q220 206 220 425q0 59 -39 59q-24 0 -55 -24.5t-59.5 -64.5t-48 -99t-19.5 -124.5t18 -76.5q5 -3 5 -7q-8 -17 -22.5 -17t-23 8.5t-8.5 24.5q0 88 25.5 171.5t62.5 139t78 89.5t73 34q54 0 54 -85q0 -245 -230 -457
q107 -19 107 -75q0 -20 -25.5 -41.5t-41 -22.5t-16.5 3q0 3 11 10q42 26 42 44q0 41 -113 50q-125 -106 -270 -173t-209 -67q-32 0 -50.5 14t-21.5 28zM374 188q-99 0 -203.5 -24t-177 -65t-73.5 -84q3 -37 56 -37q71 0 193 58t233 151q-10 1 -28 1zM694 832
q-112 -55 -121 -55t-9 4.5t67 44.5t75 40t24.5 -42t20.5 -51q-3 -6 -8 -6q-8 0 -39 49z" />
    <glyph glyph-name="Idieresis" unicode="&#xcf;" horiz-adv-x="574" 
d="M-119 1q0 52 79.5 105t196 85.5t224.5 32.5q27 0 59 -3q220 206 220 425q0 59 -39 59q-24 0 -55 -24.5t-59.5 -64.5t-48 -99t-19.5 -124.5t18 -76.5q5 -3 5 -7q-8 -17 -22.5 -17t-23 8.5t-8.5 24.5q0 88 25.5 171.5t62.5 139t78 89.5t73 34q54 0 54 -85q0 -245 -230 -457
q107 -19 107 -75q0 -20 -25.5 -41.5t-41 -22.5t-16.5 3q0 3 11 10q42 26 42 44q0 41 -113 50q-125 -106 -270 -173t-209 -67q-32 0 -50.5 14t-21.5 28zM374 188q-99 0 -203.5 -24t-177 -65t-73.5 -84q3 -37 56 -37q71 0 193 58t233 151q-10 1 -28 1zM638 868q15 0 15 -15
t-14 -30.5t-31 -15.5q-14 0 -14 19.5t16 30.5t28 11zM743 858q15 0 15 -15t-14 -30.5t-31 -15.5q-14 0 -14 19.5t16 30.5t28 11z" />
    <glyph glyph-name="Eth" unicode="&#xd0;" horiz-adv-x="584" 
d="M558 84q0 -39 -53 -52q-3 0 -3 4t7 9q20 15 20 33q0 35 -58 52q-97 -88 -203 -140.5t-199 -52.5q-71 0 -71 49.5t64 92t153 64.5t154 22t97 -7q98 95 160 198.5t62 182t-58.5 121.5t-176.5 43t-244.5 -42.5t-214.5 -111.5t-88 -136q0 -38 47 -38q67 0 132 33.5t170 121.5
q13 15 19 15q10 0 10 -7q0 -2 -7 -14q-26 -26 -73 -63t-87 -62t-90.5 -45t-91.5 -20q-71 0 -71 63q0 71 101.5 152t247.5 134.5t271 53.5t185 -47t60 -131t-65.5 -196t-169.5 -212q64 -20 64 -67zM442 136q-33 5 -86.5 5t-127.5 -17t-127.5 -53t-53.5 -81q0 -33 43 -33
q76 0 169.5 49t182.5 130zM442 646q0 -8 -182 -325h37q76 -1 76 -5.5t-10.5 -12.5t-24.5 -7t-91 1l-76 -131q-6 -13 -22 -20t-24.5 -7t-8.5 4.5t86 153.5q-52 -1 -113 -9q-5 0 -5 3l14 17q18 7 117 11q178 307 177 308q6 10 20 15l25 8z" />
    <glyph glyph-name="Ntilde" unicode="&#xd1;" horiz-adv-x="521" 
d="M368 25q0 29 239 494q3 6 3 12t-11.5 11.5t-18.5 5.5q-37 -37 -224.5 -249.5t-191.5 -214.5q78 117 154 274q32 64 57.5 139.5t25.5 125.5q0 97 -93 97q-79 0 -162.5 -31t-145 -76t-101 -96t-39.5 -91q0 -74 127 -74q51 0 105 25t91 59t61 66.5t24 45t-3 12.5l-8 -6
q-32 -60 -108.5 -112.5t-163.5 -52.5t-87 54q0 45 59 106.5t152.5 108.5t177.5 47q72 0 72 -83q0 -50 -25.5 -127t-61.5 -152q-76 -158 -134 -253l-25 -42q-8 -12 -8 -21t11 -9l22 6q408 459 422 473l13 14q-246 -447 -246 -501q0 -26 25 -26t72 23t82 46l35 23q9 4 9 13
l-1 5q-122 -79 -168 -79q-13 0 -13 10zM644 742q0 -15 -15.5 -26t-34.5 -11t-51 18.5t-44.5 18.5t-25.5 -9.5t-18 -9.5l-2 1q0 7 18.5 24t37.5 17t53 -20.5t46.5 -20.5t22.5 10.5t11.5 10.5t1.5 -3z" />
    <glyph glyph-name="Ograve" unicode="&#xd2;" horiz-adv-x="434" 
d="M418 704q5 0 7 -6q0 -8 -12 -10q-56 -19 -119.5 -69t-120 -120.5t-94 -166.5t-37.5 -194q0 -133 94 -133q55 0 128.5 48.5t138 122t109.5 172.5t45 190.5t-63 91.5q-51 0 -120 -54.5t-120.5 -138t-51.5 -157t51 -73.5q32 0 72.5 30.5t72.5 81.5q4 8 9.5 8t5.5 -6
q0 -28 -69.5 -88t-119.5 -60q-59 0 -59 95q0 74 62 168.5t146 159.5t145 65q80 0 80 -119q0 -90 -52 -193.5t-126.5 -184t-159.5 -134.5t-149 -54q-111 0 -111 158q0 96 38 189.5t92.5 159.5t115 118t107 77.5t65.5 25.5zM616 696q-4 0 -16 6l-85 54q-6 6 -6 13q0 14 14 14
q6 0 10 -4l79 -65q14 -14 4 -18z" />
    <glyph glyph-name="Oacute" unicode="&#xd3;" horiz-adv-x="434" 
d="M413 321q0 6 -6 6q-5 0 -9 -8q-32 -51 -72.5 -81.5t-72.5 -30.5q-51 0 -51 73.5t51.5 157t120.5 138t120 54.5q63 0 63 -91.5t-45 -190.5t-109.5 -172.5t-138 -122t-128.5 -48.5q-94 0 -94 133q0 98 37.5 194t94 166.5t120 120.5t119.5 69q12 2 12 10q-1 6 -13.5 6
t-59 -25.5t-107 -77.5t-115 -118t-92.5 -159.5t-38 -189.5q0 -158 111 -158q64 0 149 54t159.5 134.5t126.5 184t52 193.5q0 119 -80 119q-61 0 -145 -65t-146 -159.5t-62 -168.5q0 -95 59 -95q50 0 119.5 60t69.5 88zM529 705q-5 2 -5 6q1 4 9 12l79 65q4 4 10 4
q14 0 14 -14q0 -7 -6 -13l-85 -54q-12 -6 -16 -6z" />
    <glyph glyph-name="Ocircumflex" unicode="&#xd4;" horiz-adv-x="434" 
d="M418 704q5 0 7 -6q0 -8 -12 -10q-56 -19 -119.5 -69t-120 -120.5t-94 -166.5t-37.5 -194q0 -133 94 -133q55 0 128.5 48.5t138 122t109.5 172.5t45 190.5t-63 91.5q-51 0 -120 -54.5t-120.5 -138t-51.5 -157t51 -73.5q32 0 72.5 30.5t72.5 81.5q4 8 9.5 8t5.5 -6
q0 -28 -69.5 -88t-119.5 -60q-59 0 -59 95q0 74 62 168.5t146 159.5t145 65q80 0 80 -119q0 -90 -52 -193.5t-126.5 -184t-159.5 -134.5t-149 -54q-111 0 -111 158q0 96 38 189.5t92.5 159.5t115 118t107 77.5t65.5 25.5zM564 784q-112 -55 -121 -55t-9 4.5t67 44.5t75 40
t24.5 -42t20.5 -51q-3 -6 -8 -6q-8 0 -39 49z" />
    <glyph glyph-name="Otilde" unicode="&#xd5;" horiz-adv-x="434" 
d="M413 321q0 6 -6 6q-5 0 -9 -8q-32 -51 -72.5 -81.5t-72.5 -30.5q-51 0 -51 73.5t51.5 157t120.5 138t120 54.5q63 0 63 -91.5t-45 -190.5t-109.5 -172.5t-138 -122t-128.5 -48.5q-94 0 -94 133q0 98 37.5 194t94 166.5t120 120.5t119.5 69q12 2 12 10q-1 6 -13.5 6
t-59 -25.5t-107 -77.5t-115 -118t-92.5 -159.5t-38 -189.5q0 -158 111 -158q64 0 149 54t159.5 134.5t126.5 184t52 193.5q0 119 -80 119q-61 0 -145 -65t-146 -159.5t-62 -168.5q0 -95 59 -95q50 0 119.5 60t69.5 88zM652 784q0 -15 -15.5 -26t-34.5 -11t-51 18.5
t-44.5 18.5t-25.5 -9.5t-18 -9.5l-2 1q0 7 18.5 24t37.5 17t53 -20.5t46.5 -20.5t22.5 10.5t11.5 10.5t1.5 -3z" />
    <glyph glyph-name="Odieresis" unicode="&#xd6;" horiz-adv-x="434" 
d="M418 704q5 0 7 -6q0 -8 -12 -10q-56 -19 -119.5 -69t-120 -120.5t-94 -166.5t-37.5 -194q0 -133 94 -133q55 0 128.5 48.5t138 122t109.5 172.5t45 190.5t-63 91.5q-51 0 -120 -54.5t-120.5 -138t-51.5 -157t51 -73.5q32 0 72.5 30.5t72.5 81.5q4 8 9.5 8t5.5 -6
q0 -28 -69.5 -88t-119.5 -60q-59 0 -59 95q0 74 62 168.5t146 159.5t145 65q80 0 80 -119q0 -90 -52 -193.5t-126.5 -184t-159.5 -134.5t-149 -54q-111 0 -111 158q0 96 38 189.5t92.5 159.5t115 118t107 77.5t65.5 25.5zM498 818q15 0 15 -15t-14 -30.5t-31 -15.5
q-14 0 -14 19.5t16 30.5t28 11zM603 808q15 0 15 -15t-14 -30.5t-31 -15.5q-14 0 -14 19.5t16 30.5t28 11z" />
    <glyph glyph-name="multiply" unicode="&#xd7;" horiz-adv-x="400" 
d="M313 424q-1 -3 -1 -4l-143 -115l108 -126q3 -5 3 -6q0 -7 -11 -7t-17 8q-9 5 -103 115l-143 -115q-4 -3 -8 -3q-8 0 -8 10.5t7 17.5l135 109q-71 80 -86 102q-8 9 -8 19.5t11 10.5l5 -1l98 -115l117 95q19 14 31.5 14t12.5 -9z" />
    <glyph glyph-name="Oslash" unicode="&#xd8;" horiz-adv-x="434" 
d="M418 704q5 0 7 -6q0 -8 -12 -10q-56 -19 -119.5 -69t-120 -120.5t-94 -166.5t-37.5 -191t47 -124l97 171q-21 24 -21 80q0 92 90.5 208t187.5 164l64 113q11 20 21.5 20t10.5 -3t-62 -116q20 7 41 7q80 0 80 -119q0 -90 -52 -193.5t-126.5 -184t-159.5 -134t-149 -53.5
q-10 0 -15 1l-37 -67q-4 -8 -12.5 -16.5t-13.5 -8.5q-9 0 -9 10q0 6 4 14l42 74q-70 26 -70 150q0 96 38 189.5t92.5 159.5t115 118t107 77.5t65.5 25.5zM398 319q4 8 9.5 8t5.5 -6q0 -28 -69.5 -88t-119.5 -60q-6 0 -16 2q-8 -13 -95 -168q7 -2 22 -2q55 0 128.5 48
t138.5 122t110 173t45 190.5t-64 91.5q-15 0 -33 -6l-231 -411q11 -6 24 -6q32 0 72.5 30.5t72.5 81.5zM202 281q0 -31 9 -49l214 377q-81 -44 -152 -142.5t-71 -185.5z" />
    <glyph glyph-name="Ugrave" unicode="&#xd9;" 
d="M362 15q20 0 62 19.5t74 39.5l32 20q1 -2 1 -8t-9 -10q-135 -92 -188 -92q-35 0 -35 44q0 79 101 226q-38 -46 -107 -113q-138 -134 -200 -134q-24 0 -37 16.5t-13 36.5q0 43 41.5 121.5t92 151t92 148.5t41.5 116t-32 62t-87 22t-129 -29.5t-129.5 -72t-92.5 -88.5
t-37 -79q0 -47 76 -47t157 57t142 141q5 8 10 8h1q5 -3 5 -8q0 -24 -52 -81t-132 -108t-142 -51q-95 0 -95 65q0 40 37.5 93t96.5 100.5t141 80.5t151.5 33t111.5 -25.5t42 -86.5q0 -62 -132 -255q-49 -71 -90 -147t-41 -111.5t26 -35.5q23 0 64 29.5t84 70.5q86 85 144 156
l25 29l89 122q7 11 20 11l17 -1q6 0 6 -4t-109.5 -174.5t-109.5 -233.5q0 -11 4 -17t12 -7zM550 572q-4 0 -16 6l-85 54q-6 6 -6 13q0 14 14 14q6 0 10 -4l79 -65q14 -14 4 -18z" />
    <glyph glyph-name="Uacute" unicode="&#xda;" 
d="M362 15q20 0 62 19.5t74 39.5l32 20q1 -2 1 -8t-9 -10q-135 -92 -188 -92q-35 0 -35 44q0 79 101 226q-38 -46 -107 -113q-138 -134 -200 -134q-24 0 -37 16.5t-13 36.5q0 43 41.5 121.5t92 151t92 148.5t41.5 116t-32 62t-87 22t-129 -29.5t-129.5 -72t-92.5 -88.5
t-37 -79q0 -47 76 -47t157 57t142 141q5 8 10 8h1q5 -3 5 -8q0 -24 -52 -81t-132 -108t-142 -51q-95 0 -95 65q0 40 37.5 93t96.5 100.5t141 80.5t151.5 33t111.5 -25.5t42 -86.5q0 -62 -132 -255q-49 -71 -90 -147t-41 -111.5t26 -35.5q23 0 64 29.5t84 70.5q86 85 144 156
l25 29l89 122q7 11 20 11l17 -1q6 0 6 -4t-109.5 -174.5t-109.5 -233.5q0 -11 4 -17t12 -7zM490 601q-5 2 -5 6q1 4 9 12l79 65q4 4 10 4q14 0 14 -14q0 -7 -6 -13l-85 -54q-12 -6 -16 -6z" />
    <glyph glyph-name="Ucircumflex" unicode="&#xdb;" 
d="M362 15q20 0 62 19.5t74 39.5l32 20q1 -2 1 -8t-9 -10q-135 -92 -188 -92q-35 0 -35 44q0 79 101 226q-38 -46 -107 -113q-138 -134 -200 -134q-24 0 -37 16.5t-13 36.5q0 43 41.5 121.5t92 151t92 148.5t41.5 116t-32 62t-87 22t-129 -29.5t-129.5 -72t-92.5 -88.5
t-37 -79q0 -47 76 -47t157 57t142 141q5 8 10 8h1q5 -3 5 -8q0 -24 -52 -81t-132 -108t-142 -51q-95 0 -95 65q0 40 37.5 93t96.5 100.5t141 80.5t151.5 33t111.5 -25.5t42 -86.5q0 -62 -132 -255q-49 -71 -90 -147t-41 -111.5t26 -35.5q23 0 64 29.5t84 70.5q86 85 144 156
l25 29l89 122q7 11 20 11l17 -1q6 0 6 -4t-109.5 -174.5t-109.5 -233.5q0 -11 4 -17t12 -7zM535 659q-112 -55 -121 -55t-9 4.5t67 44.5t75 40t24.5 -42t20.5 -51q-3 -6 -8 -6q-10 0 -39 48z" />
    <glyph glyph-name="Udieresis" unicode="&#xdc;" 
d="M362 15q20 0 62 19.5t74 39.5l32 20q1 -2 1 -8t-9 -10q-135 -92 -188 -92q-35 0 -35 44q0 79 101 226q-38 -46 -107 -113q-138 -134 -200 -134q-24 0 -37 16.5t-13 36.5q0 43 41.5 121.5t92 151t92 148.5t41.5 116t-32 62t-87 22t-129 -29.5t-129.5 -72t-92.5 -88.5
t-37 -79q0 -47 76 -47t157 57t142 141q5 8 10 8h1q5 -3 5 -8q0 -24 -52 -81t-132 -108t-142 -51q-95 0 -95 65q0 40 37.5 93t96.5 100.5t141 80.5t151.5 33t111.5 -25.5t42 -86.5q0 -62 -132 -255q-49 -71 -90 -147t-41 -111.5t26 -35.5q23 0 64 29.5t84 70.5q86 85 144 156
l25 29l89 122q7 11 20 11l17 -1q6 0 6 -4t-109.5 -174.5t-109.5 -233.5q0 -11 4 -17t12 -7zM584 689q15 0 15 -15t-14 -30.5t-31 -15.5q-14 0 -14 19.5t16 30.5t28 11zM479 699q15 0 15 -15t-14 -30.5t-31 -15.5q-14 0 -14 19.5t16 30.5t28 11z" />
    <glyph glyph-name="Yacute" unicode="&#xdd;" horiz-adv-x="465" 
d="M361 620q0 -53 -26.5 -115t-64.5 -116.5l-76 -106.5q-91 -123 -91 -182q0 -18 10.5 -29.5t29.5 -11.5q95 0 332 259q35 37 53 66l6 8q7 11 14 11q24 -3 24 -15q0 -4 -3 -9l-46 -74l-84 -137l-122 -197q54 13 109 13t57 -31q0 -17 -14 -28q-23 -18 -36 -18t-13 3t8 7
t11.5 6.5l7.5 5.5q9 7 9 13q0 14 -50 14t-109 -16q-244 -382 -334 -382q-26 0 -26 32q0 71 97.5 191.5t233.5 173.5l100.5 173.5l79.5 137.5q-72 -81 -158 -150q-37 -31 -83.5 -56t-80.5 -25q-13 0 -24.5 3t-24 17.5t-12.5 49t26 89t63.5 106l75.5 102.5q89 120 89 192
q0 57 -27.5 83t-91.5 26t-134.5 -29.5t-121 -72t-82.5 -88t-32 -78.5q0 -46 60 -46q147 0 284 184q5 10 9.5 10t4.5 -12t-29.5 -49t-72.5 -77t-101 -70t-107 -30q-86 0 -86 65q0 41 36 94.5t94 102.5t141.5 82.5t168.5 33.5q36 0 62.5 -10.5t39.5 -25.5q23 -29 26 -57z
M-28 -376q0 -21 15 -21q69 0 262 320q-119 -48 -198 -146t-79 -153zM489 562q-5 2 -5 6q1 4 9 12l79 65q4 4 10 4q14 0 14 -14q0 -7 -6 -13l-85 -54q-12 -6 -16 -6z" />
    <glyph glyph-name="Thorn" unicode="&#xde;" horiz-adv-x="331" 
d="M514 750q0 -4 -53 -98h1q190 0 190 -104q0 -63 -68 -146t-181 -158t-234 -115l-71 -124.5t-25 -23.5t-24.5 -7t-8.5 5l76 135q-40 -10 -80 -15q-6 0 -6 12.5t11 13.5q41 3 89 14l269 478q-105 -6 -229 -54.5t-211.5 -120t-87.5 -134.5q0 -56 70 -56q59 0 139.5 41.5
t144.5 110.5q8 13 14.5 13t6.5 -7q0 -23 -59 -70.5t-142 -87t-139 -39.5q-77 0 -77 79q0 65 97 145.5t236 140.5t256 71l48 86q3 8 18 13.5t25 5.5zM183 155q158 54 289 168.5t131 199.5q0 90 -161 94z" />
    <glyph glyph-name="germandbls" unicode="&#xdf;" horiz-adv-x="315" 
d="M-143 -328q-6 -24 -27.5 -24t-21.5 14q0 25 66.5 160t154 289.5t183 279t143.5 124.5q8 0 13.5 -8t5.5 -17q0 -24 -43.5 -91.5t-117.5 -155.5q25 5 40 5q62 0 62 -55q0 -58 -63 -151.5t-151.5 -166.5t-153.5 -75q-8 0 -13.5 4.5t-5.5 9.5q0 12 24 12q55 1 134.5 68
t137 151.5t57.5 134.5q0 42 -46 42q-18 0 -42 -6q-10 -7 -17 -7q-10 0 -10 5.5t15 13.5q156 186 156 247q0 5 -7 5q-25 0 -143.5 -177t-227.5 -374t-109 -246q0 -4 3.5 -6t3.5 -5z" />
    <glyph glyph-name="agrave" unicode="&#xe0;" horiz-adv-x="303" 
d="M189 119q-6 0 -6 7l3 7q18 17 18 29q0 15 -16 15q-35 0 -94.5 -48.5t-59.5 -86.5q0 -16 21 -16t48.5 17.5t47 35t21.5 17.5q10 -1 10 -10q0 -4 -15.5 -26t-15.5 -35q0 -10 16.5 -10t58.5 19.5t74 39.5l32 20q1 -2 1 -8t-9 -10q-135 -92 -188 -92q-26 0 -26 26q0 11 4 23
q-7 -8 -41.5 -24.5t-61.5 -16.5t-27 25q0 59 82 120.5t138 61.5q33 0 33 -28q0 -16 -20 -34t-28 -18zM270 215q-4 0 -16 6l-85 54q-6 6 -6 13q0 14 14 14q6 0 10 -4l79 -65q14 -14 4 -18z" />
    <glyph glyph-name="aacute" unicode="&#xe1;" horiz-adv-x="303" 
d="M189 119q8 0 28 18t20 34q0 28 -33 28q-56 0 -138 -61.5t-82 -120.5q0 -25 27 -25t61.5 16.5t41.5 24.5q-4 -12 -4 -23q0 -26 25 -26t72 23t82 46l35 23q9 4 9 13l-1 5q-122 -79 -168 -79q-13 0 -13 10q0 13 15.5 35t15.5 26q0 9 -10 10q-2 0 -22 -18q-58 -52 -96 -52
q-20 0 -20 16q0 38 59.5 86.5t94.5 48.5q16 0 16 -15q0 -12 -18 -29q-3 -3 -3 -7q0 -7 6 -7zM215 236q-5 2 -5 6q1 4 9 12l79 65q4 4 10 4q14 0 14 -14q0 -7 -6 -13l-85 -54q-12 -6 -16 -6z" />
    <glyph glyph-name="acircumflex" unicode="&#xe2;" horiz-adv-x="303" 
d="M189 119q-6 0 -6 7l3 7q18 17 18 29q0 15 -16 15q-35 0 -94.5 -48.5t-59.5 -86.5q0 -16 21 -16t48.5 17.5t47 35t21.5 17.5q10 -1 10 -10q0 -4 -15.5 -26t-15.5 -35q0 -10 16.5 -10t58.5 19.5t74 39.5l32 20q1 -2 1 -8t-9 -10q-135 -92 -188 -92q-26 0 -26 26q0 11 4 23
q-7 -8 -41.5 -24.5t-61.5 -16.5t-27 25q0 59 82 120.5t138 61.5q33 0 33 -28q0 -16 -20 -34t-28 -18zM229 272q-112 -55 -121 -55t-9 4.5t67 44.5t75 40t24.5 -42t20.5 -51q-3 -6 -8 -6q-8 0 -39 49z" />
    <glyph glyph-name="atilde" unicode="&#xe3;" horiz-adv-x="303" 
d="M189 119q8 0 28 18t20 34q0 28 -33 28q-56 0 -138 -61.5t-82 -120.5q0 -25 27 -25t61.5 16.5t41.5 24.5q-4 -12 -4 -23q0 -26 25 -26t72 23t82 46l35 23q9 4 9 13l-1 5q-122 -79 -168 -79q-13 0 -13 10q0 13 15.5 35t15.5 26q0 9 -10 10q-2 0 -22 -18q-58 -52 -96 -52
q-20 0 -20 16q0 38 59.5 86.5t94.5 48.5q16 0 16 -15q0 -12 -18 -29q-3 -3 -3 -7q0 -7 6 -7zM288 279q0 -15 -15.5 -26t-34.5 -11t-51 18.5t-44.5 18.5t-25.5 -9.5t-18 -9.5l-2 1q0 7 18.5 24t37.5 17t53 -20.5t46.5 -20.5t22.5 10.5t11.5 10.5t1.5 -3z" />
    <glyph glyph-name="adieresis" unicode="&#xe4;" horiz-adv-x="303" 
d="M189 119q-6 0 -6 7l3 7q18 17 18 29q0 15 -16 15q-35 0 -94.5 -48.5t-59.5 -86.5q0 -16 21 -16t48.5 17.5t47 35t21.5 17.5q10 -1 10 -10q0 -4 -15.5 -26t-15.5 -35q0 -10 16.5 -10t58.5 19.5t74 39.5l32 20q1 -2 1 -8t-9 -10q-135 -92 -188 -92q-26 0 -26 26q0 11 4 23
q-7 -8 -41.5 -24.5t-61.5 -16.5t-27 25q0 59 82 120.5t138 61.5q33 0 33 -28q0 -16 -20 -34t-28 -18zM284 295q15 0 15 -15t-14 -30.5t-31 -15.5q-14 0 -14 19.5t16 30.5t28 11zM179 305q15 0 15 -15t-14 -30.5t-31 -15.5q-14 0 -14 19.5t16 30.5t28 11z" />
    <glyph glyph-name="aring" unicode="&#xe5;" horiz-adv-x="303" 
d="M189 119q8 0 28 18t20 34q0 28 -33 28q-56 0 -138 -61.5t-82 -120.5q0 -25 27 -25t61.5 16.5t41.5 24.5q-4 -12 -4 -23q0 -26 25 -26t72 23t82 46l35 23q9 4 9 13l-1 5q-122 -79 -168 -79q-13 0 -13 10q0 13 15.5 35t15.5 26q0 9 -10 10q-2 0 -22 -18q-58 -52 -96 -52
q-20 0 -20 16q0 38 59.5 86.5t94.5 48.5q16 0 16 -15q0 -12 -18 -29q-3 -3 -3 -7q0 -7 6 -7zM224.5 232q-8.5 9 -8.5 23.5t15 35.5t35 21q37 0 37 -34q0 -19 -18.5 -37t-35 -18t-25 9zM267 293q-14 0 -23 -11.5t-9 -20.5t5 -14.5t15 -5.5t19.5 10.5t9.5 22.5q0 19 -17 19z
" />
    <glyph glyph-name="ae" unicode="&#xe6;" horiz-adv-x="418" 
d="M136 -16q-26 0 -26 26q0 11 4 23q-7 -8 -41.5 -24.5t-61.5 -16.5t-27 25q0 59 82 120.5t138 61.5q24 0 31 -17q80 57 150 57q29 0 29 -18q0 -10 -15 -22t-29 -19t-16 -7q-6 0 -8 5q-2 7 10.5 14.5t12.5 16.5t-22.5 9t-70.5 -31.5t-48 -51.5q0 -15 35 -15q6 0 22 1t16 -4
t-49.5 -36t-49.5 -53q0 -25 32.5 -25t73.5 17q66 29 120 62l19 12q1 -2 1 -8t-9 -10q-53 -36 -116 -68.5t-119 -32.5q-29 0 -40 15q-16 -6 -28 -6zM246 97q-60 0 -60 26q0 13 17 32q1 2 1 7q0 15 -16 15q-35 0 -94.5 -48.5t-59.5 -86.5q0 -16 21 -16t48.5 17.5t47 35
t21.5 17.5q10 -1 10 -10q0 -4 -15.5 -26t-15.5 -33.5t9 -11.5q7 33 86 82z" />
    <glyph glyph-name="ccedilla" unicode="&#xe7;" horiz-adv-x="240" 
d="M147 28q48 20 103 54l19 12q1 -2 1 -8t-9 -10q-53 -36 -104.5 -62.5t-98.5 -27.5l-13 -19q20 -5 20 -23q-2 -28 -31 -42t-59 -14q-7 0 -7 4.5t4 4.5q24 0 46.5 11.5t23.5 30.5q0 19 -22 19q1 2 21 29q-41 6 -41 40q0 49 68.5 110.5t135.5 61.5q28 0 28 -24q0 -14 -25 -35
q-35 -29 -44 -29t-9 8q0 3 4 6q10 6 22.5 18.5t12.5 21.5q0 14 -13 14q-28 0 -82 -50.5t-54 -81.5q0 -35 38 -35q25 0 55 12z" />
    <glyph glyph-name="egrave" unicode="&#xe8;" horiz-adv-x="228" 
d="M56 97q-60 0 -60 26q0 31 71 73.5t128 42.5q29 0 29 -18q0 -10 -15 -22t-29 -19t-16 -7q-6 0 -8 5q-2 7 10.5 14.5t12.5 16.5t-22.5 9t-70.5 -31.5t-48 -51.5q0 -15 35 -15q6 0 22 1t16 -4t-49.5 -36t-49.5 -53q0 -25 32.5 -25t73.5 17q66 29 120 62l19 12q1 -2 1 -8
t-9 -10q-53 -36 -116 -68.5t-113.5 -32.5t-50.5 33.5t87 88.5zM215 283q-4 0 -16 6l-85 54q-6 6 -6 13q0 14 14 14q6 0 10 -4l79 -65q14 -14 4 -18z" />
    <glyph glyph-name="eacute" unicode="&#xe9;" horiz-adv-x="228" 
d="M56 97q-87 -55 -87 -88.5t51 -33.5q75 0 214 91l15 10q9 4 9 13l-1 5q-68 -44 -124 -67.5t-88.5 -23.5t-32.5 25q0 22 49.5 53t49.5 36t-16 4t-22 -1q-35 0 -35 15q0 20 48 51.5t70.5 31.5t22.5 -10q0 -6 -17 -19q-7 -3 -7 -8q3 -8 9 -8q2 0 16 7t29 19t15 22
q0 18 -29 18q-57 0 -128 -42.5t-71 -73.5q0 -26 60 -26zM144 277q-5 2 -5 6q1 4 9 12l79 65q4 4 10 4q14 0 14 -14q0 -7 -6 -13l-85 -54q-12 -6 -16 -6z" />
    <glyph glyph-name="ecircumflex" unicode="&#xea;" horiz-adv-x="228" 
d="M56 97q-60 0 -60 26q0 31 71 73.5t128 42.5q29 0 29 -18q0 -10 -15 -22t-29 -19t-16 -7q-6 0 -8 5q-2 7 10.5 14.5t12.5 16.5t-22.5 9t-70.5 -31.5t-48 -51.5q0 -15 35 -15q6 0 22 1t16 -4t-49.5 -36t-49.5 -53q0 -25 32.5 -25t73.5 17q66 29 120 62l19 12q1 -2 1 -8
t-9 -10q-53 -36 -116 -68.5t-113.5 -32.5t-50.5 33.5t87 88.5zM190 321q-112 -55 -121 -55t-9 4.5t67 44.5t75 40t24.5 -42t20.5 -51q-3 -6 -8 -6q-10 0 -39 48z" />
    <glyph glyph-name="edieresis" unicode="&#xeb;" horiz-adv-x="228" 
d="M56 97q-60 0 -60 26q0 31 71 73.5t128 42.5q29 0 29 -18q0 -10 -15 -22t-29 -19t-16 -7q-6 0 -8 5q-2 7 10.5 14.5t12.5 16.5t-22.5 9t-70.5 -31.5t-48 -51.5q0 -15 35 -15q6 0 22 1t16 -4t-49.5 -36t-49.5 -53q0 -25 32.5 -25t73.5 17q66 29 120 62l19 12q1 -2 1 -8
t-9 -10q-53 -36 -116 -68.5t-113.5 -32.5t-50.5 33.5t87 88.5zM129 352q15 0 15 -15t-14 -30.5t-31 -15.5q-14 0 -14 19.5t16 30.5t28 11zM234 342q15 0 15 -15t-14 -30.5t-31 -15.5q-14 0 -14 19.5t16 30.5t28 11z" />
    <glyph glyph-name="igrave" unicode="&#xec;" horiz-adv-x="183" 
d="M85 173q5 8 14 8t18 -9q0 -4 -13 -18t-44 -62.5t-31 -64.5q0 -10 15 -12q20 0 62 19.5t74 39.5l32 20q1 -2 1 -8t-9 -10q-135 -92 -188 -92q-26 0 -26 26t28.5 72.5t66.5 90.5zM158 209q-4 0 -16 6l-85 54q-6 6 -6 13q0 14 14 14q6 0 10 -4l79 -65q14 -14 4 -18z" />
    <glyph glyph-name="iacute" unicode="&#xed;" horiz-adv-x="183" 
d="M29 27q0 16 31 64.5t44 62.5t13 18q-7 9 -15 9q-11 0 -17 -8q-38 -44 -66.5 -90.5t-28.5 -72.5t25 -26t72 23t82 46l35 23q9 4 9 13l-1 5q-122 -79 -168 -79q-15 0 -15 12zM130 224q-5 2 -5 6q1 4 9 12l79 65q4 4 10 4q14 0 14 -14q0 -7 -6 -13l-85 -54q-12 -6 -16 -6z
" />
    <glyph glyph-name="icircumflex" unicode="&#xee;" horiz-adv-x="183" 
d="M85 173q5 8 14 8t18 -9q0 -4 -13 -18t-44 -62.5t-31 -64.5q0 -10 15 -12q20 0 62 19.5t74 39.5l32 20q1 -2 1 -8t-9 -10q-135 -92 -188 -92q-26 0 -26 26t28.5 72.5t66.5 90.5zM149 263q-112 -55 -121 -55t-9 4.5t67 44.5t75 40t24.5 -42t20.5 -51q-3 -6 -8 -6
q-10 0 -39 48z" />
    <glyph glyph-name="idieresis" unicode="&#xef;" horiz-adv-x="183" 
d="M85 173q5 8 14 8t18 -9q0 -4 -13 -18t-44 -62.5t-31 -64.5q0 -10 15 -12q20 0 62 19.5t74 39.5l32 20q1 -2 1 -8t-9 -10q-135 -92 -188 -92q-26 0 -26 26t28.5 72.5t66.5 90.5zM115 305q15 0 15 -15t-14 -30.5t-31 -15.5q-14 0 -14 19.5t16 30.5t28 11zM220 295
q15 0 15 -15t-14 -30.5t-31 -15.5q-14 0 -14 19.5t16 30.5t28 11z" />
    <glyph glyph-name="eth" unicode="&#xf0;" horiz-adv-x="275" 
d="M165 291l85 24q56 86 112 144t89 58q8 0 13 -8.5t5 -16.5q0 -30 -84 -148q28 5 39 5t11 -2q0 -7 -8.5 -16t-18.5 -10l-45 -7q-94 -126 -189 -220q-7 -27 -7 -58t26 -31q7 0 23.5 7.5t19 7.5t2.5 -2q0 -12 -21 -25t-42 -13q-42 0 -42 56q0 13 1 20q-80 -70 -122.5 -70
t-42.5 29q0 43 73.5 107.5t139.5 73.5q23 44 53 95q-12 -3 -75 -21q-5 0 -5 2t3 7q6 12 7 12zM17 23q0 -15 17 -15q27 0 105 75q13 46 31 85q-49 -12 -101 -64t-52 -81zM432 477q0 8 -6 8q-15 0 -56.5 -47.5t-84.5 -114.5q43 12 77 17q70 101 70 137zM340 310l-71 -12
q-61 -100 -84 -170q82 85 155 182z" />
    <glyph glyph-name="ntilde" unicode="&#xf1;" horiz-adv-x="357" 
d="M0 76q19 11 50 35q76 60 81 60q15 0 15 -13t-15.5 -40t-35 -56t-22.5 -35q1 -1 4.5 -1t39.5 26.5l75 56t46 34t13 4.5q12 -1 12 -14q0 -5 -34 -50.5t-34 -58.5q0 -9 21.5 -9t63.5 19.5t74 39.5l32 20q1 -2 1 -8t-9 -10q-135 -92 -188 -92q-31 0 -31 24q0 23 13.5 44
l23.5 35.5t10 15.5l-109 -79t-71 -46q-6 0 -6 14t39.5 73t39.5 63t-2 4l-10 -5l-50 -40q-5 -4 -19 -13t-17.5 -9t-3.5 4.5t3 6.5zM313 226q0 -15 -15.5 -26t-34.5 -11t-51 18.5t-44.5 18.5t-25.5 -9.5t-18 -9.5l-2 1q0 7 18.5 24t37.5 17t53 -20.5t46.5 -20.5t22.5 10.5
t11.5 10.5t1.5 -3z" />
    <glyph glyph-name="ograve" unicode="&#xf2;" horiz-adv-x="207" 
d="M220 70q-31 -19 -72 -19h-12q-27 -31 -57.5 -50.5t-52.5 -19.5q-31 0 -31 40t43 93q-4 11 -4 27q0 35 30.5 60.5t59.5 25.5q61 0 61 -66q0 -44 -38 -96h12q32 0 55 15q3 3 8 3t5 -3.5t-7 -9.5zM124 185q5 2 8 2t3 -4.5t-11 -12.5q-40 -31 -60 -56q22 -35 67 -46
q39 46 39 86q0 23 -15 35t-38.5 12t-43.5 -13.5t-20 -29t3 -24.5q31 32 68 51zM50 92q-16 -27 -16 -60q0 -18 16 -18q27 0 67 40q-45 8 -67 38zM227 242q-4 0 -16 6l-85 54q-6 6 -6 13q0 14 14 14q6 0 10 -4l79 -65q14 -14 4 -18z" />
    <glyph glyph-name="oacute" unicode="&#xf3;" horiz-adv-x="207" 
d="M220 70q7 6 7 9.5t-5 3.5t-8 -3q-23 -15 -55 -15h-12q38 52 38 90.5t-16 55t-45 16.5t-59.5 -25.5t-30.5 -60.5q0 -16 4 -27q-43 -53 -43 -93t31 -40q22 0 52.5 19.5t57.5 50.5h12q41 0 72 19zM124 185q-37 -19 -68 -51q-3 9 -3 24.5t20 29t43.5 13.5t38.5 -12t15 -35
q0 -40 -39 -86q-45 11 -67 46q20 25 45.5 44.5t25.5 24t-3 4.5zM50 92q22 -30 67 -38q-40 -40 -67 -40q-16 0 -16 18q0 33 16 60zM181 237q-5 2 -5 6q1 4 9 12l79 65q4 4 10 4q14 0 14 -14q0 -7 -6 -13l-85 -54q-12 -6 -16 -6z" />
    <glyph glyph-name="ocircumflex" unicode="&#xf4;" horiz-adv-x="207" 
d="M220 70q-31 -19 -72 -19h-12q-27 -31 -57.5 -50.5t-52.5 -19.5q-31 0 -31 40t43 93q-4 11 -4 27q0 35 30.5 60.5t59.5 25.5q61 0 61 -66q0 -44 -38 -96h12q32 0 55 15q3 3 8 3t5 -3.5t-7 -9.5zM124 185q5 2 8 2t3 -4.5t-11 -12.5q-40 -31 -60 -56q22 -35 67 -46
q39 46 39 86q0 23 -15 35t-38.5 12t-43.5 -13.5t-20 -29t3 -24.5q31 32 68 51zM50 92q-16 -27 -16 -60q0 -18 16 -18q27 0 67 40q-45 8 -67 38zM171 292q-112 -55 -121 -55t-9 4.5t67 44.5t75 40t24.5 -42t20.5 -51q-3 -6 -8 -6q-8 0 -39 49z" />
    <glyph glyph-name="otilde" unicode="&#xf5;" horiz-adv-x="207" 
d="M220 70q7 6 7 9.5t-5 3.5t-8 -3q-23 -15 -55 -15h-12q38 52 38 90.5t-16 55t-45 16.5t-59.5 -25.5t-30.5 -60.5q0 -16 4 -27q-43 -53 -43 -93t31 -40q22 0 52.5 19.5t57.5 50.5h12q41 0 72 19zM124 185q-37 -19 -68 -51q-3 9 -3 24.5t20 29t43.5 13.5t38.5 -12t15 -35
q0 -40 -39 -86q-45 11 -67 46q20 25 45.5 44.5t25.5 24t-3 4.5zM50 92q22 -30 67 -38q-40 -40 -67 -40q-16 0 -16 18q0 33 16 60zM265 289q0 -15 -15.5 -26t-34.5 -11t-51 18.5t-44.5 18.5t-25.5 -9.5t-18 -9.5l-2 1q0 7 18.5 24t37.5 17t53 -20.5t46.5 -20.5t22.5 10.5
t11.5 10.5t1.5 -3z" />
    <glyph glyph-name="odieresis" unicode="&#xf6;" horiz-adv-x="207" 
d="M220 70q-31 -19 -72 -19h-12q-27 -31 -57.5 -50.5t-52.5 -19.5q-31 0 -31 40t43 93q-4 11 -4 27q0 35 30.5 60.5t59.5 25.5q61 0 61 -66q0 -44 -38 -96h12q32 0 55 15q3 3 8 3t5 -3.5t-7 -9.5zM124 185q5 2 8 2t3 -4.5t-11 -12.5q-40 -31 -60 -56q22 -35 67 -46
q39 46 39 86q0 23 -15 35t-38.5 12t-43.5 -13.5t-20 -29t3 -24.5q31 32 68 51zM50 92q-16 -27 -16 -60q0 -18 16 -18q27 0 67 40q-45 8 -67 38zM114 326q15 0 15 -15t-14 -30.5t-31 -15.5q-14 0 -14 19.5t16 30.5t28 11zM219 316q15 0 15 -15t-14 -30.5t-31 -15.5
q-14 0 -14 19.5t16 30.5t28 11z" />
    <glyph glyph-name="divide" unicode="&#xf7;" horiz-adv-x="356" 
d="M274 320l-282 -2q-15 -1 -15 -21q0 -6 6 -8t85.5 -2t199.5 6q15 1 15 22q0 5 -9 5zM109.5 189q-9.5 -10 -21 -10t-17 5t-6 17t10.5 20t21 8q22 0 22 -19q0 -11 -9.5 -21zM184.5 383q-9.5 -10 -21 -10t-17 5t-6 17t10.5 20t21 8q22 0 22 -19q0 -11 -9.5 -21z" />
    <glyph glyph-name="oslash" unicode="&#xf8;" horiz-adv-x="207" 
d="M220 70q-31 -19 -72 -19h-12q-48 -54 -94 -67l-28 -49q-12 -23 -19.5 -23t-7.5 7.5t4 13.5l28 49q-24 3 -24 41t43 91q-4 11 -4 27q0 35 30.5 60.5t64.5 25.5q17 0 31 -9l17 31q10 18 19.5 18t9.5 -4l-34 -57q13 -18 13 -45q0 -44 -38 -96h12q32 0 55 15q3 3 8 3t5 -3.5
t-7 -9.5zM124 185q5 2 8 2t3 -4.5t-11 -12.5q-40 -31 -60 -56q22 -35 67 -46q39 46 39 86q0 23 -15 35t-38.5 12t-43.5 -13.5t-20 -29t3 -24.5q31 32 68 51zM50 92q-16 -27 -16 -60q0 -18 16 -18q27 0 67 40q-45 8 -67 38z" />
    <glyph glyph-name="ugrave" unicode="&#xf9;" horiz-adv-x="318" 
d="M125 10q0 11 16.5 37t22 33l16.5 22q-119 -108 -164 -108q-25 0 -25 21q0 30 101 169q5 8 13 8q23 -7 23 -10t-6 -12q-86 -116 -86 -130.5t10 -14.5q28 0 99.5 64.5t103.5 106.5q4 7 13 7q20 -4 20 -8l-30 -42l-31 -42.5l-25 -35.5q-25 -34 -30 -50q0 -10 16.5 -10
t58.5 19.5t74 39.5l32 20q1 -2 1 -8t-9 -10q-135 -92 -188 -92q-26 0 -26 26zM224 233q-4 0 -16 6l-85 54q-6 6 -6 13q0 14 14 14q6 0 10 -4l79 -65q14 -14 4 -18z" />
    <glyph glyph-name="uacute" unicode="&#xfa;" horiz-adv-x="318" 
d="M180 102q-55 -75 -55 -92q0 -26 25 -26t72 23t82 46l35 23q9 4 9 13l-1 5q-122 -79 -168 -79q-13 0 -13 10q6 18 36.5 60l49.5 68l30 42q0 4 -12 6q-15 3 -21 -5q-32 -42 -103.5 -106.5t-99.5 -64.5q-10 0 -10 14.5t86 130.5q6 9 6 12t-23 10q-7 0 -13 -8
q-101 -139 -101 -169q0 -21 25 -21q45 0 164 108zM185 224q-5 2 -5 6q1 4 9 12l79 65q4 4 10 4q14 0 14 -14q0 -7 -6 -13l-85 -54q-12 -6 -16 -6z" />
    <glyph glyph-name="ucircumflex" unicode="&#xfb;" horiz-adv-x="318" 
d="M125 10q0 11 16.5 37t22 33l16.5 22q-119 -108 -164 -108q-25 0 -25 21q0 30 101 169q5 8 13 8q23 -7 23 -10t-6 -12q-86 -116 -86 -130.5t10 -14.5q28 0 99.5 64.5t103.5 106.5q4 7 13 7q20 -4 20 -8l-30 -42l-31 -42.5l-25 -35.5q-25 -34 -30 -50q0 -10 16.5 -10
t58.5 19.5t74 39.5l32 20q1 -2 1 -8t-9 -10q-135 -92 -188 -92q-26 0 -26 26zM234 289q-112 -55 -121 -55t-9 4.5t67 44.5t75 40t24.5 -42t20.5 -51q-3 -6 -8 -6q-10 0 -39 48z" />
    <glyph glyph-name="udieresis" unicode="&#xfc;" horiz-adv-x="318" 
d="M125 10q0 11 16.5 37t22 33l16.5 22q-119 -108 -164 -108q-25 0 -25 21q0 30 101 169q5 8 13 8q23 -7 23 -10t-6 -12q-86 -116 -86 -130.5t10 -14.5q28 0 99.5 64.5t103.5 106.5q4 7 13 7q20 -4 20 -8l-30 -42l-31 -42.5l-25 -35.5q-25 -34 -30 -50q0 -10 16.5 -10
t58.5 19.5t74 39.5l32 20q1 -2 1 -8t-9 -10q-135 -92 -188 -92q-26 0 -26 26zM292 307q15 0 15 -15t-14 -30.5t-31 -15.5q-14 0 -14 19.5t16 30.5t28 11zM187 317q15 0 15 -15t-14 -30.5t-31 -15.5q-14 0 -14 19.5t16 30.5t28 11z" />
    <glyph glyph-name="yacute" unicode="&#xfd;" horiz-adv-x="249" 
d="M93 -69q92 150 104.5 168l35 52.5t22.5 35.5q0 7 -19 10l-15 -7q-57 -79 -129 -133q-42 -32 -55.5 -32t-13.5 12q0 19 90 141q6 9 6 12t-23 10q-7 0 -13 -8q-105 -145 -105 -177q0 -21 23 -21t61 24t66 48l27 24l-96 -166q-106 -30 -196.5 -136.5t-90.5 -166.5
q0 -35 34 -35q47 0 113 84t157 233q18 3 37.5 3t19.5 -11.5t-11 -20t-11 -12.5q0 -7 10 -7t28 19t18 33q0 25 -48 25q-18 0 -26 -1zM-178 -385q-16 0 -16 20.5t17 56t46 75t75.5 76t96.5 52.5q-169 -280 -219 -280zM177 233q-5 2 -5 6q1 4 9 12l79 65q4 4 10 4q14 0 14 -14
q0 -7 -6 -13l-85 -54q-12 -6 -16 -6z" />
    <glyph glyph-name="thorn" unicode="&#xfe;" horiz-adv-x="281" 
d="M117 158q68 39 114.5 39t46.5 -39q0 -53 -66.5 -110.5t-132.5 -57.5q-6 0 -15 6t-9 20t22.5 33t27 19t9 -1.5t9 -5.5t4.5 -7t-5 -8q-10 -7 -21.5 -18.5t-11.5 -16t10 -4.5t42 14.5t64 48t32 73.5q0 25 -29 25q-45 0 -106 -36q-101 -172 -106 -182q-87 -160 -155 -249.5
t-122 -89.5q-18 0 -18 22q0 88 115 241.5t246 248.5l210 362q-11 -13 -37 -31l-57 -39q-6 -2 -11 -2t-6 5q94 59 139 108q11 12 12 15q3 3 14 2t11 -10q0 -3 -3 -8zM-33 -42l79 137q-114 -88 -215.5 -233t-101.5 -213q0 -9 6 -9q63 0 232 318z" />
    <glyph glyph-name="ydieresis" unicode="&#xff;" horiz-adv-x="249" 
d="M232.5 151.5l-35 -52.5t-104.5 -168q8 1 26 1q48 0 48 -25q0 -14 -18 -33t-28 -19t-10 7q0 4 11 12.5t11 20t-19.5 11.5t-37.5 -3q-91 -149 -157 -233t-113 -84q-34 0 -34 35q0 60 90.5 166.5t196.5 136.5l96 166q-42 -38 -86.5 -67t-67.5 -29t-23 21q0 32 105 177
q5 8 13 8q23 -7 23 -10t-6 -12q-90 -122 -90 -141q0 -12 13.5 -12t56 32t72.5 65l56 68q6 7 15 7q19 -3 19 -10q0 -1 -22.5 -35.5zM-177 -308.5q-17 -35.5 -17 -56t16 -20.5q50 0 219 280q-50 -16 -96.5 -52.5t-75.5 -76t-46 -75zM161 305q15 0 15 -15t-14 -30.5t-31 -15.5
q-14 0 -14 19.5t16 30.5t28 11zM266 295q15 0 15 -15t-14 -30.5t-31 -15.5q-14 0 -14 19.5t16 30.5t28 11z" />
    <glyph glyph-name="dotlessi" unicode="&#x131;" horiz-adv-x="183" 
d="M85 173q5 8 14 8t18 -9q0 -4 -13 -18t-44 -62.5t-31 -64.5q0 -10 15 -12q20 0 62 19.5t74 39.5l32 20q1 -2 1 -8t-9 -10q-135 -92 -188 -92q-26 0 -26 26t28.5 72.5t66.5 90.5z" />
    <glyph glyph-name="Lslash" unicode="&#x141;" 
d="M880 628l-36 2h-12q-18 -52 -75 -96.5t-117 -44.5q-33 0 -33 26q0 38 60.5 85.5t146.5 55.5v2q0 52 -87 52q-44 0 -100 -24q-27 -12 -85 -68q-20 -18 -54 -67.5t-58 -91.5l-70 -127q81 17 98 17t17 -2q0 -7 -8.5 -16t-25 -11t-54 -8.5t-41.5 -6.5q-93 -171 -158 -254
q33 0 71 -1.5t116.5 -3.5t94 -3t15.5 -5q0 -29 -48 -32q-132 4 -281 6q-165 -189 -387 -189q-34 0 -54.5 16.5t-20.5 42t24 52.5t74 53t141 43.5t209 19.5q62 84 149 244q-43 -9 -91 -24q-5 0 -5 2t3 7q6 12 7 12l99 27q124 223 183 284q85 86 156 108q45 15 96 15
q98 0 98 -64v-4q27 0 46 -4q6 -6 5 -15.5t-8 -9.5zM-215 -158q184 0 327 170q-287 -3 -376 -86q-23 -21 -23 -40.5t19.5 -31.5t52.5 -12zM657 505q35 0 83.5 40t66.5 83q-73 -9 -121.5 -44.5t-48.5 -62.5q0 -16 20 -16z" />
    <glyph glyph-name="lslash" unicode="&#x142;" horiz-adv-x="193" 
d="M-16 248q3 0 18 4q40 13 86 24q69 105 145.5 181.5t122.5 76.5q19 0 19 -27q0 -42 -70.5 -137t-151.5 -178t-125 -114q-2 -16 -2 -21.5t1 -12.5t8 -18t23.5 -11t58.5 19.5t74 39.5l32 20q1 -2 1 -8t-9 -10q-135 -92 -188 -92q-45 0 -45 49q0 74 91 220q-54 -11 -94 -22
q-3 0 -3 1q0 3 3.5 9.5t4.5 6.5zM339 483q-1 22 -13 22q-30 0 -90 -66t-116 -156q53 12 67.5 12t14.5 -2q0 -6 -6.5 -13t-18.5 -8.5t-72 -12.5q-56 -96 -72 -159q42 34 108 100t130 151t68 132z" />
    <glyph glyph-name="OE" unicode="&#x152;" horiz-adv-x="754" 
d="M398 319q4 8 9.5 8t5.5 -6q0 -28 -69.5 -88t-119.5 -60q-59 0 -59 95q0 74 62 168.5t146 159.5t145 65q42 0 64 -38q152 113 257 113q85 0 85 -58q0 -6 -1 -9q44 14 66 14t28 -1.5t6 -12.5t-8 -13q-46 0 -100 -17q-22 -53 -77.5 -98.5t-105.5 -45.5q-27 0 -27 16
q0 25 58.5 72.5t129.5 75.5q1 2 1 7q0 45 -62 45t-152.5 -53.5t-158.5 -126t-68 -122.5q0 -63 116 -63q68 0 117 32q3 4 7 4q7 0 7 -10.5t-7 -13.5q-125 -57 -207 -130q-35 -31 -63.5 -77.5t-28.5 -86t20.5 -65t76.5 -25.5q19 1 43 6t81 34t109 77q8 10 13 10q6 -1 6 -8
q0 -17 -47 -52t-117.5 -65t-123.5 -30q-76 0 -104 52q-11 21 -11 46.5t11 53.5q-138 -122 -240 -122q-111 0 -111 158q0 96 38 189.5t92.5 159.5t115 118t107 77.5t65.5 25.5q5 0 7 -6q0 -8 -12 -10q-56 -19 -119.5 -69t-120 -120.5t-94 -166.5t-37.5 -194q0 -133 94 -133
q51 0 117.5 40.5t128.5 107.5q77 107 233 180q-47 -10 -87 -10q-126 0 -126 70q0 40 40 94.5t105 107.5q-16 35 -53 35q-51 0 -120 -54.5t-120.5 -138t-51.5 -157t51 -73.5q32 0 72.5 30.5t72.5 81.5zM738 523q0 -9 16 -9q30 0 71 36.5t59 77.5q-58 -24 -102 -56.5
t-44 -48.5z" />
    <glyph glyph-name="oe" unicode="&#x153;" horiz-adv-x="404" 
d="M148 51h-12q-27 -31 -57.5 -50.5t-52.5 -19.5q-31 0 -31 40t43 93q-4 11 -4 27q0 35 30.5 60.5t59.5 25.5q61 0 61 -66q0 -8 -1 -11q26 32 84 60.5t103 28.5q29 0 29 -18q0 -10 -15 -22t-29 -19t-16 -7q-6 0 -8 5q-2 7 10.5 14.5t12.5 16.5t-22.5 9t-70.5 -31.5
t-48 -51.5q0 -15 35 -15q6 0 22 1t16 -4t-49.5 -36t-49.5 -53q0 -25 32.5 -25t73.5 17q66 29 120 62l19 12q1 -2 1 -8t-9 -10q-53 -36 -116 -68.5t-113.5 -32.5t-50.5 33q0 20 27 44q-8 -1 -24 -1zM124 185q5 2 8 2t3 -4.5t-11 -12.5q-40 -31 -60 -56q22 -35 67 -46
q39 46 39 86q0 23 -15 35t-38.5 12t-43.5 -13.5t-20 -29t3 -24.5q31 32 68 51zM50 92q-16 -27 -16 -60q0 -18 16 -18q27 0 67 40q-45 8 -67 38zM232 97q-47 0 -58 16q-9 -23 -27 -48h12q18 0 33 4q16 13 40 28z" />
    <glyph glyph-name="Scaron" unicode="&#x160;" horiz-adv-x="455" 
d="M466 470q-39 0 -39 34q0 52 58 98t138 75q-7 29 -36 44.5t-71.5 15.5t-88 -16t-86 -45.5t-66 -78t-25.5 -106.5q0 -20 30 -117t30 -161q0 -16 -4 -46q38 4 55 4q97 0 97 -51q0 -18 -11 -30t-37 -28q-8 5 -8 9t4 7q30 17 30 34q0 34 -79 34q-29 0 -56 -4
q-17 -64 -63.5 -119.5t-103.5 -90t-114.5 -53.5t-101.5 -19q-68 0 -68 40q0 56 70 113t166.5 95.5t189.5 54.5q4 28 4 45q0 43 -31.5 134.5t-31.5 157.5t52 131.5t123.5 100.5t135.5 35q101 0 111 -85q56 18 76 18t21.5 -1.5t1.5 -11.5t-9 -13q-45 -2 -89 -13
q-2 -81 -61 -136t-113 -55zM-111 -75q0 -29 58 -29q81 0 181 58q49 28 88.5 76.5t54.5 107.5q-85 -14 -170.5 -45t-148.5 -76.5t-63 -91.5zM459 510q0 -19 20 -19q38 0 91.5 51.5t54.5 113.5q-70 -22 -118 -61t-48 -85zM602 826q112 55 121 55t9 -4.5t-67 -44.5t-75 -40
t-24.5 42t-20.5 51q3 6 8 6q8 0 39 -49z" />
    <glyph glyph-name="scaron" unicode="&#x161;" horiz-adv-x="197" 
d="M61 109q-48 -44 -61 -44q-4 0 -4 4t3 7q24 13 56 42q-5 12 -5 26q0 34 35 65t59 31q13 0 13 -12.5t-40 -60.5q-4 -5 -9 -10t-10.5 -11.5t-8.5 -9.5l18 -17.5l21 -20.5q22 -22 22 -55t-41 -57.5t-85.5 -24.5t-44.5 26.5t41 48.5t86 30q-6 8 -22.5 21t-22.5 22zM142 300
q112 55 121 55t9 -4.5t-67 -44.5t-75 -40t-24.5 42t-20.5 51q3 6 8 6q8 0 39 -49zM49 35.5q-30 -14.5 -30 -34t27.5 -19.5t49 13t21.5 29t-4 30q-34 -4 -64 -18.5zM82 144l26 28q26 31 26 37.5t-6 6.5q-17 0 -35 -16.5t-18 -32t7 -23.5z" />
    <glyph glyph-name="Ydieresis" unicode="&#x178;" horiz-adv-x="465" 
d="M357 620q0 -53 -26.5 -115t-64.5 -116.5l-76 -106.5q-91 -123 -91 -182q0 -18 10.5 -29.5t29.5 -11.5q95 0 332 259q35 37 53 66l6 8q7 11 14 11q24 -3 24 -15q0 -4 -3 -9l-46 -74l-84 -137l-122 -197q54 13 109 13t57 -31q0 -17 -14 -28q-23 -18 -36 -18t-13 3t8 7
t11.5 6.5l7.5 5.5q9 7 9 13q0 14 -50 14t-109 -16q-244 -382 -334 -382q-26 0 -26 32q0 71 97.5 191.5t233.5 173.5l100.5 173.5l79.5 137.5q-72 -81 -158 -150q-37 -31 -83.5 -56t-80.5 -25q-13 0 -24.5 3t-24 17.5t-12.5 49t26 89t63.5 106l75.5 102.5q89 120 89 192
q0 57 -27.5 83t-91.5 26t-134.5 -29.5t-121 -72t-82.5 -88t-32 -78.5q0 -46 60 -46q147 0 284 184q5 10 9.5 10t4.5 -12t-29.5 -49t-72.5 -77t-101 -70t-107 -30q-86 0 -86 65q0 41 36 94.5t94 102.5t141.5 82.5t168.5 33.5q36 0 62.5 -10.5t39.5 -25.5q23 -29 26 -57z
M-32 -376q0 -21 15 -21q69 0 262 320q-119 -48 -198 -146t-79 -153zM508 700q15 0 15 -15t-14 -30.5t-31 -15.5q-14 0 -14 19.5t16 30.5t28 11zM613 690q15 0 15 -15t-14 -30.5t-31 -15.5q-14 0 -14 19.5t16 30.5t28 11z" />
    <glyph glyph-name="Zcaron" unicode="&#x17d;" horiz-adv-x="633" 
d="M631 -10q0 18 -58.5 18t-125.5 -25q-35 -95 -117.5 -196.5t-165.5 -164t-129 -62.5q-35 0 -35 42q0 66 132.5 194.5t282.5 196.5q12 48 12 86q0 71 -64 91q-156 -134 -255 -134q-55 0 -55 24t42.5 57.5t111 59t131.5 25.5q13 0 31 -2q101 94 172.5 208t71.5 194
q0 111 -147 111q-87 0 -183.5 -50.5t-157.5 -115t-61 -108.5q0 -58 53 -58q45 0 115 38t124 85.5t61 74.5q2 11 6.5 11t4.5 -8q0 -36 -58.5 -94.5t-138.5 -103.5t-134 -45q-67 0 -67 75q0 42 41 98t105 106.5t152.5 85.5t173.5 35q159 0 159 -116q0 -84 -78.5 -204.5
t-190.5 -223.5q76 -22 76 -106q0 -39 -12 -79q79 29 139 29t60 -34q0 -24 -19.5 -40.5t-32.5 -16.5t-13 5.5t7 7.5t20.5 11.5t13.5 17.5zM38 -384q0 -20 20 -20q35 0 103.5 50t141.5 140t104 181q-136 -60 -252.5 -176.5t-116.5 -174.5zM342 175q-16 3 -47 3t-82 -18.5
t-84.5 -42t-33.5 -39.5t39 -16q80 0 208 113zM560 808q112 55 121 55t9 -4.5t-67 -44.5t-75 -40t-24.5 42t-20.5 51q3 6 8 6q8 0 39 -49z" />
    <glyph glyph-name="zcaron" unicode="&#x17e;" horiz-adv-x="242" 
d="M197 163q0 -21 -47 -63.5t-64 -52.5q9 3 33.5 3t48 -16.5t23.5 -38t-4 -36.5q19 4 43 4q48 0 48 -25q0 -14 -18.5 -35.5t-28.5 -21.5t-10 7q0 4 11 12.5t11 20.5q0 16 -19 16t-44 -5q-35 -104 -138.5 -226.5t-158.5 -122.5q-34 0 -34 35q0 62 95.5 175t202.5 154
q9 25 9 43.5t-16.5 29.5t-35.5 11q-46 0 -74 -23q-10 -8 -16.5 -8t-6.5 4.5t7 10t27.5 20t39 29t39.5 33.5q48 42 48 67q-7 -7 -38.5 -15t-59.5 -8q-57 0 -57 27q0 10 15 22t29 19t16 7q6 0 7 -5q2 -6 -10 -14t-12 -17t23 -9t49.5 6.5t37.5 6.5q29 0 29 -21zM-84.5 -281
q-32.5 -56 -32.5 -81.5t16 -25.5q40 0 121 106.5t118 201.5q-67 -25 -128.5 -85t-94 -116zM159 265q112 55 121 55t9 -4.5t-67 -44.5t-75 -40t-24.5 42t-20.5 51q3 6 8 6q10 0 39 -48z" />
    <glyph glyph-name="circumflex" unicode="&#x2c6;" horiz-adv-x="392" 
d="M233 289q-112 -55 -121 -55t-9 4.5t67 44.5t75 40t24.5 -42t20.5 -51q-3 -6 -8 -6q-10 0 -39 48z" />
    <glyph glyph-name="caron" unicode="&#x2c7;" horiz-adv-x="392" 
d="M241 259q112 55 121 55t9 -4.5t-67 -44.5t-75 -40t-24.5 42t-20.5 51q3 6 8 6q10 0 39 -48z" />
    <glyph glyph-name="breve" unicode="&#x2d8;" horiz-adv-x="303" 
d="M344 316l5 -5q-18 -23 -54 -48t-64 -25q-47 0 -47 76v4q3 6 8 6q14 -58 57 -58q45 0 95 50z" />
    <glyph glyph-name="dotaccent" unicode="&#x2d9;" horiz-adv-x="303" 
d="M231 236q-9 0 -14.5 5t-6 17t10.5 20t20 8t16 -6t7 -15t-12 -19t-21 -10z" />
    <glyph glyph-name="ring" unicode="&#x2da;" 
d="M226.5 259q-8.5 9 -8.5 23.5t15 35.5t35 21q37 0 37 -34q0 -19 -18.5 -37t-35 -18t-25 9zM269 320q-14 0 -23 -11.5t-9 -20.5t5 -14.5t15 -5.5t19.5 10.5t9.5 22.5q0 19 -17 19z" />
    <glyph glyph-name="ogonek" unicode="&#x2db;" horiz-adv-x="228" 
d="M156 -64l2 -8q-27 -10 -52.5 -10t-40 7.5t-14.5 20.5q0 23 49 54q2 2 4.5 2t4.5 -2q-25 -28 -25 -46q0 -23 37 -23q15 0 35 5z" />
    <glyph glyph-name="tilde" unicode="&#x2dc;" horiz-adv-x="377" 
d="M320 244q0 -15 -15.5 -26t-34.5 -11t-51 18.5t-44.5 18.5t-25.5 -9.5t-18 -9.5l-2 1q0 7 18.5 24t37.5 17t53 -20.5t46.5 -20.5t22.5 10.5t11.5 10.5t1.5 -3z" />
    <glyph glyph-name="hungarumlaut" unicode="&#x2dd;" horiz-adv-x="380" 
d="M165 236q-5 2 -5 6q1 4 9 12l79 65q4 4 10 4q14 0 14 -14q0 -7 -6 -13l-85 -54q-12 -6 -16 -6zM233 236q-5 2 -5 6q1 4 9 12l79 65q4 4 10 4q14 0 14 -14q0 -7 -6 -13l-85 -54q-12 -6 -16 -6z" />
    <glyph glyph-name="endash" unicode="&#x2013;" horiz-adv-x="356" 
d="M88 134l235 1q8 0 8 -4q0 -17 -13 -18q-100 -5 -213 -5q-29 0 -29 8q0 17 12 18z" />
    <glyph glyph-name="emdash" unicode="&#x2014;" horiz-adv-x="549" 
d="M49 134l470 1q16 0 16 -4q0 -17 -26 -18q-201 -5 -426 -5q-57 0 -57 8q0 18 23 18z" />
    <glyph glyph-name="quoteleft" unicode="&#x2018;" horiz-adv-x="274" 
d="M261 412q0 -22 -20 -22q-13 0 -19.5 10.5t-6.5 23.5q0 79 98 116q8 0 8 -5q0 -1 -17 -12q-54 -34 -54 -65q0 -10 5.5 -25t5.5 -21z" />
    <glyph glyph-name="quoteright" unicode="&#x2019;" horiz-adv-x="258" 
d="M129 396q0 10 21 28t21 39.5t-14.5 50t-14.5 30.5t3.5 2t5.5 -2q41 -42 41 -96q0 -22 -10 -47t-31 -25q-10 0 -15.5 5t-6.5 15z" />
    <glyph glyph-name="quotesinglbase" unicode="&#x201a;" horiz-adv-x="170" 
d="M54 -40.5q21 17.5 21 39t-14.5 50t-14.5 30.5t3.5 2t5.5 -2q41 -42 41 -96q0 -22 -10 -47t-31 -25q-10 0 -15.5 5t-6 15.5t20.5 28z" />
    <glyph glyph-name="quotedblleft" unicode="&#x201c;" horiz-adv-x="347" 
d="M261 412q0 -22 -20 -22q-13 0 -19.5 10.5t-6.5 23.5q0 79 98 116q8 0 8 -5q0 -1 -17 -12q-54 -34 -54 -65q0 -10 5.5 -25t5.5 -21zM340 378q0 -22 -20 -22q-13 0 -19.5 10.5t-6.5 23.5q0 79 98 116q8 0 8 -5q0 -1 -18 -12t-35.5 -28.5t-17.5 -32t5.5 -29.5t5.5 -21z" />
    <glyph glyph-name="quotedblright" unicode="&#x201d;" horiz-adv-x="347" 
d="M129 396q0 10 21 28t21 39.5t-14.5 50t-14.5 30.5t3.5 2t5.5 -2q41 -42 41 -96q0 -22 -10 -47t-31 -25q-10 0 -15.5 5t-6.5 15zM215 386q0 10 21 28t21 39.5t-14.5 50t-14.5 30.5t3.5 2t5.5 -2q41 -42 41 -96q0 -22 -10 -47t-31 -25q-10 0 -15.5 5t-6.5 15z" />
    <glyph glyph-name="quotedblbase" unicode="&#x201e;" horiz-adv-x="256" 
d="M54 -40.5q21 17.5 21 39t-14.5 50t-14.5 30.5t3.5 2t5.5 -2q41 -42 41 -96q0 -22 -10 -47t-31 -25q-10 0 -15.5 5t-6 15.5t20.5 28zM140 -51q21 17 21 39t-14.5 50.5t-14.5 30.5t3.5 2t5.5 -2q41 -42 41 -96q0 -22 -10 -47t-31 -25q-10 0 -15.5 5t-6 15.5t20.5 27.5z" />
    <glyph glyph-name="dagger" unicode="&#x2020;" 
d="M410 592q11 20 22.5 20t11.5 -4v-1q0 -9 -81 -156q50 -18 70 -18t33.5 5.5t21 10.5t9.5 5t2 -3q0 -15 -27 -26t-58 -11t-66 10l-275 -492q-4 -8 -12.5 -16.5t-13.5 -8.5q-9 0 -9 10q0 6 4 14l280 502q-49 18 -72.5 18t-47.5 -9.5t-30 -9.5l-3 1q0 4 13 13.5t37.5 18.5
t51 9t66.5 -14z" />
    <glyph glyph-name="bullet" unicode="&#x2022;" horiz-adv-x="290" 
d="M178 99.5q-24 -20.5 -42.5 -20.5t-29 10t-11.5 20l-1 10q0 28 22 44t40.5 16t32 -11.5t13.5 -29.5t-24 -38.5z" />
    <glyph glyph-name="ellipsis" unicode="&#x2026;" horiz-adv-x="534" 
d="M102.5 -5q-9.5 -10 -21 -10t-17 5t-6 17t10.5 20t21 8q22 0 22 -19q0 -11 -9.5 -21zM242.5 -6q-9.5 -10 -21 -10t-17 5t-6 17t10.5 20t21 8q22 0 22 -19q0 -11 -9.5 -21zM382.5 -6q-9.5 -10 -21 -10t-17 5t-6 17t10.5 20t21 8q22 0 22 -19q0 -11 -9.5 -21z" />
    <glyph glyph-name="perthousand" unicode="&#x2030;" horiz-adv-x="1029" 
d="M342.5 312.5l211.5 372.5t19.5 16t10.5 -4.5t-422 -754.5q-4 -8 -12.5 -16.5t-13.5 -8.5q-9 0 -9 10q0 6 6.5 17.5zM124 272q-40 0 -58 22.5t-18 63t28 103.5t86.5 115.5t127.5 52.5q74 0 74 -88t-80 -178.5t-160 -90.5zM286 617q-46 0 -95.5 -48.5t-80 -112.5
t-30.5 -112q0 -59 50 -59q66 0 135.5 99.5t69.5 175.5q0 57 -49 57zM434 -18q-40 0 -58 22.5t-18 63t28 103.5t86.5 115.5t127.5 52.5q74 0 74 -88t-80 -178.5t-160 -90.5zM596 327q-46 0 -95.5 -48.5t-80 -112.5t-30.5 -112q0 -59 50 -59q66 0 135.5 99.5t69.5 175.5
q0 57 -49 57zM751 -18q-40 0 -58 22.5t-18 63t28 103.5t86.5 115.5t127.5 52.5q74 0 74 -88t-80 -178.5t-160 -90.5zM913 327q-46 0 -95.5 -48.5t-80 -112.5t-30.5 -112q0 -59 50 -59q66 0 135.5 99.5t69.5 175.5q0 57 -49 57z" />
    <glyph glyph-name="guilsinglleft" unicode="&#x2039;" horiz-adv-x="285" 
d="M71 120l166 80q2 -8 2 -14t-10 -11l-118 -69l66 -70q8 -8 8 -12q0 -7 -15 -11l-103 90q-3 3 -3 8t7 9z" />
    <glyph glyph-name="guilsinglright" unicode="&#x203a;" horiz-adv-x="312" 
d="M233 84l-166 -80q-2 8 -2 14t10 11l118 69l-66 70q-8 8 -8 12q0 7 15 11l103 -90q3 -3 3 -8t-7 -9z" />
    <glyph glyph-name="fraction" unicode="&#x2044;" horiz-adv-x="225" 
d="M76.5 312.5l211.5 372.5t19.5 16t10.5 -4.5t-422 -754.5q-4 -8 -12.5 -16.5t-13.5 -8.5q-9 0 -9 10q0 6 6.5 17.5z" />
    <glyph glyph-name="foursuperior" unicode="&#x2074;" horiz-adv-x="408" 
d="M160 213q-4 -10 -23 -10t-19 8l4 11q15 30 71 114h-7l-172 -6q-17 0 -17 11l3 12q87 94 231.5 191.5t180.5 97.5q20 0 21 -7v-1q0 -12 -22 -40q-88 -116 -167 -238q48 1 105 9h3q8 0 8 -8q0 -15 -128 -21q-42 -64 -72 -123zM79 352q69 0 127 2l176 256q3 4 3 5.5t-3 1.5
l-7 -2q-22 -12 -57 -33.5t-120 -86.5t-141 -128q-4 -6 -4 -10.5t7 -4.5h19z" />
    <glyph glyph-name="Euro" unicode="&#x20ac;" horiz-adv-x="561" 
d="M-80 309q7 3 70 8q48 108 143 201.5t194 144t174 50.5q123 0 123 -101q0 -68 -52.5 -155.5t-132 -150.5t-146.5 -63q-54 0 -54 51q0 65 84.5 160.5t144.5 95.5q8 0 8 -6l-5 -13q-36 0 -85 -41t-83 -95t-34 -90q0 -40 45 -40t110 58t111 139t46 141q0 86 -102 86
t-246 -110t-209 -260q40 3 95 3h28q48 -1 48 -5.5t-10.5 -12.5t-24.5 -7t-72 1t-73 -1l-12 -36q50 2 87 2h28q48 -1 48 -5.5t-10.5 -12.5t-24.5 -7t-93 1h-40q-11 -46 -11 -89q0 -158 140 -158q73 0 158 39.5t114 76.5q8 0 8 -12q0 -15 -46.5 -46t-120 -57.5t-134.5 -26.5
q-156 0 -156 173q0 45 13 99q-20 -1 -81 -8q-5 0 -5 3l14 17q10 4 78 9q10 29 13 37q-6 0 -71 -7q-5 0 -5 3z" />
    <glyph glyph-name="trademark" unicode="&#x2122;" horiz-adv-x="330" 
d="M240 152q0 -3 6 -3t34 17v-1q0 -3 -2 -4q-34 -23 -44 -23t-10 6.5t65 123.5q-40 -38 -102 -118q-9 -11 -11.5 -11t-5 2.5t-2.5 6.5t33.5 55t33.5 56q0 3 -23 -23q-71 -80 -85 -94q-2 -1 -6.5 -1t-4.5 2l2 5q51 61 51 105q0 21 -18 21q10 7 18 7q13 0 13 -19t-11 -43
t-23 -38l-11 -14q1 0 47 50.5t52 56.5q6 3 10 3t4 -4t-15 -29l-33.5 -54.5t-21.5 -35.5q2 0 22 24q65 83 76 95q8 5 16.5 5t8.5 -4l-56 -105q-7 -11 -7 -17zM164 308l81 -2q37 0 49.5 2.5t12.5 1.5q0 -13 -62 -13l-73 1q-95 0 -143 -31q-33 -22 -33 -40q0 -11 15.5 -11
t39.5 13.5t34 24t11 10.5l1 -1v-1q-8 -17 -34.5 -36t-51.5 -19t-25 14q0 26 37 52q52 35 141 35zM144 284l-1 -1l-82 -155q-4 -6 -11.5 -6t-7.5 1q0 2 63 117l21 39q2 3 5 4l11 2z" />
    <glyph glyph-name="minus" unicode="&#x2212;" horiz-adv-x="356" 
d="M-8 318l282 2q9 0 9 -5q0 -21 -15 -22q-120 -6 -199.5 -6t-85.5 2t-6 8q0 20 15 21z" />
    <glyph glyph-name="lessequal" unicode="&#x2264;" horiz-adv-x="356" 
d="M235 189l-282 -2q-15 -1 -15 -21q0 -6 6 -8t85.5 -2t199.5 6q15 1 15 22q0 5 -9 5zM10 358l301 117v-14q0 -16 -17 -24l-259 -98l198 -96q8 -3 8 -12q0 -13 -20 -19l-218 116q-6 6 -6 13t13 17z" />
    <glyph glyph-name="greaterequal" unicode="&#x2265;" horiz-adv-x="356" 
d="M235 189l-282 -2q-15 -1 -15 -21q0 -6 6 -8t85.5 -2t199.5 6q15 1 15 22q0 5 -9 5zM278 323l-297 -109v14q0 16 17 24l255 90l-165 104q-15 15 -15 20q0 12 13 16l199 -129q6 -6 6 -13t-13 -17z" />
    <glyph glyph-name="apple" unicode="&#xf8ff;" horiz-adv-x="632" 
d="M434 738l-90 -85q-9 1 -28 1t-28 -1l-90 85h59l58 -61l59 61h60zM632 304q0 -130 -93 -223t-223.5 -93t-223 92.5t-92.5 223.5t92.5 223.5t223 92.5t223.5 -93t93 -223zM586 304q0 112 -79 191.5t-191 79.5t-191.5 -79.5t-79.5 -191.5t79.5 -191.5t191.5 -79.5t191 79.5
t79 191.5zM458 204q0 -53 -44.5 -80.5t-102 -27.5t-137.5 39l9 47q66 -41 128 -41q40 0 65 16.5t25 41t-22.5 44t-54.5 35l-64 32.5t-54.5 42.5t-22.5 56.5q0 54 39.5 78.5t91.5 24.5q37 0 60 -11q46 -22 61 -32l-11 -43q-48 42 -107 42q-36 0 -58 -15.5t-22 -39t23 -41.5
t55.5 -31.5t64.5 -29t55 -43t23 -64.5z" />
    <glyph glyph-name="fi" unicode="&#xfb01;" horiz-adv-x="379" 
d="M281 173q5 8 14 8t18 -9q0 -4 -13 -18t-44 -62.5t-31 -64.5q0 -10 15 -12q20 0 62 19.5t74 39.5l32 20q1 -2 1 -8t-9 -10q-135 -92 -188 -92q-26 0 -26 26q0 21 19 56l-53 -32.5t-84 -49.5q3 -10 3 -24q0 -53 -46.5 -131.5t-109 -136t-104.5 -57.5q-19 0 -19 30t105 233
q-22 -8 -35 -8q-36 0 -36 21q0 25 43.5 61t92.5 49q112 203 217 348.5t160 145.5q22 0 22 -22q0 -46 -43 -113t-114 -139q-89 -91 -178 -171q-3 -3 -28 -44q45 -1 63 -27q94 49 157 89q25 40 63 85zM-166 -317q0 -11 7 -11q28 0 76.5 51.5t86.5 121t38 113.5q0 7 -1 11
q-77 -42 -106 -55q-101 -185 -101 -231zM325 468q0 12 -11 12q-19 -1 -97 -111.5t-171 -262.5q62 55 135 135q144 156 144 227zM-133 -60q0 -14 26 -14q4 0 20 4l39 72q-33 -9 -59 -28.5t-26 -33.5zM375 305q15 0 15 -15t-14 -30.5t-31 -15.5q-14 0 -14 19.5t16 30.5t28 11z
M-48 -54q8 3 84 40q-13 22 -46 22h-2l-19 -33t-17 -29z" />
    <glyph glyph-name="fl" unicode="&#xfb02;" horiz-adv-x="389" 
d="M179 49q-73 -44 -111 -65q3 -10 3 -24q0 -53 -46.5 -131.5t-109 -136t-104.5 -57.5q-19 0 -19 30t105 233q-22 -8 -35 -8q-36 0 -36 21q0 25 43.5 61t92.5 49q112 203 217 348.5t160 145.5q22 0 22 -22q0 -46 -43 -113t-114 -139q-89 -91 -178 -171q-3 -3 -28 -44
q45 -1 63 -27q60 32 121 68q17 75 87 187t152.5 196t130.5 84q19 0 19 -27q0 -42 -70.5 -137t-151.5 -178t-125 -114q-2 -16 -2 -21.5t1 -12.5t8 -18t23.5 -11t58.5 19.5t74 39.5l32 20q1 -2 1 -8t-9 -10q-135 -92 -188 -92q-45 0 -45 49zM535 483q-1 22 -13 22
q-31 0 -94 -70t-122 -167.5t-77 -167.5q42 34 108 100t130 151t68 132zM-166 -317q0 -11 7 -11q28 0 76.5 51.5t86.5 121t38 113.5q0 7 -1 11q-77 -42 -106 -55q-101 -185 -101 -231zM325 468q0 12 -11 12q-19 -1 -97 -111.5t-171 -262.5q62 55 135 135q144 156 144 227z
M-133 -60q0 -14 26 -14q4 0 20 4l39 72q-33 -9 -59 -28.5t-26 -33.5zM-48 -54q8 3 84 40q-13 22 -48 22l-19 -33t-17 -29z" />
    <glyph glyph-name="DLE" 
 />
    </font>
</defs>
</svg>
